<?xml version="1.0" encoding="utf-8"?>
<!-- Generator: Adobe Illustrator 22.0.1, SVG Export Plug-In . SVG Version: 6.00 Build 0)  -->
<svg version="1.1" id="Layer_1" xmlns="http://www.w3.org/2000/svg" xmlns:xlink="http://www.w3.org/1999/xlink" x="0px" y="0px"
	 viewBox="0 0 100 100" style="enable-background:new 0 0 100 100;" xml:space="preserve">
<style type="text/css">
	.st0{fill:#FFFFFF;}
</style>
<path class="st0" d="M50,14c-19.9,0-36,16.1-36,36s16.1,36,36,36s36-16.1,36-36S69.9,14,50,14z M50,85c-19.3,0-35-15.7-35-35
	s15.7-35,35-35s35,15.7,35,35S69.3,85,50,85z"/>
<path class="st0" d="M89.4,42.9c0.4,2.3,0.6,4.7,0.6,7.1c0,2.4-0.2,4.8-0.6,7.1L100,59V41L89.4,42.9z"/>
<path class="st0" d="M10,50c0-2.4,0.2-4.8,0.6-7.1L0,41v18l10.6-1.9C10.2,54.8,10,52.4,10,50z"/>
<path class="st0" d="M57.1,89.4C54.8,89.8,52.4,90,50,90c-2.4,0-4.8-0.2-7.1-0.6L41,100h18L57.1,89.4z"/>
<path class="st0" d="M50,10c2.4,0,4.8,0.2,7.1,0.6L59,0H41l1.9,10.6C45.2,10.2,47.6,10,50,10z"/>
<path class="st0" d="M63.6,12.4c2.2,0.8,4.4,1.8,6.4,3c2.1,1.2,4,2.6,5.8,4.1l7-8.3l-15.6-9L63.6,12.4z"/>
<path class="st0" d="M30,84.6c-2.1-1.2-4-2.6-5.8-4.1l-7,8.3l15.6,9l3.7-10.2C34.3,86.8,32.1,85.8,30,84.6z"/>
<path class="st0" d="M87.6,63.6c-0.8,2.2-1.8,4.4-3,6.4c-1.2,2.1-2.6,4-4.1,5.8l8.3,7l9-15.6L87.6,63.6z"/>
<path class="st0" d="M15.4,30c1.2-2.1,2.6-4,4.1-5.8l-8.3-7l-9,15.6l10.2,3.7C13.2,34.3,14.2,32.1,15.4,30z"/>
<path class="st0" d="M80.6,24.2c1.5,1.8,2.9,3.7,4.1,5.8c1.2,2.1,2.2,4.3,3,6.5l10.2-3.7l-9-15.6L80.6,24.2z"/>
<path class="st0" d="M15.4,70c-1.2-2.1-2.2-4.3-3-6.5L2.2,67.2l9,15.6l8.3-7C17.9,74,16.6,72.1,15.4,70z"/>
<path class="st0" d="M75.8,80.6c-1.8,1.5-3.7,2.9-5.8,4.1c-2.1,1.2-4.3,2.2-6.5,3l3.7,10.2l15.6-9L75.8,80.6z"/>
<path class="st0" d="M30,15.4c2.1-1.2,4.3-2.2,6.5-3L32.8,2.2l-15.6,9l7,8.3C26,17.9,27.9,16.6,30,15.4z"/>
</svg>
