<svg xmlns="http://www.w3.org/2000/svg" viewBox="0 0 18.516 13.88">
  <defs>
    <style>
      .cls-1 {
        fill: #c5d1c5;
      }
    </style>
  </defs>
  <g id="choose_node" data-name="choose node" transform="translate(0 0)">
    <ellipse id="Ellipse_29" data-name="Ellipse 29" class="cls-1" cx="2.296" cy="2.296" rx="2.296" ry="2.296" transform="translate(6.807 9.288)"/>
    <g id="Group_237" data-name="Group 237" transform="translate(0 0)">
      <path id="Path_333" data-name="Path 333" class="cls-1" d="M1.264,5.819h0A9.664,9.664,0,0,1,15.482,4.063a10.454,10.454,0,0,1,1.769,2.026l1.264-1.08A13.1,13.1,0,0,0,16.493,2.78,11.163,11.163,0,0,0,.063,4.738H0Z" transform="translate(0 -0.036)"/>
      <path id="Path_334" data-name="Path 334" class="cls-1" d="M7.6,12.733l1.013.81a4.708,4.708,0,0,1,6.617-.675,6.722,6.722,0,0,1,.945,1.013l1.013-.81a4.916,4.916,0,0,0-1.148-1.215A6,6,0,0,0,7.6,12.733Z" transform="translate(-3.107 -4.39)"/>
      <path id="Path_335" data-name="Path 335" class="cls-1" d="M3.6,8.912h0L4.774,10.06s0-.068.062-.068a6.655,6.655,0,0,1,9.885-1.215,9.029,9.029,0,0,1,1.3,1.418l1.236-1.08a9.282,9.282,0,0,0-1.483-1.688A8.257,8.257,0,0,0,3.6,8.912Z" transform="translate(-1.169 -2.389)"/>
    </g>
  </g>
</svg>
