<svg xmlns="http://www.w3.org/2000/svg" viewBox="0 0 179.58 250.45"><defs><style>.cls-1{fill:#f4f4f2;stroke:#231f20;}</style></defs><title>clubsAsset 3</title><g id="Layer_2" data-name="Layer 2"><g id="Layer_1-2" data-name="Layer 1"><g id="three"><rect class="cls-1" x="0.5" y="0.5" width="178.58" height="249.45" rx="14.17" ry="14.17"/><path d="M13.25,43a3.6,3.6,0,0,0-3.37,3.8,4,4,0,0,0,1.27,3c.25.24.14.5-.12.34a3.06,3.06,0,0,0-1.61-.48,3.69,3.69,0,0,0,0,7.33,3.19,3.19,0,0,0,2.81-1.81c.06-.11.1-.25.18-.25s.16.17.16.5a12.75,12.75,0,0,1-1.25,4.61,7.07,7.07,0,0,1,3.87,0,12.55,12.55,0,0,1-1.25-4.61c0-.33,0-.5.16-.5s.12.14.17.25A3.21,3.21,0,0,0,17.08,57a3.69,3.69,0,0,0,0-7.33,3.12,3.12,0,0,0-1.6.48c-.27.16-.38-.1-.12-.34a4,4,0,0,0,1.27-3A3.61,3.61,0,0,0,13.25,43Z"/><path d="M166.32,207.48a3.62,3.62,0,0,0,3.38-3.81,4,4,0,0,0-1.27-3c-.26-.24-.15-.5.11-.34a3.16,3.16,0,0,0,1.61.48,3.69,3.69,0,0,0,0-7.33,3.21,3.21,0,0,0-2.81,1.81c0,.11-.1.25-.18.25s-.15-.17-.15-.5a12.55,12.55,0,0,1,1.25-4.61,10.66,10.66,0,0,1-1.94.27,10.43,10.43,0,0,1-1.93-.27,12.75,12.75,0,0,1,1.25,4.61c0,.33,0,.5-.16.5s-.12-.14-.18-.25a3.19,3.19,0,0,0-2.81-1.81,3.69,3.69,0,0,0,0,7.33,3.06,3.06,0,0,0,1.61-.48c.26-.16.38.1.12.34a4,4,0,0,0-1.27,3A3.61,3.61,0,0,0,166.32,207.48Z"/><path d="M89.79,26c-4.66,0-8.44,4.26-8.44,9.5a10,10,0,0,0,3.17,7.42c.65.59.37,1.24-.29.83a7.66,7.66,0,0,0-4-1.19c-4.49,0-8.14,4.11-8.14,9.17s3.65,9.17,8.14,9.17a8,8,0,0,0,7-4.55c.14-.26.25-.63.45-.63s.39.44.39,1.26c0,3.29-1.27,7.13-3.13,11.54a17.5,17.5,0,0,1,9.68,0c-1.87-4.41-3.13-8.25-3.13-11.54,0-.82.13-1.26.39-1.26s.31.37.45.63a8,8,0,0,0,7,4.55c4.49,0,8.14-4.11,8.14-9.17s-3.65-9.17-8.14-9.17a7.66,7.66,0,0,0-4,1.19c-.66.41-.94-.24-.29-.83a10,10,0,0,0,3.19-7.45C98.23,30.27,94.45,26,89.79,26Z"/><path d="M89.79,104c-4.66,0-8.44,4.25-8.44,9.5a10.05,10.05,0,0,0,3.17,7.42c.65.59.37,1.23-.29.83a7.66,7.66,0,0,0-4-1.19c-4.49,0-8.14,4.11-8.14,9.17s3.65,9.16,8.14,9.16a8,8,0,0,0,7-4.54c.14-.27.25-.63.45-.63s.39.44.39,1.25c0,3.29-1.27,7.13-3.13,11.55a17.5,17.5,0,0,1,9.68,0c-1.87-4.42-3.13-8.26-3.13-11.55,0-.81.13-1.25.39-1.25s.31.36.45.63a8,8,0,0,0,7,4.54c4.49,0,8.14-4.11,8.14-9.16s-3.65-9.17-8.14-9.17a7.66,7.66,0,0,0-4,1.19c-.66.4-.94-.24-.29-.83a10,10,0,0,0,3.17-7.42C98.23,108.21,94.45,104,89.79,104Z"/><path d="M89.79,224.48c4.66,0,8.44-4.25,8.44-9.5a10,10,0,0,0-3.17-7.42c-.65-.59-.37-1.23.29-.83a7.66,7.66,0,0,0,4,1.19c4.49,0,8.14-4.11,8.14-9.17s-3.65-9.16-8.14-9.16a8,8,0,0,0-7,4.54c-.14.26-.25.63-.45.63s-.39-.44-.39-1.26c0-3.28,1.26-7.12,3.13-11.54A17.5,17.5,0,0,1,85,182c1.86,4.42,3.13,8.26,3.13,11.54,0,.82-.13,1.26-.39,1.26s-.31-.37-.45-.63a8,8,0,0,0-7-4.54c-4.49,0-8.14,4.1-8.14,9.16s3.65,9.17,8.14,9.17a7.66,7.66,0,0,0,4-1.19c.66-.4.94.24.29.83A10,10,0,0,0,81.37,215C81.35,220.18,85.13,224.48,89.79,224.48Z"/><path d="M14.31,22.48l5.88-5.25h0V14.67H6.71v4.07H8.79V17.2h7.92L8.94,24.4l1.12,1.66a4.53,4.53,0,0,1,3.08-1.25,4.89,4.89,0,0,1,3.57,1.67,6.4,6.4,0,0,1,0,8.11,4.93,4.93,0,0,1-3.64,1.68,4.57,4.57,0,0,1-3.5-1.68,6,6,0,0,1-1.33-2.78l-2.11.44c.68,3.71,3.52,6.5,6.94,6.5,3.91,0,7.23-3.67,7.23-8.21C20.34,26.48,17.71,23.12,14.31,22.48Z"/><path d="M165.27,228l-5.88,5.25h0v2.51h13.53v-4.07h-2.07v1.54h-7.92L170.7,226l-1.12-1.66a4.52,4.52,0,0,1-3.08,1.24,4.88,4.88,0,0,1-3.64-1.67,6.4,6.4,0,0,1,0-8.11,4.93,4.93,0,0,1,3.64-1.68,4.6,4.6,0,0,1,3.5,1.68,6,6,0,0,1,1.33,2.78l2.11-.44c-.68-3.71-3.53-6.5-6.94-6.5-3.91,0-7.23,3.68-7.23,8.21C159.24,224,161.9,227.32,165.27,228Z"/></g></g></g></svg>