<svg xmlns="http://www.w3.org/2000/svg" viewBox="0 0 179.58 250.45"><defs><style>.cls-1{fill:#f4f4f2;stroke:#231f20;}.cls-2{fill:none;}</style></defs><title>clubsAsset 6</title><g id="Layer_2" data-name="Layer 2"><g id="Layer_1-2" data-name="Layer 1"><g id="six"><rect class="cls-1" x="0.5" y="0.5" width="178.58" height="249.45" rx="14.17" ry="14.17"/><path d="M13.25,43a3.6,3.6,0,0,0-3.37,3.8,4,4,0,0,0,1.26,3c.26.24.15.5-.11.34a3,3,0,0,0-1.61-.48,3.69,3.69,0,0,0,0,7.33,3.21,3.21,0,0,0,2.81-1.81c.06-.11.1-.26.18-.26s.16.18.16.51A12.75,12.75,0,0,1,11.32,60a10.43,10.43,0,0,1,1.93-.27,10.66,10.66,0,0,1,1.94.27,12.55,12.55,0,0,1-1.25-4.61c0-.33,0-.51.15-.51s.13.15.18.26A3.22,3.22,0,0,0,17.08,57a3.69,3.69,0,0,0,0-7.33,3,3,0,0,0-1.6.48c-.27.16-.38-.1-.12-.34a4,4,0,0,0,1.27-3A3.62,3.62,0,0,0,13.25,43Z"/><path d="M166.32,207.42a3.61,3.61,0,0,0,3.38-3.8,4,4,0,0,0-1.27-3c-.26-.23-.15-.49.12-.33a3.12,3.12,0,0,0,1.6.48,3.7,3.7,0,0,0,0-7.34,3.22,3.22,0,0,0-2.81,1.82c-.05.11-.1.25-.17.25s-.16-.17-.16-.5a12.61,12.61,0,0,1,1.25-4.62,9.87,9.87,0,0,1-1.94.28,9.66,9.66,0,0,1-1.93-.28,12.86,12.86,0,0,1,1.25,4.62c0,.33,0,.5-.16.5s-.12-.14-.18-.25a3.2,3.2,0,0,0-2.81-1.82,3.7,3.7,0,0,0,0,7.34,3.06,3.06,0,0,0,1.61-.48c.26-.16.37.1.12.33a4,4,0,0,0-1.27,3A3.6,3.6,0,0,0,166.32,207.42Z"/><path d="M46.56,26.11c-4.66,0-8.44,4.26-8.44,9.5A10,10,0,0,0,41.29,43c.65.59.37,1.24-.29.84a7.67,7.67,0,0,0-4-1.2c-4.49,0-8.14,4.11-8.14,9.17S32.48,61,37,61a8,8,0,0,0,7-4.54c.14-.27.25-.64.44-.64s.4.44.4,1.26c0,3.29-1.27,7.13-3.13,11.54A26.37,26.37,0,0,1,46.53,68a26.37,26.37,0,0,1,4.84.68c-1.87-4.41-3.13-8.25-3.13-11.54,0-.82.13-1.26.4-1.26s.3.37.44.64a8,8,0,0,0,7,4.54c4.5,0,8.15-4.11,8.15-9.17s-3.65-9.17-8.15-9.17a7.67,7.67,0,0,0-4,1.2c-.66.4-.94-.25-.29-.84A10,10,0,0,0,55,35.62C55,30.37,51.22,26.11,46.56,26.11Z"/><path d="M46.56,104c-4.66,0-8.44,4.25-8.44,9.49a10.05,10.05,0,0,0,3.17,7.43c.65.59.37,1.24-.29.84a7.67,7.67,0,0,0-4-1.2c-4.49,0-8.14,4.12-8.14,9.17s3.65,9.16,8.14,9.16a8,8,0,0,0,7-4.54c.14-.26.25-.63.44-.63s.4.44.4,1.26c0,3.28-1.27,7.12-3.13,11.54a26.37,26.37,0,0,1,4.84-.68,26.37,26.37,0,0,1,4.84.68c-1.87-4.42-3.13-8.26-3.13-11.54,0-.82.13-1.26.4-1.26s.3.37.44.63a8,8,0,0,0,7,4.54c4.5,0,8.15-4.1,8.15-9.16s-3.65-9.17-8.15-9.17a7.67,7.67,0,0,0-4,1.2c-.66.4-.94-.25-.29-.84A10.05,10.05,0,0,0,55,113.51C55,108.26,51.22,104,46.56,104Z"/><path d="M46.56,224.43c4.66,0,8.44-4.26,8.44-9.51a10,10,0,0,0-3.17-7.41c-.65-.59-.37-1.24.29-.84a7.67,7.67,0,0,0,4,1.2c4.5,0,8.15-4.11,8.15-9.17s-3.65-9.17-8.15-9.17a8,8,0,0,0-7,4.54c-.14.27-.25.63-.44.63s-.4-.43-.4-1.25c0-3.29,1.27-7.13,3.13-11.54a26.37,26.37,0,0,1-4.84.68,26.37,26.37,0,0,1-4.84-.68c1.86,4.41,3.13,8.25,3.13,11.54,0,.82-.13,1.25-.4,1.25s-.3-.36-.44-.63a8,8,0,0,0-7-4.54c-4.5,0-8.15,4.11-8.15,9.17s3.65,9.17,8.15,9.17a7.67,7.67,0,0,0,4-1.2c.66-.4.94.25.29.84a10,10,0,0,0-3.17,7.41C38.12,220.17,41.9,224.43,46.56,224.43Z"/><path d="M133,26c-4.66,0-8.44,4.25-8.44,9.5a10.06,10.06,0,0,0,3.16,7.42c.65.59.38,1.23-.28.83a7.66,7.66,0,0,0-4-1.19c-4.49,0-8.14,4.11-8.14,9.17s3.65,9.16,8.14,9.16a8,8,0,0,0,7-4.54c.13-.26.24-.63.44-.63s.39.44.39,1.26c0,3.28-1.26,7.12-3.13,11.53a26.46,26.46,0,0,1,4.85-.67,26.35,26.35,0,0,1,4.84.67c-1.87-4.41-3.13-8.25-3.13-11.53,0-.82.12-1.26.39-1.26s.31.37.44.63a8,8,0,0,0,7,4.54c4.49,0,8.14-4.1,8.14-9.16s-3.65-9.17-8.14-9.17a7.66,7.66,0,0,0-4,1.19c-.66.4-.94-.24-.29-.83a10,10,0,0,0,3.17-7.42C141.48,30.26,137.67,26,133,26Z"/><path d="M133,104c-4.66,0-8.44,4.25-8.44,9.49a10.08,10.08,0,0,0,3.16,7.43c.65.59.38,1.23-.28.83a7.66,7.66,0,0,0-4-1.19c-4.49,0-8.14,4.11-8.14,9.17s3.65,9.16,8.14,9.16a8,8,0,0,0,7-4.54c.13-.26.24-.63.44-.63s.39.44.39,1.26c0,3.28-1.26,7.12-3.13,11.54a25.64,25.64,0,0,1,4.85-.68,25.54,25.54,0,0,1,4.84.68c-1.87-4.42-3.13-8.26-3.13-11.54,0-.82.12-1.26.39-1.26s.31.37.44.63a8,8,0,0,0,7,4.54c4.49,0,8.14-4.11,8.14-9.16s-3.65-9.17-8.14-9.17a7.66,7.66,0,0,0-4,1.19c-.66.4-.94-.24-.29-.83a10.05,10.05,0,0,0,3.17-7.43C141.48,108.21,137.67,104,133,104Z"/><path d="M133,224.43c4.66,0,8.45-4.26,8.45-9.51a10,10,0,0,0-3.17-7.41c-.65-.59-.37-1.24.29-.84a7.67,7.67,0,0,0,4,1.2c4.49,0,8.14-4.11,8.14-9.17s-3.65-9.17-8.14-9.17a8,8,0,0,0-7,4.54c-.13.27-.24.63-.44.63s-.39-.43-.39-1.25c0-3.29,1.26-7.13,3.13-11.54a26.47,26.47,0,0,1-4.85.68,27.25,27.25,0,0,1-4.84-.68c1.87,4.41,3.13,8.25,3.13,11.54,0,.82-.12,1.25-.39,1.25s-.31-.36-.44-.63a8,8,0,0,0-7-4.54c-4.49,0-8.14,4.11-8.14,9.17s3.65,9.17,8.14,9.17a7.77,7.77,0,0,0,4-1.2c.66-.4.93.25.28.84a10.08,10.08,0,0,0-3.16,7.41C124.58,220.17,128.36,224.43,133,224.43Z"/><path class="cls-2" d="M15.36,24.27a4.23,4.23,0,0,0-2-.47h-.08a4.11,4.11,0,0,0-2,.52,4.42,4.42,0,0,0-1.5,1.35,8,8,0,0,0-1.3,4.64v.62h0a6.75,6.75,0,0,0,1.35,3.76,4.32,4.32,0,0,0,3.44,1.67,4.22,4.22,0,0,0,2-.48,4.79,4.79,0,0,0,1.51-1.32A7.59,7.59,0,0,0,18.15,30a7.89,7.89,0,0,0-.76-3.57A4.66,4.66,0,0,0,15.36,24.27Z"/><path d="M18.48,24a6.7,6.7,0,0,0-2.24-1.89,6.39,6.39,0,0,0-2.94-.69h-.08a6.4,6.4,0,0,0-3,.77,6.84,6.84,0,0,0-1.56,1.22,3.89,3.89,0,0,1,.13-.71c.13-.67.26-1.21.36-1.57,0-.18.09-.32.11-.41v-.1h0v-.05h0a6,6,0,0,1,.91-1.73,4.61,4.61,0,0,1,1.24-1.13,4.06,4.06,0,0,1,1.92-.58h.33a4.59,4.59,0,0,1,3,1,5.14,5.14,0,0,1,.66.66,1.33,1.33,0,0,1,.14.19h0l.54-.38,1.31-.9a6,6,0,0,0-1.39-1.55,6.7,6.7,0,0,0-4.24-1.44h-.3a6.18,6.18,0,0,0-3,.91A7.39,7.39,0,0,0,8,18.29a7.3,7.3,0,0,0-.66,1.55,29.34,29.34,0,0,0-1.16,8.38,20.41,20.41,0,0,0,.12,2.67,9.39,9.39,0,0,0,1.9,5.44,6.43,6.43,0,0,0,5.06,2.48h0a6.27,6.27,0,0,0,3-.72,7.26,7.26,0,0,0,3-3.27A10.78,10.78,0,0,0,20.34,30,10,10,0,0,0,18.48,24ZM16.75,34.6a4.79,4.79,0,0,1-1.51,1.32,4.22,4.22,0,0,1-2,.48A4.32,4.32,0,0,1,9.8,34.73a6.84,6.84,0,0,1-1.32-3.8h0v-.62a8,8,0,0,1,1.34-4.64,4.42,4.42,0,0,1,1.5-1.35,4.11,4.11,0,0,1,2-.52h.06a4.23,4.23,0,0,1,2,.47,4.68,4.68,0,0,1,2,2.15A7.89,7.89,0,0,1,18.14,30a7.6,7.6,0,0,1-1.35,4.57Z"/><path class="cls-2" d="M164.22,226.17a4.35,4.35,0,0,0,2,.46h.05a4.1,4.1,0,0,0,2-.51,4.62,4.62,0,0,0,1.49-1.36,7.94,7.94,0,0,0,1.35-4.63v-.62h0a6.61,6.61,0,0,0-1.35-3.77,4.32,4.32,0,0,0-3.44-1.67,4.11,4.11,0,0,0-2,.49,4.46,4.46,0,0,0-1.51,1.32,7.68,7.68,0,0,0-1.37,4.57,8.09,8.09,0,0,0,.76,3.56A4.65,4.65,0,0,0,164.22,226.17Z"/><path d="M161.06,226.45a6.66,6.66,0,0,0,2.23,1.89,6.43,6.43,0,0,0,3,.69h.07a6.09,6.09,0,0,0,2.95-.77,6.84,6.84,0,0,0,1.56-1.22,3.9,3.9,0,0,1-.12.71c-.14.68-.27,1.22-.36,1.58-.05.18-.09.32-.12.41v.09h0a5.67,5.67,0,0,1-.91,1.74,4.42,4.42,0,0,1-1.24,1.12,4.06,4.06,0,0,1-1.92.58h-.32a4.58,4.58,0,0,1-3-1,3.69,3.69,0,0,1-.66-.65l-.15-.2h0l-.55.39-1.3.89a5.88,5.88,0,0,0,1.39,1.55,6.67,6.67,0,0,0,4.24,1.45h.43a6.31,6.31,0,0,0,2.95-.92,7.12,7.12,0,0,0,2.43-2.65,7.89,7.89,0,0,0,.67-1.55,30.06,30.06,0,0,0,1.16-8.38,18.92,18.92,0,0,0-.13-2.67,9.26,9.26,0,0,0-1.9-5.43,6.39,6.39,0,0,0-5.06-2.49h0a6.31,6.31,0,0,0-3,.72,7.44,7.44,0,0,0-3.06,3.27,10.87,10.87,0,0,0-1,4.79A9.91,9.91,0,0,0,161.06,226.45Zm1.73-10.57a4.46,4.46,0,0,1,1.51-1.32,4.11,4.11,0,0,1,2-.49,4.32,4.32,0,0,1,3.44,1.67,6.61,6.61,0,0,1,1.35,3.77h0v.62a7.94,7.94,0,0,1-1.35,4.63,4.62,4.62,0,0,1-1.49,1.36,4.1,4.1,0,0,1-2,.51h-.05a4.35,4.35,0,0,1-2-.46,4.71,4.71,0,0,1-2-2.16,8.09,8.09,0,0,1-.76-3.56A7.6,7.6,0,0,1,162.79,215.88Z"/></g></g></g></svg>