<svg xmlns="http://www.w3.org/2000/svg" viewBox="0 0 179.58 250.45"><defs><style>.cls-1{fill:#f4f4f2;stroke:#231f20;}</style></defs><title>clubsAsset 5</title><g id="Layer_2" data-name="Layer 2"><g id="Layer_1-2" data-name="Layer 1"><g id="five"><rect class="cls-1" x="0.5" y="0.5" width="178.58" height="249.45" rx="14.17" ry="14.17"/><path d="M13.26,43a3.61,3.61,0,0,0-3.38,3.8,4,4,0,0,0,1.27,3c.26.24.15.5-.12.34a3.12,3.12,0,0,0-1.6-.48,3.69,3.69,0,0,0,0,7.33,3.21,3.21,0,0,0,2.81-1.81c0-.11.1-.25.17-.25s.16.17.16.5a12.55,12.55,0,0,1-1.25,4.61,7.07,7.07,0,0,1,3.87,0,12.76,12.76,0,0,1-1.25-4.65c0-.33,0-.5.16-.5s.12.14.17.25A3.21,3.21,0,0,0,17.09,57a3.69,3.69,0,0,0,0-7.33,3.06,3.06,0,0,0-1.61.48c-.26.16-.37-.1-.12-.34a4,4,0,0,0,1.27-3A3.6,3.6,0,0,0,13.26,43Z"/><path d="M166.33,207.48a3.61,3.61,0,0,0,3.37-3.81,4,4,0,0,0-1.26-3c-.26-.24-.15-.5.11-.34a3.06,3.06,0,0,0,1.61.48,3.69,3.69,0,0,0,0-7.33,3.19,3.19,0,0,0-2.81,1.81c-.06.11-.1.25-.18.25s-.16-.17-.16-.5a12.75,12.75,0,0,1,1.25-4.61,7.07,7.07,0,0,1-3.87,0,12.55,12.55,0,0,1,1.25,4.61c0,.33,0,.5-.16.5s-.12-.14-.17-.25a3.21,3.21,0,0,0-2.81-1.81,3.69,3.69,0,0,0,0,7.33,3.12,3.12,0,0,0,1.6-.48c.27-.16.38.1.12.34a4,4,0,0,0-1.27,3A3.62,3.62,0,0,0,166.33,207.48Z"/><path d="M46.56,26c-4.66,0-8.44,4.26-8.44,9.5a10,10,0,0,0,3.17,7.42c.65.59.37,1.24-.29.83a7.66,7.66,0,0,0-4-1.19c-4.5,0-8.14,4.11-8.14,9.17S32.5,60.91,37,60.91a8,8,0,0,0,7-4.55c.14-.26.25-.63.45-.63s.39.44.39,1.26c0,3.29-1.26,7.12-3.13,11.54a26.37,26.37,0,0,1,4.84-.68,26.37,26.37,0,0,1,4.84.68c-1.86-4.42-3.12-8.25-3.12-11.54,0-.82.12-1.26.39-1.26s.3.37.44.63a8,8,0,0,0,7,4.55c4.49,0,8.14-4.11,8.14-9.17s-3.65-9.17-8.14-9.17a7.66,7.66,0,0,0-4,1.19c-.66.41-.93-.24-.29-.83A10,10,0,0,0,55,35.48C55,30.27,51.22,26,46.56,26Z"/><path d="M46.56,224.48c4.66,0,8.44-4.26,8.44-9.5a10,10,0,0,0-3.17-7.42c-.64-.59-.37-1.24.29-.83a7.66,7.66,0,0,0,4,1.19c4.49,0,8.14-4.11,8.14-9.17s-3.65-9.17-8.14-9.17a8,8,0,0,0-7,4.55c-.13.26-.25.63-.44.63s-.39-.44-.39-1.26c0-3.29,1.26-7.13,3.12-11.54a26.37,26.37,0,0,1-4.84.68,26.37,26.37,0,0,1-4.84-.68c1.87,4.41,3.13,8.25,3.13,11.54,0,.82-.12,1.26-.39,1.26s-.31-.37-.45-.63a8,8,0,0,0-7-4.55c-4.5,0-8.14,4.11-8.14,9.17s3.64,9.17,8.14,9.17a7.66,7.66,0,0,0,4-1.19c.66-.41.94.24.29.83A10,10,0,0,0,38.14,215C38.12,220.17,41.94,224.48,46.56,224.48Z"/><path d="M133,26c-4.66,0-8.44,4.26-8.44,9.5a10,10,0,0,0,3.17,7.42c.65.59.37,1.24-.29.83a7.66,7.66,0,0,0-4-1.19c-4.49,0-8.14,4.11-8.14,9.17s3.65,9.17,8.14,9.17a8,8,0,0,0,7-4.55c.14-.26.25-.63.44-.63s.4.44.4,1.26c0,3.29-1.27,7.12-3.13,11.54a17.5,17.5,0,0,1,9.68,0c-1.87-4.42-3.13-8.25-3.13-11.54,0-.82.13-1.26.39-1.26s.31.37.45.63a8,8,0,0,0,7,4.55c4.5,0,8.15-4.11,8.15-9.17s-3.65-9.17-8.15-9.17a7.66,7.66,0,0,0-4,1.19c-.66.41-.94-.24-.29-.83a10,10,0,0,0,3.19-7.45C141.46,30.27,137.68,26,133,26Z"/><path d="M133,224.48c4.66,0,8.44-4.25,8.44-9.5a10,10,0,0,0-3.17-7.42c-.65-.59-.37-1.23.29-.83a7.66,7.66,0,0,0,4,1.19c4.5,0,8.15-4.11,8.15-9.17s-3.65-9.17-8.15-9.17a8,8,0,0,0-7,4.55c-.14.26-.25.63-.45.63s-.39-.44-.39-1.26c0-3.29,1.27-7.12,3.13-11.54a17.5,17.5,0,0,1-9.68,0c1.86,4.42,3.13,8.25,3.13,11.54,0,.82-.13,1.26-.4,1.26s-.3-.37-.44-.63a8,8,0,0,0-7-4.55c-4.5,0-8.15,4.11-8.15,9.17s3.65,9.17,8.15,9.17a7.66,7.66,0,0,0,4-1.19c.66-.4.94.24.29.83A10,10,0,0,0,124.6,215C124.58,220.18,128.36,224.48,133,224.48Z"/><path d="M89.79,104c-4.66,0-8.44,4.26-8.44,9.51a10,10,0,0,0,3.17,7.42c.65.59.37,1.24-.29.83a7.66,7.66,0,0,0-4-1.19c-4.5,0-8.15,4.11-8.15,9.18s3.65,9.16,8.15,9.16a8,8,0,0,0,7-4.54c.14-.26.25-.63.45-.63s.39.44.39,1.26c0,3.28-1.26,7.11-3.13,11.52a17.5,17.5,0,0,1,9.68,0c-1.87-4.41-3.13-8.24-3.13-11.52,0-.82.13-1.26.4-1.26s.3.37.44.63a8,8,0,0,0,7,4.54c4.5,0,8.15-4.1,8.15-9.16s-3.65-9.18-8.15-9.18a7.66,7.66,0,0,0-4,1.19c-.66.41-.94-.24-.29-.83a10,10,0,0,0,3.17-7.42C98.23,108.22,94.45,104,89.79,104Z"/><path d="M18.23,23.63A6.83,6.83,0,0,0,12.94,21a6.41,6.41,0,0,0-3.59,1.13v-5h9.37V14.67H7.11v.81h0v9.73H9.36A5,5,0,0,1,13,23.31a4.58,4.58,0,0,1,3.57,1.85,7.77,7.77,0,0,1,0,9.36,4.61,4.61,0,0,1-3.58,1.87,4.38,4.38,0,0,1-2.77-1,6.47,6.47,0,0,1-1.91-2.78l-2.1.85A8.68,8.68,0,0,0,8.8,37.27a6.53,6.53,0,0,0,4.14,1.49h0a6.81,6.81,0,0,0,5.28-2.67,10.26,10.26,0,0,0,0-12.46Z"/><path d="M161.35,226.81a6.84,6.84,0,0,0,5.28,2.68,6.42,6.42,0,0,0,3.6-1.13v5h-9.37v2.38h11.61v-.83h0v-9.73h-2.26a5,5,0,0,1-3.59,1.9,4.58,4.58,0,0,1-3.57-1.85,7.77,7.77,0,0,1,0-9.36,4.63,4.63,0,0,1,3.57-1.85,4.32,4.32,0,0,1,2.77,1,6.47,6.47,0,0,1,1.91,2.78l2.1-.85a8.8,8.8,0,0,0-2.63-3.81,6.56,6.56,0,0,0-4.15-1.52h0a6.81,6.81,0,0,0-5.28,2.67,10.26,10.26,0,0,0,0,12.46Z"/></g></g></g></svg>