<svg xmlns="http://www.w3.org/2000/svg" viewBox="0 0 179.58 250.45"><defs><style>.cls-1{fill:#f4f4f2;stroke:#231f20;}</style></defs><title>clubsAsset 2</title><g id="Layer_2" data-name="Layer 2"><g id="Layer_1-2" data-name="Layer 1"><g id="two"><rect class="cls-1" x="0.5" y="0.5" width="178.58" height="249.45" rx="14.17" ry="14.17"/><path d="M13.25,43a3.61,3.61,0,0,0-3.38,3.8,4,4,0,0,0,1.27,3c.26.24.15.5-.11.34a3.16,3.16,0,0,0-1.61-.48,3.69,3.69,0,0,0,0,7.33,3.19,3.19,0,0,0,2.81-1.81c0-.11.1-.26.18-.26s.15.18.15.51a12.55,12.55,0,0,1-1.25,4.61,10.66,10.66,0,0,1,1.94-.27,10.43,10.43,0,0,1,1.93.27,12.75,12.75,0,0,1-1.25-4.61c0-.33,0-.51.16-.51s.12.15.18.26A3.18,3.18,0,0,0,17.09,57a3.69,3.69,0,0,0,0-7.33,3.06,3.06,0,0,0-1.61.48c-.26.16-.37-.1-.11-.34a4,4,0,0,0,1.27-3A3.6,3.6,0,0,0,13.25,43Z"/><path d="M166.32,207.48a3.61,3.61,0,0,0,3.37-3.81,4,4,0,0,0-1.26-3c-.26-.24-.15-.5.11-.34a3.06,3.06,0,0,0,1.61.48,3.69,3.69,0,0,0,0-7.33,3.19,3.19,0,0,0-2.81,1.81c-.06.11-.1.25-.18.25s-.16-.17-.16-.5a12.75,12.75,0,0,1,1.25-4.61,10.43,10.43,0,0,1-1.93.27,10.66,10.66,0,0,1-1.94-.27,12.55,12.55,0,0,1,1.25,4.61c0,.33,0,.5-.15.5s-.13-.14-.18-.25a3.21,3.21,0,0,0-2.81-1.81,3.69,3.69,0,0,0,0,7.33,3.12,3.12,0,0,0,1.6-.48c.27-.16.38.1.12.34a4,4,0,0,0-1.27,3A3.62,3.62,0,0,0,166.32,207.48Z"/><path d="M89.79,26c-4.66,0-8.45,4.26-8.45,9.5a10.06,10.06,0,0,0,3.18,7.42c.64.59.36,1.24-.29.83a7.66,7.66,0,0,0-4-1.19c-4.49,0-8.14,4.11-8.14,9.17s3.65,9.17,8.14,9.17a8,8,0,0,0,7-4.55c.14-.26.25-.63.44-.63s.39.44.39,1.26c0,3.29-1.26,7.13-3.13,11.54a17.54,17.54,0,0,1,9.69,0c-1.87-4.41-3.14-8.25-3.14-11.54,0-.82.13-1.26.4-1.26s.3.37.44.63a8,8,0,0,0,7,4.55c4.49,0,8.14-4.11,8.14-9.17s-3.65-9.17-8.14-9.17a7.66,7.66,0,0,0-4,1.19c-.67.41-.95-.24-.3-.83a10,10,0,0,0,3.2-7.45C98.22,30.27,94.44,26,89.79,26Z"/><path d="M89.79,224.48c4.65,0,8.43-4.25,8.43-9.5a10,10,0,0,0-3.13-7.5c-.65-.59-.37-1.24.3-.83a7.66,7.66,0,0,0,4,1.19c4.49,0,8.14-4.11,8.14-9.17s-3.65-9.17-8.14-9.17a8,8,0,0,0-7,4.55c-.14.26-.25.63-.44.63s-.4-.44-.4-1.26c0-3.29,1.27-7.12,3.14-11.54a17.54,17.54,0,0,1-9.69,0c1.87,4.42,3.13,8.25,3.13,11.54,0,.82-.12,1.26-.39,1.26s-.3-.37-.44-.63a8,8,0,0,0-7-4.55c-4.49,0-8.14,4.11-8.14,9.17s3.65,9.17,8.14,9.17a7.66,7.66,0,0,0,4-1.19c.65-.41.93.24.29.83a10.06,10.06,0,0,0-3.18,7.42C81.34,220.18,85.09,224.48,89.79,224.48Z"/><path d="M20.31,35H18.09v1.49H8.53A3.86,3.86,0,0,1,9,35.24a14.4,14.4,0,0,1,2.39-3,42.28,42.28,0,0,1,3.41-3h0a44.49,44.49,0,0,0,3.62-3.1,7.18,7.18,0,0,0,1.24-1.76,6.21,6.21,0,0,0,.6-2.24,5.23,5.23,0,0,0,0-.56,7.89,7.89,0,0,0-.26-2,6.52,6.52,0,0,0-1.9-3.31,6.81,6.81,0,0,0-4.68-1.6,7,7,0,0,0-4,1.11,6.3,6.3,0,0,0-1.77,1.83,8.26,8.26,0,0,0-1.12,2.87,9.6,9.6,0,0,0-.18,1.69v.08l2-.06h.3a7,7,0,0,1,.67-2.85,4,4,0,0,1,1.36-1.61A4.8,4.8,0,0,1,13.4,17a5.17,5.17,0,0,1,2.42.51,3.67,3.67,0,0,1,1.72,1.88A5.81,5.81,0,0,1,18,21.53v.34a4.16,4.16,0,0,1-.38,1.42,6.16,6.16,0,0,1-1.49,1.8c-.71.64-1.65,1.36-2.76,2.28a38.19,38.19,0,0,0-4.67,4.32A13.52,13.52,0,0,0,7,34a5.8,5.8,0,0,0-.77,2.39h0v.14h0v2.18H20.37V35Z"/><path d="M159.23,215.48h2.28V214h9.58a3.86,3.86,0,0,1-.46,1.24,14.4,14.4,0,0,1-2.39,3,39,39,0,0,1-3.42,3h0a44.49,44.49,0,0,0-3.62,3.1,7,7,0,0,0-1.24,1.76,6.66,6.66,0,0,0-.61,2.24v.56a8.43,8.43,0,0,0,.25,2,6.58,6.58,0,0,0,1.93,3.29,6.81,6.81,0,0,0,4.68,1.6,7,7,0,0,0,4-1.11,6,6,0,0,0,1.76-1.83,8.29,8.29,0,0,0,1.12-2.89,9.6,9.6,0,0,0,.18-1.69v-.08l-2,.06H171a7,7,0,0,1-.67,2.85,4,4,0,0,1-1.36,1.61,4.7,4.7,0,0,1-2.73.73,5.17,5.17,0,0,1-2.42-.51,3.67,3.67,0,0,1-1.72-1.88,5.43,5.43,0,0,1-.44-2.14v-.34a4.16,4.16,0,0,1,.38-1.42,6.16,6.16,0,0,1,1.49-1.8c.71-.64,1.65-1.36,2.76-2.28a38.1,38.1,0,0,0,4.66-4.32,13.57,13.57,0,0,0,1.71-2.35,5.8,5.8,0,0,0,.77-2.39h0v-.14h0v-2.22H159.23Z"/></g></g></g></svg>