<svg xmlns="http://www.w3.org/2000/svg" viewBox="0 0 179.58 250.45"><defs><style>.cls-1{fill:#f4f4f2;stroke:#231f20;}</style></defs><title>clubsAsset 10</title><g id="Layer_2" data-name="Layer 2"><g id="Layer_1-2" data-name="Layer 1"><g id="ten"><rect class="cls-1" x="0.5" y="0.5" width="178.58" height="249.45" rx="14.17" ry="14.17"/><path d="M13.26,43a3.61,3.61,0,0,0-3.38,3.8,4,4,0,0,0,1.27,3c.26.24.15.5-.12.34a3,3,0,0,0-1.6-.48,3.69,3.69,0,0,0,0,7.33,3.22,3.22,0,0,0,2.81-1.82c0-.1.1-.25.17-.25s.16.18.16.51a12.55,12.55,0,0,1-1.25,4.61,7.07,7.07,0,0,1,3.87,0,12.75,12.75,0,0,1-1.25-4.61c0-.33,0-.51.16-.51s.12.15.18.25A3.2,3.2,0,0,0,17.09,57a3.69,3.69,0,0,0,0-7.33,3,3,0,0,0-1.61.48c-.26.16-.37-.1-.12-.34a4,4,0,0,0,1.27-3A3.6,3.6,0,0,0,13.26,43Z"/><path d="M166.33,207.42a3.6,3.6,0,0,0,3.37-3.8,4,4,0,0,0-1.26-3c-.26-.23-.15-.49.11-.33a3.06,3.06,0,0,0,1.61.48,3.7,3.7,0,0,0,0-7.34,3.2,3.2,0,0,0-2.81,1.82c-.06.11-.1.25-.18.25s-.16-.17-.16-.5a12.86,12.86,0,0,1,1.25-4.62,7.07,7.07,0,0,1-3.87,0,12.61,12.61,0,0,1,1.25,4.62c0,.33,0,.5-.16.5s-.12-.14-.17-.25a3.22,3.22,0,0,0-2.81-1.82,3.7,3.7,0,0,0,0,7.34,3.12,3.12,0,0,0,1.6-.48c.27-.16.38.1.12.33a4,4,0,0,0-1.27,3A3.61,3.61,0,0,0,166.33,207.42Z"/><path d="M45.85,26c-4.66,0-8.44,4.26-8.44,9.51a10,10,0,0,0,3.17,7.41c.65.6.37,1.24-.29.84a7.66,7.66,0,0,0-4-1.19c-4.5,0-8.14,4.1-8.14,9.16s3.64,9.17,8.14,9.17a8,8,0,0,0,7-4.54c.14-.27.25-.63.45-.63s.39.44.39,1.26c0,3.28-1.26,7.12-3.13,11.53a17.88,17.88,0,0,1,9.68,0c-1.86-4.41-3.12-8.25-3.12-11.53,0-.82.12-1.26.39-1.26s.3.36.44.63a8,8,0,0,0,7,4.54c4.49,0,8.14-4.11,8.14-9.17s-3.65-9.16-8.14-9.16a7.66,7.66,0,0,0-4,1.19c-.66.4-.93-.24-.29-.84a10,10,0,0,0,3.17-7.41C54.29,30.26,50.51,26,45.85,26Z"/><path d="M46.56,78c-4.66,0-8.44,4.26-8.44,9.51a10,10,0,0,0,3.17,7.41c.65.6.37,1.24-.29.84a7.66,7.66,0,0,0-4-1.19c-4.5,0-8.14,4.1-8.14,9.16s3.64,9.17,8.14,9.17a8,8,0,0,0,7-4.54c.14-.27.25-.63.45-.63s.39.43.39,1.25c0,3.29-1.26,7.13-3.13,11.54a27.25,27.25,0,0,1,4.84-.68,26.37,26.37,0,0,1,4.84.68c-1.86-4.41-3.12-8.25-3.12-11.54,0-.82.12-1.25.39-1.25s.3.36.44.63a8,8,0,0,0,7,4.54c4.49,0,8.14-4.11,8.14-9.17s-3.65-9.16-8.14-9.16a7.66,7.66,0,0,0-4,1.19c-.66.4-.93-.24-.29-.84A10,10,0,0,0,55,87.53C55,82.23,51.22,78,46.56,78Z"/><path d="M46.56,224.43c4.66,0,8.44-4.26,8.44-9.5a10,10,0,0,0-3.17-7.42c-.64-.59-.37-1.24.29-.84a7.77,7.77,0,0,0,4,1.2c4.49,0,8.14-4.11,8.14-9.17s-3.65-9.17-8.14-9.17a8,8,0,0,0-7,4.54c-.14.27-.25.63-.44.63s-.39-.43-.39-1.25c0-3.29,1.26-7.13,3.12-11.54a26.37,26.37,0,0,1-4.84.68,27.25,27.25,0,0,1-4.84-.68c1.87,4.41,3.13,8.25,3.13,11.54,0,.82-.13,1.25-.39,1.25s-.31-.36-.45-.63a8,8,0,0,0-7-4.54c-4.5,0-8.14,4.11-8.14,9.17s3.64,9.17,8.14,9.17a7.67,7.67,0,0,0,4-1.2c.66-.4.94.25.29.84a10,10,0,0,0-3.17,7.42C38.12,220.17,41.94,224.43,46.56,224.43Z"/><path d="M46.56,172.46c4.66,0,8.44-4.26,8.44-9.5a10,10,0,0,0-3.17-7.42c-.64-.59-.37-1.24.29-.84a7.77,7.77,0,0,0,4,1.2c4.49,0,8.14-4.11,8.14-9.17s-3.65-9.17-8.14-9.17a8,8,0,0,0-7,4.54c-.14.27-.25.63-.44.63s-.39-.43-.39-1.25c0-3.29,1.26-7.13,3.12-11.54a26.37,26.37,0,0,1-4.84.68,27.25,27.25,0,0,1-4.84-.68c1.87,4.41,3.13,8.25,3.13,11.54,0,.82-.13,1.25-.39,1.25s-.31-.36-.45-.63a8,8,0,0,0-7-4.54c-4.5,0-8.14,4.11-8.14,9.17s3.64,9.17,8.14,9.17a7.67,7.67,0,0,0,4-1.2c.66-.4.94.25.29.84A10,10,0,0,0,38.14,163C38.12,168.2,41.94,172.46,46.56,172.46Z"/><path d="M133,26c-4.66,0-8.44,4.26-8.44,9.51a10,10,0,0,0,3.17,7.41c.65.6.37,1.24-.29.84a7.66,7.66,0,0,0-4-1.19c-4.49,0-8.14,4.1-8.14,9.16s3.65,9.17,8.14,9.17a8,8,0,0,0,7-4.54c.14-.27.25-.63.44-.63s.4.44.4,1.26c0,3.28-1.27,7.12-3.13,11.53a17.88,17.88,0,0,1,9.68,0c-1.87-4.41-3.13-8.25-3.13-11.53,0-.82.13-1.26.39-1.26s.31.36.45.63a8,8,0,0,0,7,4.54c4.5,0,8.15-4.11,8.15-9.17s-3.65-9.16-8.15-9.16a7.66,7.66,0,0,0-4,1.19c-.66.4-.94-.24-.29-.84a10,10,0,0,0,3.17-7.41C141.46,30.26,137.68,26,133,26Z"/><path d="M133,78c-4.66,0-8.44,4.26-8.44,9.51a10,10,0,0,0,3.17,7.41c.65.6.37,1.24-.29.84a7.66,7.66,0,0,0-4-1.19c-4.49,0-8.14,4.1-8.14,9.16s3.65,9.17,8.14,9.17a8,8,0,0,0,7-4.54c.14-.27.25-.63.44-.63s.4.43.4,1.25c0,3.29-1.27,7.13-3.13,11.54a26.37,26.37,0,0,1,4.84-.68,27.25,27.25,0,0,1,4.84.68c-1.87-4.41-3.13-8.25-3.13-11.54,0-.82.13-1.25.39-1.25s.31.36.45.63a8,8,0,0,0,7,4.54c4.5,0,8.15-4.11,8.15-9.17s-3.65-9.16-8.15-9.16a7.66,7.66,0,0,0-4,1.19c-.66.4-.94-.24-.29-.84a10,10,0,0,0,3.17-7.41C141.46,82.23,137.68,78,133,78Z"/><path d="M133,224.43c4.66,0,8.44-4.26,8.44-9.5a10,10,0,0,0-3.17-7.42c-.65-.59-.37-1.24.29-.84a7.67,7.67,0,0,0,4,1.2c4.5,0,8.15-4.11,8.15-9.17s-3.65-9.17-8.15-9.17a8,8,0,0,0-7,4.54c-.14.27-.25.63-.45.63s-.39-.43-.39-1.25c0-3.29,1.26-7.13,3.13-11.54a27.25,27.25,0,0,1-4.84.68,26.37,26.37,0,0,1-4.84-.68c1.86,4.41,3.13,8.25,3.13,11.54,0,.82-.13,1.25-.4,1.25s-.3-.36-.44-.63a8,8,0,0,0-7-4.54c-4.49,0-8.14,4.11-8.14,9.17s3.65,9.17,8.14,9.17a7.67,7.67,0,0,0,4-1.2c.66-.4.94.25.29.84a10,10,0,0,0-3.17,7.42C124.58,220.17,128.36,224.43,133,224.43Z"/><path d="M133,172.46c4.66,0,8.44-4.26,8.44-9.5a10,10,0,0,0-3.17-7.42c-.65-.59-.37-1.24.29-.84a7.67,7.67,0,0,0,4,1.2c4.5,0,8.15-4.11,8.15-9.17s-3.65-9.17-8.15-9.17a8,8,0,0,0-7,4.54c-.14.27-.25.63-.45.63s-.39-.43-.39-1.25c0-3.29,1.26-7.13,3.13-11.54a27.25,27.25,0,0,1-4.84.68,26.37,26.37,0,0,1-4.84-.68c1.86,4.41,3.13,8.25,3.13,11.54,0,.82-.13,1.25-.4,1.25s-.3-.36-.44-.63a8,8,0,0,0-7-4.54c-4.49,0-8.14,4.11-8.14,9.17s3.65,9.17,8.14,9.17a7.67,7.67,0,0,0,4-1.2c.66-.4.94.25.29.84A10,10,0,0,0,124.6,163C124.58,168.2,128.36,172.46,133,172.46Z"/><path d="M89.79,54.35c-4.66,0-8.44,4.26-8.44,9.5a10,10,0,0,0,3.17,7.42c.65.59.37,1.24-.29.84a7.67,7.67,0,0,0-4-1.2c-4.5,0-8.15,4.11-8.15,9.17s3.65,9.17,8.15,9.17a8,8,0,0,0,7-4.54c.14-.27.25-.64.45-.64s.39.44.39,1.26c0,3.29-1.26,7.13-3.13,11.54a27.25,27.25,0,0,1,4.84-.68,26.37,26.37,0,0,1,4.84.68c-1.86-4.41-3.13-8.25-3.13-11.54,0-.82.13-1.26.4-1.26s.3.37.44.64a8,8,0,0,0,7,4.54c4.5,0,8.15-4.11,8.15-9.17s-3.65-9.17-8.15-9.17a7.67,7.67,0,0,0-4,1.2c-.66.4-.94-.25-.29-.84a10,10,0,0,0,3.17-7.42C98.23,58.61,94.45,54.35,89.79,54.35Z"/><path d="M89.79,196.08c4.66,0,8.44-4.26,8.44-9.5a10,10,0,0,0-3.17-7.42c-.65-.59-.37-1.24.29-.83a7.66,7.66,0,0,0,4,1.19c4.49,0,8.14-4.11,8.14-9.17s-3.65-9.16-8.14-9.16a8,8,0,0,0-7,4.54c-.14.26-.25.63-.44.63s-.4-.44-.4-1.26c0-3.29,1.27-7.12,3.13-11.54a26.37,26.37,0,0,1-4.84.68,27.25,27.25,0,0,1-4.84-.68c1.87,4.42,3.13,8.25,3.13,11.54,0,.82-.13,1.26-.39,1.26s-.31-.37-.45-.63a8,8,0,0,0-7-4.54c-4.5,0-8.15,4.1-8.15,9.16s3.65,9.17,8.15,9.17a7.66,7.66,0,0,0,4-1.19c.66-.41.94.24.29.83a10,10,0,0,0-3.17,7.42C81.35,191.82,85.13,196.08,89.79,196.08Z"/><polygon points="6.17 38.73 6.17 14.67 8.35 14.67 8.35 38.73 6.17 38.73 6.17 38.73"/><path d="M12.94,37.44a4.66,4.66,0,0,1-1.3-3.26h0V19.24A4.67,4.67,0,0,1,12.94,16h0A4.23,4.23,0,0,1,16,14.71h0A4.22,4.22,0,0,1,19,16h0a4.72,4.72,0,0,1,1.3,3.26h0V34.22A4.72,4.72,0,0,1,19,37.48h0A4.26,4.26,0,0,1,16,38.8h0a4.24,4.24,0,0,1-3.07-1.32Zm1.5-19.72a2.15,2.15,0,0,0-.62,1.52h0V34.18a2.15,2.15,0,0,0,.62,1.53h0a2.2,2.2,0,0,0,1.57.66h0a2.18,2.18,0,0,0,1.56-.66h0a2.15,2.15,0,0,0,.62-1.53h0V19.24a2.15,2.15,0,0,0-.62-1.52h0a2.15,2.15,0,0,0-1.63-.7h0a2.17,2.17,0,0,0-1.57.67Z"/><polygon points="173.42 211.71 173.42 235.77 171.24 235.77 171.24 211.71 173.42 211.71 173.42 211.71"/><path d="M166.67,213a4.69,4.69,0,0,1,1.31,3.26h0v14.94a4.69,4.69,0,0,1-1.31,3.26h0a4.26,4.26,0,0,1-3.06,1.32h0a4.24,4.24,0,0,1-3.07-1.32h0a4.72,4.72,0,0,1-1.3-3.26h0v-15a4.72,4.72,0,0,1,1.3-3.26h0a4.24,4.24,0,0,1,3.07-1.32h0a4.26,4.26,0,0,1,3.06,1.32Zm-1.49,19.72a2.11,2.11,0,0,0,.61-1.52h0v-15a2.2,2.2,0,0,0-.61-1.52h0a2.17,2.17,0,0,0-1.57-.67h0a2.17,2.17,0,0,0-1.57.67h0a2.17,2.17,0,0,0-.62,1.52h0v14.94a2.17,2.17,0,0,0,.62,1.52h0a2.17,2.17,0,0,0,1.57.67h0a2.17,2.17,0,0,0,1.57-.67Z"/></g></g></g></svg>