<svg xmlns="http://www.w3.org/2000/svg" viewBox="0 0 179.58 250.45"><defs><style>.cls-1{fill:#f4f4f2;stroke:#231f20;}.cls-2{fill:none;}</style></defs><title>clubsAsset 4</title><g id="Layer_2" data-name="Layer 2"><g id="Layer_1-2" data-name="Layer 1"><g id="four"><rect class="cls-1" x="0.5" y="0.5" width="178.58" height="249.45" rx="14.17" ry="14.17"/><path d="M13.25,43a3.61,3.61,0,0,0-3.38,3.8,4,4,0,0,0,1.27,3c.26.24.15.5-.11.34a3.16,3.16,0,0,0-1.61-.48,3.69,3.69,0,0,0,0,7.33,3.19,3.19,0,0,0,2.81-1.81c.06-.11.1-.25.18-.25s.15.17.15.5A12.54,12.54,0,0,1,11.32,60a7.1,7.1,0,0,1,3.88,0A12.55,12.55,0,0,1,14,55.41c0-.33,0-.5.15-.5s.12.14.18.25A3.19,3.19,0,0,0,17.09,57a3.69,3.69,0,0,0,0-7.33,3.16,3.16,0,0,0-1.61.48c-.26.16-.37-.1-.11-.34a4,4,0,0,0,1.27-3A3.6,3.6,0,0,0,13.25,43Z"/><path d="M166.32,207.48a3.62,3.62,0,0,0,3.38-3.81,4,4,0,0,0-1.27-3c-.26-.24-.15-.5.11-.34a3.16,3.16,0,0,0,1.61.48,3.69,3.69,0,0,0,0-7.33,3.2,3.2,0,0,0-2.83,1.8c-.06.11-.1.25-.18.25s-.15-.17-.15-.5a12.55,12.55,0,0,1,1.25-4.61,7.1,7.1,0,0,1-3.88,0,12.57,12.57,0,0,1,1.26,4.61c0,.33-.06.5-.16.5s-.12-.14-.18-.25a3.19,3.19,0,0,0-2.81-1.81,3.69,3.69,0,0,0,0,7.33,3.06,3.06,0,0,0,1.61-.48c.26-.16.37.1.11.34a4,4,0,0,0-1.27,3A3.63,3.63,0,0,0,166.32,207.48Z"/><path d="M46.56,26c-4.66,0-8.44,4.26-8.44,9.5a10,10,0,0,0,3.2,7.42c.64.59.37,1.24-.29.83a7.66,7.66,0,0,0-4-1.19c-4.49,0-8.14,4.11-8.14,9.17s3.65,9.17,8.14,9.17a8,8,0,0,0,7-4.55c.14-.26.25-.63.44-.63s.39.44.39,1.26c0,3.29-1.26,7.12-3.12,11.54a26.37,26.37,0,0,1,4.84-.68,26.37,26.37,0,0,1,4.84.68c-1.89-4.42-3.1-8.25-3.1-11.54,0-.82.13-1.26.39-1.26s.31.37.45.63a8,8,0,0,0,7,4.55c4.5,0,8.14-4.11,8.14-9.17s-3.64-9.17-8.14-9.17a7.66,7.66,0,0,0-4,1.19c-.66.41-.94-.24-.29-.83A10,10,0,0,0,55,35.48C55,30.27,51.22,26,46.56,26Z"/><path d="M46.56,224.28c4.66,0,8.44-4.25,8.44-9.5a10,10,0,0,0-3.17-7.42c-.65-.59-.37-1.23.29-.83a7.66,7.66,0,0,0,4,1.19c4.5,0,8.14-4.11,8.14-9.16s-3.64-9.17-8.14-9.17a8,8,0,0,0-7,4.54c-.14.26-.25.63-.45.63s-.39-.44-.39-1.26c0-3.28,1.26-7.12,3.13-11.53a17.88,17.88,0,0,1-9.68,0c1.86,4.41,3.12,8.25,3.12,11.53,0,.82-.12,1.26-.39,1.26s-.3-.37-.44-.63a8,8,0,0,0-7-4.54c-4.49,0-8.14,4.1-8.14,9.17s3.65,9.16,8.14,9.16a7.66,7.66,0,0,0,4-1.19c.66-.4.94.24.29.83a10,10,0,0,0-3.17,7.42C38.12,220,41.9,224.28,46.56,224.28Z"/><path d="M133,26.16c-4.66,0-8.44,4.25-8.44,9.5a10,10,0,0,0,3.17,7.42c.65.59.37,1.23-.29.83a7.66,7.66,0,0,0-4-1.19c-4.5,0-8.14,4.11-8.14,9.17s3.64,9.16,8.14,9.16a8,8,0,0,0,7-4.54c.14-.26.25-.63.45-.63s.39.44.39,1.26c0,3.28-1.26,7.12-3.13,11.54a17.54,17.54,0,0,1,9.69,0c-1.87-4.42-3.13-8.26-3.13-11.54,0-.82.12-1.26.39-1.26s.31.37.44.63a8,8,0,0,0,7,4.54c4.49,0,8.14-4.1,8.14-9.16s-3.65-9.17-8.14-9.17a7.66,7.66,0,0,0-4,1.19c-.66.4-.93-.24-.29-.83a10,10,0,0,0,3.17-7.42C141.45,30.41,137.67,26.16,133,26.16Z"/><path d="M133,224.48c4.66,0,8.44-4.25,8.44-9.5a10,10,0,0,0-3.13-7.5c-.64-.59-.37-1.23.29-.83a7.66,7.66,0,0,0,4,1.19c4.49,0,8.14-4.11,8.14-9.17s-3.65-9.16-8.14-9.16a8,8,0,0,0-7,4.54c-.13.26-.24.63-.44.63s-.39-.44-.39-1.26c0-3.29,1.26-7.12,3.13-11.54a17.54,17.54,0,0,1-9.69,0c1.87,4.42,3.13,8.25,3.13,11.54,0,.82-.12,1.26-.39,1.26s-.31-.37-.44-.63a8,8,0,0,0-7-4.54c-4.5,0-8.14,4.1-8.14,9.16s3.64,9.17,8.14,9.17a7.66,7.66,0,0,0,4-1.19c.66-.4.94.24.29.83a10,10,0,0,0-3.17,7.42C124.57,220.18,128.32,224.48,133,224.48Z"/><polygon class="cls-2" points="8.79 30.24 15.13 30.24 15.12 19.11 8.79 30.24"/><path d="M20.32,32.63V30.24h-3V14.67H15L6.13,30.24v2.39h9v3.74h-1.5v2.39h5.23V36.35H17.32V32.63ZM8.76,30.24,15.1,19.1V30.24Z"/><polygon class="cls-2" points="170.79 220.21 164.45 220.21 164.46 231.34 170.79 220.21"/><path d="M159.23,217.81v2.39h3v15.57h2.31l8.88-15.57v-2.39h-9v-3.74h1.5v-2.39h-5.23v2.4h1.51v3.73Zm11.56,2.39-6.34,11.14V220.2Z"/></g></g></g></svg>