<svg xmlns="http://www.w3.org/2000/svg" viewBox="0 0 179.58 250.45"><defs><style>.cls-1{fill:#f4f4f2;stroke:#231f20;}.cls-2{fill:none;}</style></defs><title>clubsAsset 8</title><g id="Layer_2" data-name="Layer 2"><g id="Layer_1-2" data-name="Layer 1"><g id="eight"><rect class="cls-1" x="0.5" y="0.5" width="178.58" height="249.45" rx="14.17" ry="14.17"/><path d="M13.26,43a3.61,3.61,0,0,0-3.38,3.8,4,4,0,0,0,1.27,3c.26.24.15.5-.12.34a3,3,0,0,0-1.6-.48,3.69,3.69,0,0,0,0,7.33,3.22,3.22,0,0,0,2.81-1.81c0-.11.1-.26.17-.26s.16.18.16.51a12.55,12.55,0,0,1-1.25,4.61,7.07,7.07,0,0,1,3.87,0,12.75,12.75,0,0,1-1.25-4.61c0-.33,0-.51.16-.51s.12.15.18.26A3.21,3.21,0,0,0,17.09,57a3.69,3.69,0,0,0,0-7.33,3,3,0,0,0-1.61.48c-.26.16-.37-.1-.12-.34a4,4,0,0,0,1.27-3A3.6,3.6,0,0,0,13.26,43Z"/><path d="M166.32,207.42a3.61,3.61,0,0,0,3.38-3.8,4,4,0,0,0-1.27-3c-.26-.23-.15-.49.12-.33a3.12,3.12,0,0,0,1.6.48,3.7,3.7,0,0,0,0-7.34,3.2,3.2,0,0,0-2.81,1.82c0,.11-.1.25-.18.25s-.15-.17-.15-.5a12.61,12.61,0,0,1,1.25-4.62,10.66,10.66,0,0,1-1.94.27,10.43,10.43,0,0,1-1.93-.27,12.86,12.86,0,0,1,1.25,4.62c0,.33,0,.5-.16.5s-.12-.14-.18-.25a3.2,3.2,0,0,0-2.81-1.82,3.7,3.7,0,0,0,0,7.34,3.06,3.06,0,0,0,1.61-.48c.26-.16.37.1.11.33a4,4,0,0,0-1.26,3A3.6,3.6,0,0,0,166.32,207.42Z"/><path d="M46.56,26c-4.66,0-8.44,4.26-8.44,9.51A10,10,0,0,0,41.29,43c.65.59.37,1.23-.29.83a7.66,7.66,0,0,0-4-1.19c-4.5,0-8.14,4.11-8.14,9.16S32.5,60.92,37,60.92a8,8,0,0,0,7-4.54c.14-.26.25-.63.45-.63s.39.44.39,1.26c0,3.28-1.26,7.12-3.13,11.53a17.88,17.88,0,0,1,9.68,0c-1.86-4.41-3.12-8.25-3.12-11.53,0-.82.12-1.26.39-1.26s.3.37.44.63a8,8,0,0,0,7,4.54c4.49,0,8.14-4.1,8.14-9.17s-3.65-9.16-8.14-9.16a7.66,7.66,0,0,0-4,1.19c-.66.4-.93-.24-.29-.83A10,10,0,0,0,55,35.53C55,30.26,51.22,26,46.56,26Z"/><path d="M46.56,104c-4.66,0-8.44,4.25-8.44,9.5a10,10,0,0,0,3.17,7.41c.65.59.37,1.24-.29.84a7.66,7.66,0,0,0-4-1.19c-4.5,0-8.14,4.1-8.14,9.16s3.64,9.16,8.14,9.16a8,8,0,0,0,7-4.54c.14-.26.25-.63.45-.63s.39.44.39,1.26c0,3.28-1.26,7.13-3.13,11.55a17.5,17.5,0,0,1,9.68,0c-1.86-4.42-3.12-8.27-3.12-11.55,0-.82.12-1.26.39-1.26s.3.37.44.63a8,8,0,0,0,7,4.54c4.49,0,8.14-4.11,8.14-9.16s-3.65-9.16-8.14-9.16a7.66,7.66,0,0,0-4,1.19c-.66.4-.93-.25-.29-.84A10,10,0,0,0,55,113.46C55,108.21,51.22,104,46.56,104Z"/><path d="M46.56,224.43c4.66,0,8.44-4.26,8.44-9.51a10,10,0,0,0-3.17-7.41c-.64-.59-.37-1.24.29-.84a7.77,7.77,0,0,0,4,1.2c4.49,0,8.14-4.11,8.14-9.17s-3.65-9.17-8.14-9.17a8,8,0,0,0-7,4.54c-.14.27-.25.63-.44.63s-.39-.43-.39-1.25c0-3.29,1.26-7.13,3.12-11.54a26.37,26.37,0,0,1-4.84.68,27.25,27.25,0,0,1-4.84-.68c1.87,4.41,3.13,8.25,3.13,11.54,0,.82-.12,1.25-.39,1.25s-.31-.36-.45-.63a8,8,0,0,0-7-4.54c-4.5,0-8.14,4.11-8.14,9.17s3.64,9.17,8.14,9.17a7.67,7.67,0,0,0,4-1.2c.66-.4.94.25.29.84a10,10,0,0,0-3.17,7.41C38.12,220.17,41.9,224.43,46.56,224.43Z"/><path d="M133,26c-4.66,0-8.44,4.25-8.44,9.5a10.09,10.09,0,0,0,3.17,7.42c.65.59.37,1.23-.29.83a7.66,7.66,0,0,0-4-1.19c-4.49,0-8.14,4.11-8.14,9.17s3.65,9.16,8.14,9.16a8,8,0,0,0,7-4.54c.14-.26.25-.63.45-.63s.39.44.39,1.26c0,3.28-1.26,7.12-3.13,11.53a17.92,17.92,0,0,1,9.69,0c-1.87-4.41-3.13-8.25-3.13-11.53,0-.82.12-1.26.39-1.26s.31.37.44.63a8,8,0,0,0,7,4.54c4.49,0,8.14-4.1,8.14-9.16s-3.65-9.17-8.14-9.17a7.66,7.66,0,0,0-4,1.19c-.66.4-.93-.24-.28-.83a10.06,10.06,0,0,0,3.16-7.42C141.45,30.26,137.71,26,133,26Z"/><path d="M133,104c-4.66,0-8.44,4.25-8.44,9.5a10,10,0,0,0,3.17,7.41c.65.59.37,1.24-.29.84a7.67,7.67,0,0,0-4-1.2c-4.49,0-8.14,4.11-8.14,9.17s3.65,9.16,8.14,9.16a8,8,0,0,0,7-4.54c.14-.27.25-.63.45-.63s.39.44.39,1.26c0,3.28-1.26,7.12-3.13,11.55a17.54,17.54,0,0,1,9.69,0c-1.87-4.43-3.13-8.27-3.13-11.55,0-.82.12-1.26.39-1.26s.31.36.44.63a8,8,0,0,0,7,4.54c4.49,0,8.14-4.11,8.14-9.16s-3.65-9.17-8.14-9.17a7.77,7.77,0,0,0-4,1.2c-.66.4-.93-.25-.28-.84a10,10,0,0,0,3.16-7.41C141.45,108.21,137.71,104,133,104Z"/><path d="M133,224.43c4.66,0,8.45-4.26,8.45-9.51a10.09,10.09,0,0,0-3.17-7.41c-.65-.59-.38-1.24.28-.84a7.77,7.77,0,0,0,4,1.2c4.49,0,8.14-4.11,8.14-9.17s-3.65-9.17-8.14-9.17a8,8,0,0,0-7,4.54c-.13.27-.25.63-.44.63s-.39-.43-.39-1.25c0-3.29,1.26-7.13,3.12-11.54a26.37,26.37,0,0,1-4.84.68,27.25,27.25,0,0,1-4.84-.68c1.87,4.41,3.13,8.25,3.13,11.54,0,.82-.12,1.25-.39,1.25s-.31-.36-.45-.63a8,8,0,0,0-7-4.54c-4.49,0-8.14,4.11-8.14,9.17s3.65,9.17,8.14,9.17a7.67,7.67,0,0,0,4-1.2c.66-.4.94.25.29.84a10.09,10.09,0,0,0-3.17,7.41C124.57,220.17,128.36,224.43,133,224.43Z"/><path d="M89.79,67.11c-4.66,0-8.44,4.25-8.44,9.5A10,10,0,0,0,84.52,84c.64.59.37,1.24-.29.84a7.77,7.77,0,0,0-4-1.2c-4.49,0-8.14,4.11-8.14,9.17S75.71,102,80.21,102a8,8,0,0,0,7-4.54c.14-.26.25-.63.44-.63s.39.44.39,1.26c0,3.28-1.26,7.13-3.12,11.55a17.5,17.5,0,0,1,9.68,0c-1.87-4.42-3.13-8.27-3.13-11.55,0-.82.12-1.26.39-1.26s.31.37.44.63a8,8,0,0,0,7,4.54c4.5,0,8.14-4.1,8.14-9.16s-3.64-9.17-8.14-9.17a7.67,7.67,0,0,0-4,1.2c-.66.4-.94-.25-.29-.84a10,10,0,0,0,3.17-7.41C98.23,71.36,94.44,67.11,89.79,67.11Z"/><path d="M89.79,183.33c4.65,0,8.44-4.26,8.44-9.51a10,10,0,0,0-3.17-7.41c-.65-.6-.37-1.24.29-.84a7.66,7.66,0,0,0,4,1.19c4.5,0,8.14-4.1,8.14-9.16s-3.64-9.17-8.14-9.17a8,8,0,0,0-7,4.54c-.13.27-.24.63-.44.63s-.39-.44-.39-1.25c0-3.29,1.26-7.13,3.13-11.54a17.88,17.88,0,0,1-9.68,0c1.86,4.41,3.12,8.25,3.12,11.54,0,.81-.12,1.25-.39,1.25s-.3-.36-.44-.63a8,8,0,0,0-7-4.54c-4.49,0-8.14,4.11-8.14,9.17s3.65,9.16,8.14,9.16a7.66,7.66,0,0,0,4-1.19c.66-.4.94.24.29.84a10,10,0,0,0-3.17,7.41C81.35,179.07,85.13,183.33,89.79,183.33Z"/><path class="cls-2" d="M13.26,27.11h0a4.84,4.84,0,0,0-3.41,1.38,4.42,4.42,0,0,0-.11,6.24l.11.11a4.92,4.92,0,0,0,6.83,0,4.42,4.42,0,0,0,.11-6.24l-.11-.11A4.84,4.84,0,0,0,13.26,27.11Z"/><path class="cls-2" d="M13.26,24.55a4,4,0,0,0,2.82-1.14,3.61,3.61,0,0,0,0-5.21,4,4,0,0,0-2.82-1.14h0a4,4,0,0,0-2.82,1.14,3.6,3.6,0,0,0-1.11,2.6,3.64,3.64,0,0,0,1.11,2.61A4,4,0,0,0,13.26,24.55Z"/><path d="M18.22,26.6a7,7,0,0,0-1.22-1c.19-.15.37-.3.54-.46a6.17,6.17,0,0,0,0-8.73l0,0a6.13,6.13,0,0,0-8.61,8.73l0,0c.17.16.35.31.54.46a7,7,0,0,0-1.22,1,7.09,7.09,0,1,0,10,.1Zm-7.79-8.4a4,4,0,0,1,2.82-1.14h0a4,4,0,0,1,2.82,1.14,3.61,3.61,0,0,1,0,5.21,4.07,4.07,0,0,1-5.65,0,3.6,3.6,0,0,1,0-5.21Zm6.28,16.64a4.92,4.92,0,0,1-6.83,0,4.42,4.42,0,0,1-.11-6.24l.11-.11a4.84,4.84,0,0,1,3.41-1.38h0a4.84,4.84,0,0,1,3.41,1.38,4.42,4.42,0,0,1,.11,6.24l-.11.11Z"/><path class="cls-2" d="M166.32,223.33h0a4.84,4.84,0,0,0,3.42-1.38,4.41,4.41,0,0,0,.11-6.25l-.11-.11a4.93,4.93,0,0,0-6.84,0,4.41,4.41,0,0,0-.11,6.25l.11.11A4.9,4.9,0,0,0,166.32,223.33Z"/><path class="cls-2" d="M166.32,225.88a4,4,0,0,0-2.83,1.15,3.68,3.68,0,0,0-1.11,2.6,3.72,3.72,0,0,0,1.11,2.61,4.08,4.08,0,0,0,2.83,1.14h0a4.08,4.08,0,0,0,2.83-1.14,3.72,3.72,0,0,0,1.11-2.61,3.68,3.68,0,0,0-1.11-2.6A4,4,0,0,0,166.32,225.88Z"/><path d="M161.35,223.83a7.3,7.3,0,0,0,1.22,1c-.18.15-.36.3-.53.47a6.12,6.12,0,1,0,8.65.08l-.08-.08c-.17-.17-.36-.32-.54-.47a7,7,0,0,0,3.34-6,7.09,7.09,0,1,0-12.06,5.06Zm7.8,8.41a4.08,4.08,0,0,1-2.83,1.14h0a4.08,4.08,0,0,1-2.83-1.14,3.72,3.72,0,0,1-1.11-2.61,3.68,3.68,0,0,1,1.11-2.6,4.06,4.06,0,0,1,5.66,0,3.68,3.68,0,0,1,1.11,2.6A3.72,3.72,0,0,1,169.15,232.24Zm-6.25-16.65a4.93,4.93,0,0,1,6.84,0,4.41,4.41,0,0,1,.11,6.25l-.11.11a4.84,4.84,0,0,1-3.42,1.38h0A4.9,4.9,0,0,1,162.9,222a4.41,4.41,0,0,1-.11-6.25l.11-.11Z"/></g></g></g></svg>