<svg xmlns="http://www.w3.org/2000/svg" viewBox="0 0 179.58 250.45"><defs><style>.cls-1{fill:#f4f4f2;stroke:#231f20;}.cls-2{fill:none;}</style></defs><title>clubsAsset 9</title><g id="Layer_2" data-name="Layer 2"><g id="Layer_1-2" data-name="Layer 1"><g id="nine"><rect class="cls-1" x="0.5" y="0.5" width="178.58" height="249.45" rx="14.17" ry="14.17"/><path d="M13.25,43a3.62,3.62,0,0,0-3.38,3.8,4,4,0,0,0,1.27,3c.26.24.15.5-.11.33a3.15,3.15,0,0,0-1.61-.47,3.69,3.69,0,0,0,0,7.33,3.21,3.21,0,0,0,2.81-1.81c.06-.11.1-.26.18-.26s.16.18.16.51A12.55,12.55,0,0,1,11.32,60a7.1,7.1,0,0,1,3.88,0A12.55,12.55,0,0,1,14,55.41c0-.33,0-.51.15-.51s.12.15.18.26A3.21,3.21,0,0,0,17.09,57a3.69,3.69,0,0,0,0-7.33,3.15,3.15,0,0,0-1.61.47c-.26.17-.37-.09-.11-.33a4,4,0,0,0,1.27-3A3.62,3.62,0,0,0,13.25,43Z"/><path d="M166.32,207.42a3.61,3.61,0,0,0,3.38-3.8,4,4,0,0,0-1.27-3c-.26-.23-.15-.49.12-.33a3.12,3.12,0,0,0,1.6.48,3.7,3.7,0,0,0,0-7.34,3.2,3.2,0,0,0-2.81,1.82c0,.11-.1.25-.18.25s-.15-.17-.15-.5a12.61,12.61,0,0,1,1.25-4.62,7.1,7.1,0,0,1-3.88,0,12.62,12.62,0,0,1,1.26,4.62c0,.33,0,.5-.16.5s-.12-.14-.18-.25a3.2,3.2,0,0,0-2.81-1.82,3.7,3.7,0,0,0,0,7.34,3.06,3.06,0,0,0,1.61-.48c.26-.16.37.1.11.33a4.1,4.1,0,0,0-1.27,3A3.61,3.61,0,0,0,166.32,207.42Z"/><path d="M46.56,26c-4.66,0-8.44,4.26-8.44,9.51a10,10,0,0,0,3.2,7.39c.64.6.37,1.24-.29.84a7.66,7.66,0,0,0-4-1.19c-4.49,0-8.14,4.1-8.14,9.16S32.54,60.9,37,60.9a8,8,0,0,0,7-4.54c.14-.27.25-.63.44-.63s.39.44.39,1.26c0,3.28-1.26,7.12-3.12,11.53a17.88,17.88,0,0,1,9.68,0c-1.87-4.41-3.13-8.25-3.13-11.53,0-.82.13-1.26.39-1.26s.31.36.45.63a8,8,0,0,0,7,4.54c4.5,0,8.14-4.11,8.14-9.17s-3.64-9.16-8.14-9.16a7.66,7.66,0,0,0-4,1.19c-.66.4-.94-.24-.29-.84A10,10,0,0,0,55,35.51C55,30.26,51.22,26,46.56,26Z"/><path d="M46.56,78c-4.66,0-8.44,4.26-8.44,9.5a10,10,0,0,0,3.17,7.42c.64.59.37,1.23-.29.83a7.66,7.66,0,0,0-4-1.19c-4.49,0-8.14,4.11-8.14,9.16s3.65,9.17,8.14,9.17a8,8,0,0,0,7-4.54c.14-.27.25-.63.44-.63s.39.43.39,1.25c0,3.29-1.26,7.13-3.12,11.55a26.37,26.37,0,0,1,4.84-.68,26.37,26.37,0,0,1,4.84.68c-1.87-4.42-3.13-8.26-3.13-11.55,0-.82.13-1.25.39-1.25s.31.36.45.63a8,8,0,0,0,7,4.54c4.5,0,8.14-4.11,8.14-9.17s-3.64-9.16-8.14-9.16a7.66,7.66,0,0,0-4,1.19c-.66.4-.94-.24-.29-.83A10,10,0,0,0,55,87.52C55,82.23,51.22,78,46.56,78Z"/><path d="M46.56,224.43c4.66,0,8.44-4.26,8.44-9.5a10,10,0,0,0-3.17-7.42c-.65-.59-.37-1.24.29-.84a7.67,7.67,0,0,0,4,1.2c4.5,0,8.14-4.11,8.14-9.17s-3.64-9.17-8.14-9.17a8,8,0,0,0-7,4.54c-.14.27-.25.63-.45.63s-.39-.43-.39-1.25c0-3.29,1.26-7.13,3.13-11.54a27.25,27.25,0,0,1-4.84.68,26.37,26.37,0,0,1-4.84-.68c1.86,4.41,3.12,8.25,3.12,11.54,0,.82-.12,1.25-.39,1.25s-.3-.36-.44-.63a8,8,0,0,0-7-4.54c-4.49,0-8.14,4.11-8.14,9.17s3.65,9.17,8.14,9.17a7.77,7.77,0,0,0,4-1.2c.66-.4.93.25.29.84a10,10,0,0,0-3.17,7.42C38.12,220.17,41.9,224.43,46.56,224.43Z"/><path d="M46.56,172.46c4.66,0,8.44-4.26,8.44-9.5a10,10,0,0,0-3.17-7.42c-.65-.59-.37-1.24.29-.84a7.67,7.67,0,0,0,4,1.2c4.5,0,8.14-4.11,8.14-9.17s-3.64-9.17-8.14-9.17a8,8,0,0,0-7,4.54c-.14.27-.25.63-.45.63s-.39-.43-.39-1.25c0-3.29,1.26-7.13,3.13-11.54a27.25,27.25,0,0,1-4.84.68,26.37,26.37,0,0,1-4.84-.68c1.86,4.41,3.12,8.25,3.12,11.54,0,.82-.12,1.25-.39,1.25s-.3-.36-.44-.63a8,8,0,0,0-7-4.54c-4.49,0-8.14,4.11-8.14,9.17s3.65,9.17,8.14,9.17a7.77,7.77,0,0,0,4-1.2c.66-.4.94.25.29.84A10,10,0,0,0,38.14,163C38.12,168.2,41.9,172.46,46.56,172.46Z"/><path d="M133,26c-4.66,0-8.44,4.26-8.44,9.51a10,10,0,0,0,3.17,7.41c.65.6.37,1.24-.29.84a7.66,7.66,0,0,0-4-1.19c-4.5,0-8.14,4.1-8.14,9.16s3.64,9.17,8.14,9.17a8,8,0,0,0,7-4.54c.14-.27.25-.63.45-.63s.39.44.39,1.26c0,3.28-1.26,7.12-3.13,11.53a17.88,17.88,0,0,1,9.68,0c-1.86-4.41-3.12-8.25-3.12-11.53,0-.82.12-1.26.39-1.26s.3.36.44.63a8,8,0,0,0,7,4.54c4.49,0,8.14-4.11,8.14-9.17s-3.65-9.16-8.14-9.16a7.66,7.66,0,0,0-4,1.19c-.66.4-.93-.24-.29-.84a10,10,0,0,0,3.17-7.41C141.45,30.26,137.67,26,133,26Z"/><path d="M133,78c-4.66,0-8.44,4.26-8.44,9.5a10,10,0,0,0,3.17,7.42c.65.59.37,1.23-.29.83a7.66,7.66,0,0,0-4-1.19c-4.5,0-8.14,4.11-8.14,9.16s3.64,9.17,8.14,9.17a8,8,0,0,0,7-4.54c.14-.27.25-.63.45-.63s.39.43.39,1.25c0,3.29-1.26,7.13-3.13,11.55a26.37,26.37,0,0,1,4.84-.68,26.37,26.37,0,0,1,4.84.68c-1.86-4.42-3.12-8.26-3.12-11.55,0-.82.12-1.25.39-1.25s.3.36.44.63a8,8,0,0,0,7,4.54c4.49,0,8.14-4.11,8.14-9.17s-3.65-9.16-8.14-9.16a7.66,7.66,0,0,0-4,1.19c-.66.4-.93-.24-.29-.83a10,10,0,0,0,3.17-7.42C141.45,82.23,137.67,78,133,78Z"/><path d="M133,224.43c4.66,0,8.44-4.26,8.44-9.5a10,10,0,0,0-3.17-7.42c-.64-.59-.37-1.24.29-.84a7.77,7.77,0,0,0,4,1.2c4.49,0,8.14-4.11,8.14-9.17s-3.65-9.17-8.14-9.17a8,8,0,0,0-7,4.54c-.14.27-.25.63-.44.63s-.39-.43-.39-1.25c0-3.29,1.26-7.13,3.12-11.54a26.37,26.37,0,0,1-4.84.68,27.25,27.25,0,0,1-4.84-.68c1.87,4.41,3.13,8.25,3.13,11.54,0,.82-.12,1.25-.39,1.25s-.31-.36-.45-.63a8,8,0,0,0-7-4.54c-4.5,0-8.14,4.11-8.14,9.17s3.64,9.17,8.14,9.17a7.67,7.67,0,0,0,4-1.2c.66-.4.94.25.29.84a10,10,0,0,0-3.17,7.42C124.57,220.17,128.32,224.43,133,224.43Z"/><path d="M133,172.46c4.66,0,8.44-4.26,8.44-9.5a10,10,0,0,0-3.17-7.42c-.64-.59-.37-1.24.29-.84a7.77,7.77,0,0,0,4,1.2c4.49,0,8.14-4.11,8.14-9.17s-3.65-9.17-8.14-9.17a8,8,0,0,0-7,4.54c-.14.27-.25.63-.44.63s-.39-.43-.39-1.25c0-3.29,1.26-7.13,3.12-11.54a26.37,26.37,0,0,1-4.84.68,27.25,27.25,0,0,1-4.84-.68c1.87,4.41,3.13,8.25,3.13,11.54,0,.82-.12,1.25-.39,1.25s-.31-.36-.45-.63a8,8,0,0,0-7-4.54c-4.5,0-8.14,4.11-8.14,9.17s3.64,9.17,8.14,9.17a7.67,7.67,0,0,0,4-1.2c.66-.4.94.25.29.84a10,10,0,0,0-3.17,7.42C124.57,168.2,128.32,172.46,133,172.46Z"/><path d="M89.79,104c-4.66,0-8.44,4.26-8.44,9.51a10,10,0,0,0,3.17,7.42c.64.59.37,1.24-.29.83a7.66,7.66,0,0,0-4-1.19c-4.49,0-8.14,4.11-8.14,9.17s3.65,9.16,8.14,9.16a8,8,0,0,0,7-4.54c.13-.26.25-.63.44-.63s.39.44.39,1.26c0,3.28-1.26,7.12-3.13,11.53a17.54,17.54,0,0,1,9.69,0c-1.87-4.41-3.13-8.25-3.13-11.53,0-.82.12-1.26.39-1.26s.31.37.44.63a8,8,0,0,0,7,4.54c4.49,0,8.14-4.1,8.14-9.16s-3.65-9.17-8.14-9.17a7.66,7.66,0,0,0-4,1.19c-.65.41-.93-.24-.28-.83a10.09,10.09,0,0,0,3.17-7.42C98.23,108.22,94.44,104,89.79,104Z"/><path class="cls-2" d="M13.32,17a4.21,4.21,0,0,0-2,.47,4.52,4.52,0,0,0-1.49,1.26,7.23,7.23,0,0,0-1.34,4.38,7.58,7.58,0,0,0,.75,3.41,4.28,4.28,0,0,0,4,2.5h.08a3.92,3.92,0,0,0,1.95-.49,4.44,4.44,0,0,0,1.47-1.29,7.48,7.48,0,0,0,1.32-4.44,6.56,6.56,0,0,0-1.35-4.2A4.25,4.25,0,0,0,13.32,17Z"/><path d="M20.14,22a8.68,8.68,0,0,0-1.86-5,6.38,6.38,0,0,0-5-2.37h0a6.23,6.23,0,0,0-2.9.69,7,7,0,0,0-3,3.13,10.37,10.37,0,0,0-1,4.58,9.31,9.31,0,0,0,1.8,5.74,6.28,6.28,0,0,0,5.08,2.47h.06a6.12,6.12,0,0,0,2.9-.73A6.84,6.84,0,0,0,18.12,29a12.3,12.3,0,0,1-1.06,4.93,4.39,4.39,0,0,1-1.54,1.77,4.83,4.83,0,0,1-2.75.72,4.52,4.52,0,0,1-2.16-.51,5.17,5.17,0,0,1-1.85-1.75,6.93,6.93,0,0,1-.41-.76l-.09-.21h0l-2,.79a8.23,8.23,0,0,0,1.43,2.42,7.09,7.09,0,0,0,2,1.66,6.62,6.62,0,0,0,3.12.75h0a6.87,6.87,0,0,0,3.87-1.06,6.31,6.31,0,0,0,1.89-1.89A10.38,10.38,0,0,0,20,32.27a20.46,20.46,0,0,0,.38-3.41v-2C20.32,24.42,20.17,22.38,20.14,22ZM16.7,27.18a4.44,4.44,0,0,1-1.47,1.29,4,4,0,0,1-1.91.55h-.05a4.28,4.28,0,0,1-4-2.5,7.58,7.58,0,0,1-.75-3.41,7.23,7.23,0,0,1,1.34-4.38,4.52,4.52,0,0,1,1.49-1.26,4.21,4.21,0,0,1,2-.47,4.3,4.3,0,0,1,3.38,1.6,6.56,6.56,0,0,1,1.35,4.2,7.44,7.44,0,0,1-1.38,4.4Z"/><path class="cls-2" d="M166.32,233.47a4.35,4.35,0,0,0,2-.46,4.55,4.55,0,0,0,1.49-1.27,7.2,7.2,0,0,0,1.34-4.37,7.65,7.65,0,0,0-.75-3.42,4.63,4.63,0,0,0-2-2.06,4.46,4.46,0,0,0-2-.44h0a4.11,4.11,0,0,0-2,.49,4.44,4.44,0,0,0-1.47,1.29,7.51,7.51,0,0,0-1.32,4.45,6.53,6.53,0,0,0,1.35,4.19A4.25,4.25,0,0,0,166.32,233.47Z"/><path d="M159.43,228.39a8.68,8.68,0,0,0,1.86,5,6.39,6.39,0,0,0,5,2.38h0a6.35,6.35,0,0,0,2.9-.69,7.14,7.14,0,0,0,3-3.13,10.37,10.37,0,0,0,1-4.58,9.36,9.36,0,0,0-1.8-5.75,6.28,6.28,0,0,0-5.08-2.47h0a6.13,6.13,0,0,0-2.9.74,6.54,6.54,0,0,0-1.9,1.57,12.39,12.39,0,0,1,1.06-4.94,4.61,4.61,0,0,1,1.54-1.77,4.92,4.92,0,0,1,2.75-.71,4.52,4.52,0,0,1,2.16.51,5.06,5.06,0,0,1,1.84,1.75,5.52,5.52,0,0,1,.42.75l.09.21h0l2-.8A8.23,8.23,0,0,0,172,214a7.06,7.06,0,0,0-2-1.65,6.51,6.51,0,0,0-3.12-.76h0a7,7,0,0,0-3.87,1.06,6.34,6.34,0,0,0-1.89,1.9,10.38,10.38,0,0,0-1.4,3.55,20.46,20.46,0,0,0-.38,3.4v2.05A46,46,0,0,0,159.43,228.39Zm3.44-5.16a4.44,4.44,0,0,1,1.47-1.29,4.11,4.11,0,0,1,2-.49h0a4.46,4.46,0,0,1,2,.44,4.63,4.63,0,0,1,2,2.06,7.65,7.65,0,0,1,.75,3.42,7.2,7.2,0,0,1-1.34,4.37,4.55,4.55,0,0,1-1.49,1.27,4.38,4.38,0,0,1-5.34-1.14,6.53,6.53,0,0,1-1.35-4.19A7.51,7.51,0,0,1,162.87,223.23Z"/></g></g></g></svg>