<svg xmlns="http://www.w3.org/2000/svg" viewBox="0 0 179.58 250.45"><defs><style>.cls-1{fill:#f4f4f2;stroke:#231f20;}.cls-2{fill:none;}</style></defs><title>clubsAsset 1</title><g id="Layer_2" data-name="Layer 2"><g id="Layer_1-2" data-name="Layer 1"><g id="ace"><rect class="cls-1" x="0.5" y="0.5" width="178.58" height="249.45" rx="14.17" ry="14.17"/><path d="M13.25,43a3.6,3.6,0,0,0-3.37,3.8,4,4,0,0,0,1.26,3c.26.24.15.5-.11.34a3.06,3.06,0,0,0-1.61-.48,3.7,3.7,0,0,0,0,7.34,3.2,3.2,0,0,0,2.81-1.82c.06-.11.1-.25.18-.25s.16.17.16.5a12.57,12.57,0,0,1-1.26,4.61,10.66,10.66,0,0,1,1.94-.27,10.66,10.66,0,0,1,1.94.27,12.55,12.55,0,0,1-1.25-4.61c0-.33,0-.5.15-.5s.13.14.18.25A3.19,3.19,0,0,0,17.08,57a3.7,3.7,0,0,0,0-7.34,3.16,3.16,0,0,0-1.61.48c-.26.16-.37-.1-.11-.34a4,4,0,0,0,1.27-3A3.61,3.61,0,0,0,13.25,43Z"/><path d="M166.32,207.48a3.62,3.62,0,0,0,3.38-3.81,4,4,0,0,0-1.27-3c-.26-.24-.14-.5.12-.34a3.12,3.12,0,0,0,1.6.48,3.69,3.69,0,0,0,0-7.33,3.21,3.21,0,0,0-2.81,1.81c-.05.11-.1.26-.17.26s-.16-.18-.16-.51a12.55,12.55,0,0,1,1.25-4.61,7.07,7.07,0,0,1-3.87,0,12.75,12.75,0,0,1,1.25,4.61c0,.33,0,.51-.16.51s-.12-.15-.18-.26a3.18,3.18,0,0,0-2.82-1.81,3.69,3.69,0,0,0,0,7.33,3.06,3.06,0,0,0,1.61-.48c.26-.16.37.1.12.34a4,4,0,0,0-1.27,3A3.62,3.62,0,0,0,166.32,207.48Z"/><path d="M89.79,104c-4.66,0-8.44,4.26-8.44,9.5a10,10,0,0,0,3.13,7.42c.65.59.37,1.24-.29.84a7.77,7.77,0,0,0-4-1.2c-4.49,0-8.14,4.11-8.14,9.17s3.65,9.17,8.14,9.17a8,8,0,0,0,7-4.54c.14-.27.25-.64.44-.64s.39.44.39,1.26c0,3.29-1.26,7.13-3.12,11.54a26.37,26.37,0,0,1,4.84-.68,26.37,26.37,0,0,1,4.84.68c-1.87-4.41-3.13-8.25-3.13-11.54,0-.82.13-1.26.4-1.26s.3.37.44.64a8,8,0,0,0,7,4.54c4.5,0,8.14-4.11,8.14-9.17s-3.64-9.17-8.14-9.17a7.67,7.67,0,0,0-4,1.2c-.66.4-.94-.25-.29-.84a10,10,0,0,0,3.17-7.42C98.23,108.22,94.48,104,89.79,104Z"/><polygon class="cls-2" points="11.14 30.63 15.47 30.63 13.31 19.07 11.14 30.63"/><path d="M18.73,36.48,14.66,14.69H11.93L7.87,36.48H6.17v2.3h5.45v-2.3H10.05l.62-3.33h5.26l.63,3.33H14.89v2.3h5.45v-2.3Zm-7.59-5.83,2.17-11.56,2.17,11.53Z"/><polygon class="cls-2" points="168.44 219.82 164.12 219.82 166.27 231.38 168.44 219.82"/><path d="M160.85,214l4.07,21.77h2.73l4-21.78h1.71v-2.3H168V214h1.57l-.63,3.33h-5.26L163,214h1.67v-2.3h-5.45V214Zm7.59,5.83-2.17,11.56-2.16-11.55Z"/></g></g></g></svg>