<svg xmlns="http://www.w3.org/2000/svg" viewBox="0 0 179.58 250.45"><defs><style>.cls-1{fill:#f4f4f2;stroke:#231f20;}.cls-2{fill:#e44145;}.cls-3{fill:none;}</style></defs><title>diamondsAsset 9</title><g id="Layer_2" data-name="Layer 2"><g id="Layer_1-2" data-name="Layer 1"><g id="nine"><rect class="cls-1" x="0.5" y="0.5" width="178.58" height="249.45" rx="14.17" ry="14.17"/><path class="cls-2" d="M13.26,43a24.61,24.61,0,0,0,7.08,8.52A24.42,24.42,0,0,0,13.26,60a24.68,24.68,0,0,0-7.1-8.49A24.78,24.78,0,0,0,13.26,43Z"/><path class="cls-2" d="M166.32,190.41a24.49,24.49,0,0,0,7.08,8.51,24.76,24.76,0,0,0-7.08,8.5,24.82,24.82,0,0,0-7.1-8.5A24.65,24.65,0,0,0,166.32,190.41Z"/><path class="cls-2" d="M46.58,26A61.42,61.42,0,0,0,64.32,47.29,61.58,61.58,0,0,0,46.63,68.53,61.94,61.94,0,0,0,28.89,47.29,61.77,61.77,0,0,0,46.58,26Z"/><path class="cls-2" d="M46.58,78A61.43,61.43,0,0,0,64.32,99.26a61.45,61.45,0,0,0-17.69,21.23A62,62,0,0,0,28.89,99.26,62,62,0,0,0,46.58,78Z"/><path class="cls-2" d="M46.58,129.94a61.35,61.35,0,0,0,17.74,21.28,61.58,61.58,0,0,0-17.69,21.24,62,62,0,0,0-17.74-21.24,61.86,61.86,0,0,0,17.74-21.28Z"/><path class="cls-2" d="M46.58,181.91a61.35,61.35,0,0,0,17.74,21.28,61.58,61.58,0,0,0-17.69,21.24,62,62,0,0,0-17.74-21.24,61.86,61.86,0,0,0,17.74-21.28Z"/><path class="cls-2" d="M133,26a61.44,61.44,0,0,0,17.69,21.29A61.45,61.45,0,0,0,133,68.54a62,62,0,0,0-17.72-21.25A62.08,62.08,0,0,0,133,26Z"/><path class="cls-2" d="M133,78a61.44,61.44,0,0,0,17.69,21.29A61.45,61.45,0,0,0,133,120.54a62,62,0,0,0-17.72-21.28A62.07,62.07,0,0,0,133,78Z"/><path class="cls-2" d="M133,129.94a61.31,61.31,0,0,0,17.69,21.28A61.58,61.58,0,0,0,133,172.46a62.18,62.18,0,0,0-17.72-21.24,62,62,0,0,0,17.74-21.28Z"/><path class="cls-2" d="M133,181.91a61.31,61.31,0,0,0,17.69,21.28A61.58,61.58,0,0,0,133,224.43a62.18,62.18,0,0,0-17.72-21.24,62,62,0,0,0,17.74-21.28Z"/><path class="cls-2" d="M89.81,104a61.24,61.24,0,0,0,17.69,21.29,61.51,61.51,0,0,0-17.69,21.22,62,62,0,0,0-17.74-21.22A61.69,61.69,0,0,0,89.81,104Z"/><path class="cls-3" d="M13.32,17a4.35,4.35,0,0,0-2,.46,4.5,4.5,0,0,0-1.48,1.26A7.21,7.21,0,0,0,8.5,23.06a7.65,7.65,0,0,0,.75,3.42,4.53,4.53,0,0,0,2,2.06,4.46,4.46,0,0,0,2,.44h.07a4.15,4.15,0,0,0,1.95-.49,4.59,4.59,0,0,0,1.47-1.3,7.48,7.48,0,0,0,1.32-4.44,6.53,6.53,0,0,0-1.35-4.19A4.25,4.25,0,0,0,13.32,17Z"/><path class="cls-2" d="M20.14,22a8.82,8.82,0,0,0-1.86-5,6.38,6.38,0,0,0-5-2.37h0a6.23,6.23,0,0,0-2.9.69,7,7,0,0,0-3,3.13,10.37,10.37,0,0,0-1,4.58,9.38,9.38,0,0,0,1.79,5.74,6.32,6.32,0,0,0,5.09,2.47h.06a6.12,6.12,0,0,0,2.9-.73A6.84,6.84,0,0,0,18.12,29a12.47,12.47,0,0,1-1.06,4.93,4.39,4.39,0,0,1-1.54,1.77,4.83,4.83,0,0,1-2.75.72,4.52,4.52,0,0,1-2.16-.51,5.17,5.17,0,0,1-1.85-1.75,6.93,6.93,0,0,1-.41-.76l-.09-.21h0l-2,.79a8.23,8.23,0,0,0,1.43,2.42,7.09,7.09,0,0,0,2,1.66,6.62,6.62,0,0,0,3.12.75h0a6.87,6.87,0,0,0,3.87-1.06,6.31,6.31,0,0,0,1.89-1.89A10.38,10.38,0,0,0,20,32.27a20.46,20.46,0,0,0,.38-3.41v-2C20.32,24.42,20.17,22.38,20.14,22ZM16.7,27.18a4.47,4.47,0,0,1-1.47,1.3,4,4,0,0,1-1.91.54h-.05a4.28,4.28,0,0,1-4-2.5,7.58,7.58,0,0,1-.75-3.41,7.23,7.23,0,0,1,1.34-4.38,4.31,4.31,0,0,1,1.49-1.26,4.21,4.21,0,0,1,2-.47,4.3,4.3,0,0,1,3.38,1.6,6.56,6.56,0,0,1,1.35,4.2,7.44,7.44,0,0,1-1.38,4.4Z"/><path class="cls-2" d="M159.43,228.39a8.67,8.67,0,0,0,1.85,5,6.39,6.39,0,0,0,5,2.38h0a6.36,6.36,0,0,0,2.9-.7,7.14,7.14,0,0,0,3-3.13,10,10,0,0,0,1-4.57,9.27,9.27,0,0,0-1.79-5.75,6.28,6.28,0,0,0-5.08-2.47h0a6.13,6.13,0,0,0-2.9.74,6.81,6.81,0,0,0-1.9,1.56,12.3,12.3,0,0,1,1.06-4.93,4.39,4.39,0,0,1,1.54-1.77,4.83,4.83,0,0,1,2.75-.72,4.46,4.46,0,0,1,2.15.51,5.12,5.12,0,0,1,1.85,1.76,5.52,5.52,0,0,1,.42.75l.09.21h0l2-.79a8.23,8.23,0,0,0-1.43-2.42,7.09,7.09,0,0,0-2-1.66,6.62,6.62,0,0,0-3.12-.75h0A6.84,6.84,0,0,0,163,212.7a6.31,6.31,0,0,0-1.89,1.89,10.38,10.38,0,0,0-1.4,3.55,20.46,20.46,0,0,0-.38,3.41v2A44.74,44.74,0,0,0,159.43,228.39Zm3.44-5.16a4.44,4.44,0,0,1,1.47-1.29,4,4,0,0,1,1.94-.49h0a4.28,4.28,0,0,1,4,2.5,7.65,7.65,0,0,1,.75,3.42,7.2,7.2,0,0,1-1.34,4.37,4.52,4.52,0,0,1-1.49,1.26,4.21,4.21,0,0,1-2,.47,4.3,4.3,0,0,1-3.38-1.6,6.56,6.56,0,0,1-1.35-4.2A7.49,7.49,0,0,1,162.87,223.23Z"/></g></g></g></svg>