<svg xmlns="http://www.w3.org/2000/svg" viewBox="0 0 179.58 250.45"><defs><style>.cls-1{fill:#f4f4f2;stroke:#231f20;}.cls-2{fill:#e44145;}</style></defs><title>Asset 1</title><g id="Layer_2" data-name="Layer 2"><g id="Layer_1-2" data-name="Layer 1"><g id="ace"><rect class="cls-1" x="0.5" y="0.5" width="178.58" height="249.45" rx="14.17" ry="14.17"/><path class="cls-2" d="M13.26,43a24.49,24.49,0,0,0,7.08,8.51A24.73,24.73,0,0,0,13.26,60a24.79,24.79,0,0,0-7.1-8.49A24.65,24.65,0,0,0,13.26,43Z"/><path class="cls-2" d="M166.33,190.42a24.49,24.49,0,0,0,7.08,8.51,24.73,24.73,0,0,0-7.08,8.49,24.9,24.9,0,0,0-7.1-8.49A24.65,24.65,0,0,0,166.33,190.42Z"/><path class="cls-2" d="M89,106.28a59.43,59.43,0,0,0,17.69,20.57A59.92,59.92,0,0,0,89,147.39a60.48,60.48,0,0,0-17.74-20.54A60,60,0,0,0,89,106.28Z"/><path class="cls-2" d="M18.73,36.48,14.66,14.69H11.93L7.87,36.48H6.17v2.3h5.45v-2.3H10l.63-3.33h5.26l.62,3.33H14.89v2.3h5.45v-2.3Zm-7.59-5.83L13.3,19.09l2.18,11.53Z"/><path class="cls-2" d="M160.85,214l4.06,21.77h2.73L171.7,214h1.7v-2.3H168V214h1.57l-.63,3.33h-5.26L163,214h1.67v-2.3h-5.45V214Zm7.58,5.83-2.16,11.56-2.16-11.55Z"/></g></g></g></svg>