<svg xmlns="http://www.w3.org/2000/svg" viewBox="0 0 179.58 250.45"><defs><style>.cls-1{fill:#f4f4f2;stroke:#231f20;}.cls-2{fill:#e44145;}</style></defs><title>Asset 3</title><g id="Layer_2" data-name="Layer 2"><g id="Layer_1-2" data-name="Layer 1"><g id="three"><rect class="cls-1" x="0.5" y="0.5" width="178.58" height="249.45" rx="14.17" ry="14.17"/><path class="cls-2" d="M13.27,43a24.46,24.46,0,0,0,7.07,8.51A24.5,24.5,0,0,0,13.27,60a24.9,24.9,0,0,0-7.1-8.49A25,25,0,0,0,13.27,43Z"/><path class="cls-2" d="M166.33,190.42a24.49,24.49,0,0,0,7.08,8.51,24.73,24.73,0,0,0-7.08,8.49,24.87,24.87,0,0,0-7.09-8.49A24.62,24.62,0,0,0,166.33,190.42Z"/><path class="cls-2" d="M89.81,26A61.31,61.31,0,0,0,107.5,47.29,61.58,61.58,0,0,0,89.81,68.53,61.94,61.94,0,0,0,72.07,47.29,61.65,61.65,0,0,0,89.81,26Z"/><path class="cls-2" d="M89.81,104a61,61,0,0,0,17.69,21.27,61.61,61.61,0,0,0-17.69,21.25,61.87,61.87,0,0,0-17.74-21.25A61.42,61.42,0,0,0,89.81,104Z"/><path class="cls-2" d="M89.81,181.91a61.31,61.31,0,0,0,17.69,21.28,61.55,61.55,0,0,0-17.69,21.29,61.94,61.94,0,0,0-17.74-21.24A61.65,61.65,0,0,0,89.81,182Z"/><path class="cls-2" d="M14.31,22.48l5.88-5.25h0V14.67H6.71v4.07H8.79V17.2h7.92L8.94,24.4l1.12,1.66a4.53,4.53,0,0,1,3.08-1.25,5,5,0,0,1,3.57,1.67,6.4,6.4,0,0,1,0,8.11,4.93,4.93,0,0,1-3.64,1.68,4.6,4.6,0,0,1-3.5-1.68,6,6,0,0,1-1.33-2.78l-2.11.44c.68,3.71,3.52,6.5,6.94,6.5,3.91,0,7.23-3.68,7.23-8.21C20.34,26.48,17.71,23.12,14.31,22.48Z"/><path class="cls-2" d="M165.27,228l-5.88,5.25h0v2.51h13.53v-4.07h-2.11v1.54H162.9l7.77-7.19-1.12-1.66a4.52,4.52,0,0,1-3.08,1.24,4.88,4.88,0,0,1-3.64-1.67,6.4,6.4,0,0,1,0-8.11,4.93,4.93,0,0,1,3.64-1.68,4.6,4.6,0,0,1,3.5,1.68,6,6,0,0,1,1.33,2.78l2.11-.44c-.68-3.71-3.53-6.5-6.94-6.5-3.92,0-7.23,3.68-7.23,8.21C159.24,224,161.9,227.32,165.27,228Z"/></g></g></g></svg>