<svg xmlns="http://www.w3.org/2000/svg" viewBox="0 0 179.58 250.45"><defs><style>.cls-1{fill:#f4f4f2;stroke:#231f20;}.cls-2{fill:#e44145;}</style></defs><title>diamondsAsset 10</title><g id="Layer_2" data-name="Layer 2"><g id="Layer_1-2" data-name="Layer 1"><g id="ten"><rect class="cls-1" x="0.5" y="0.5" width="178.58" height="249.45" rx="14.17" ry="14.17"/><path class="cls-2" d="M13.27,43a24.49,24.49,0,0,0,7.07,8.52A24.5,24.5,0,0,0,13.27,60a24.79,24.79,0,0,0-7.1-8.49A24.89,24.89,0,0,0,13.27,43Z"/><path class="cls-2" d="M166.34,190.41a24.35,24.35,0,0,0,7.07,8.51,24.63,24.63,0,0,0-7.07,8.5,24.82,24.82,0,0,0-7.1-8.5A24.65,24.65,0,0,0,166.34,190.41Z"/><path class="cls-2" d="M46.59,26A61.44,61.44,0,0,0,64.28,47.31,61.45,61.45,0,0,0,46.59,68.54,62,62,0,0,0,28.85,47.31,62.09,62.09,0,0,0,46.59,26Z"/><path class="cls-2" d="M46.59,78A61.44,61.44,0,0,0,64.28,99.31a61.45,61.45,0,0,0-17.69,21.23A62,62,0,0,0,28.85,99.31,62.09,62.09,0,0,0,46.59,78Z"/><path class="cls-2" d="M46.59,129.94a61.31,61.31,0,0,0,17.69,21.28,61.58,61.58,0,0,0-17.69,21.24,62.24,62.24,0,0,0-17.74-21.24A62,62,0,0,0,46.59,129.94Z"/><path class="cls-2" d="M46.59,181.91a61.31,61.31,0,0,0,17.69,21.28,61.58,61.58,0,0,0-17.69,21.24,62.24,62.24,0,0,0-17.74-21.24,62,62,0,0,0,17.74-21.28Z"/><path class="cls-2" d="M133,26a61.27,61.27,0,0,0,17.7,21.29A61.37,61.37,0,0,0,133,68.54,61.8,61.8,0,0,0,115.3,47.31,61.69,61.69,0,0,0,133,26Z"/><path class="cls-2" d="M133,78A61.31,61.31,0,0,0,150.73,99.3,61.45,61.45,0,0,0,133,120.53,61.8,61.8,0,0,0,115.3,99.3,61.65,61.65,0,0,0,133,78Z"/><path class="cls-2" d="M133,129.94a61.31,61.31,0,0,0,17.69,21.28A61.58,61.58,0,0,0,133,172.46a61.94,61.94,0,0,0-17.74-21.24A61.65,61.65,0,0,0,133,129.94Z"/><path class="cls-2" d="M133,181.91a61.23,61.23,0,0,0,17.7,21.28A61.5,61.5,0,0,0,133,224.43a61.94,61.94,0,0,0-17.74-21.24A61.65,61.65,0,0,0,133,181.91Z"/><path class="cls-2" d="M89.82,54.35a61.13,61.13,0,0,0,17.69,21.29A61.24,61.24,0,0,0,89.82,96.87,62,62,0,0,0,72.07,75.64,61.83,61.83,0,0,0,89.82,54.35Z"/><path class="cls-2" d="M89.82,153.56a61.21,61.21,0,0,0,17.69,21.28,61.49,61.49,0,0,0-17.69,21.24,62,62,0,0,0-17.75-21.24A61.88,61.88,0,0,0,89.82,153.56Z"/><polygon class="cls-2" points="6.17 38.73 6.17 14.67 8.35 14.67 8.35 38.73 6.17 38.73 6.17 38.73"/><path class="cls-2" d="M12.94,37.44a4.66,4.66,0,0,1-1.3-3.26h0V19.25A4.69,4.69,0,0,1,12.94,16h0A4.21,4.21,0,0,1,16,14.71h0A4.25,4.25,0,0,1,19,16h0a4.68,4.68,0,0,1,1.3,3.27h0V34.22A4.72,4.72,0,0,1,19,37.48h0A4.24,4.24,0,0,1,16,38.8h0a4.26,4.26,0,0,1-3.06-1.32Zm1.5-19.72a2.15,2.15,0,0,0-.62,1.53h0V34.18a2.15,2.15,0,0,0,.62,1.53h0a2.18,2.18,0,0,0,1.56.66h0a2.2,2.2,0,0,0,1.57-.66h0a2.15,2.15,0,0,0,.62-1.53h0V19.25a2.15,2.15,0,0,0-.62-1.53h0a2.19,2.19,0,0,0-1.63-.7h0a2.19,2.19,0,0,0-1.56.67Z"/><polygon class="cls-2" points="173.42 211.71 173.42 235.77 171.24 235.77 171.24 211.71 173.42 211.71 173.42 211.71"/><path class="cls-2" d="M166.67,213a4.61,4.61,0,0,1,1.31,3.26h0v14.94a4.69,4.69,0,0,1-1.31,3.26h0a4.26,4.26,0,0,1-3.06,1.32h0a4.24,4.24,0,0,1-3.07-1.32h0a4.72,4.72,0,0,1-1.3-3.26h0v-15a4.72,4.72,0,0,1,1.3-3.26h0a4.24,4.24,0,0,1,3.07-1.32h0a4.26,4.26,0,0,1,3.06,1.32Zm-1.49,19.72a2.2,2.2,0,0,0,.61-1.52h0v-15a2.22,2.22,0,0,0-.61-1.53h0a2.2,2.2,0,0,0-1.57-.66h0a2.2,2.2,0,0,0-1.57.66h0a2.19,2.19,0,0,0-.62,1.53h0v14.94a2.17,2.17,0,0,0,.62,1.52h0a2.17,2.17,0,0,0,1.57.67h0a2.17,2.17,0,0,0,1.57-.67Z"/></g></g></g></svg>