<svg xmlns="http://www.w3.org/2000/svg" viewBox="0 0 179.58 250.44"><defs><style>.cls-1{fill:#f4f4f2;stroke:#231f20;}.cls-2{fill:#e44145;}</style></defs><title>diamondsAsset 8</title><g id="Layer_2" data-name="Layer 2"><g id="Layer_1-2" data-name="Layer 1"><g id="eight"><rect class="cls-1" x="0.5" y="0.5" width="178.58" height="249.44" rx="14.17" ry="14.17"/><path class="cls-2" d="M13.27,43a24.46,24.46,0,0,0,7.07,8.51A24.5,24.5,0,0,0,13.27,60a24.9,24.9,0,0,0-7.1-8.49A25,25,0,0,0,13.27,43Z"/><path class="cls-2" d="M166.33,190.41a24.49,24.49,0,0,0,7.08,8.51,24.76,24.76,0,0,0-7.08,8.5,24.79,24.79,0,0,0-7.09-8.5A24.62,24.62,0,0,0,166.33,190.41Z"/><path class="cls-2" d="M46.59,26A61.1,61.1,0,0,0,64.28,47.3,61.49,61.49,0,0,0,46.59,68.54,62,62,0,0,0,28.84,47.3,61.88,61.88,0,0,0,46.59,26Z"/><path class="cls-2" d="M46.59,104a61.31,61.31,0,0,0,17.69,21.28,61.24,61.24,0,0,0-17.69,21.23,62,62,0,0,0-17.75-21.23A62,62,0,0,0,46.59,104Z"/><path class="cls-2" d="M46.59,181.9a61.13,61.13,0,0,0,17.69,21.29,61.24,61.24,0,0,0-17.69,21.23,62,62,0,0,0-17.75-21.23A61.83,61.83,0,0,0,46.59,181.9Z"/><path class="cls-2" d="M133,26a61.42,61.42,0,0,0,17.67,21.27A61.58,61.58,0,0,0,133,68.53a62,62,0,0,0-17.74-21.24A61.88,61.88,0,0,0,133,26Z"/><path class="cls-2" d="M133,104a61.55,61.55,0,0,0,17.67,21.28A61.45,61.45,0,0,0,133,146.47a62,62,0,0,0-17.74-21.23A62,62,0,0,0,133,104Z"/><path class="cls-2" d="M133,181.9a61.38,61.38,0,0,0,17.67,21.29A61.45,61.45,0,0,0,133,224.42a61.8,61.8,0,0,0-17.74-21.23A61.69,61.69,0,0,0,133,181.9Z"/><path class="cls-2" d="M89.81,67.11A61.31,61.31,0,0,0,107.5,88.39a61.58,61.58,0,0,0-17.69,21.24A61.94,61.94,0,0,0,72.07,88.39,61.65,61.65,0,0,0,89.81,67.11Z"/><path class="cls-2" d="M89.81,140.8a61.44,61.44,0,0,0,17.69,21.29,61.45,61.45,0,0,0-17.69,21.23,61.8,61.8,0,0,0-17.74-21.23A61.69,61.69,0,0,0,89.81,140.8Z"/><path class="cls-2" d="M18.22,26.6a7,7,0,0,0-1.22-1,6,6,0,0,0,.54-.46,6.13,6.13,0,1,0-8.67-.1l.1.1a6,6,0,0,0,.54.46,7,7,0,0,0-1.22,1,7.11,7.11,0,0,0-.08,10,.6.6,0,0,0,.08.08A7.09,7.09,0,0,0,18.22,26.6Zm-7.79-8.4a4,4,0,0,1,2.82-1.14h0a4,4,0,0,1,2.83,1.14,3.6,3.6,0,0,1,.11,5.1,1.14,1.14,0,0,1-.11.11,4.07,4.07,0,0,1-5.65,0,3.6,3.6,0,0,1-.11-5.1Zm6.28,16.64a4.9,4.9,0,0,1-6.83,0,4.39,4.39,0,0,1-.14-6.21,1.85,1.85,0,0,1,.14-.14,4.84,4.84,0,0,1,3.41-1.38h0a4.84,4.84,0,0,1,3.42,1.38,4.42,4.42,0,0,1,.11,6.24l-.11.11Z"/><path class="cls-2" d="M161.36,223.83a7.3,7.3,0,0,0,1.22,1c-.19.15-.37.3-.54.46a6.12,6.12,0,1,0,8.65.08l-.08-.08c-.17-.16-.35-.31-.54-.46a7.3,7.3,0,0,0,1.22-1,7.12,7.12,0,1,0-10,0Zm7.79,8.4a4,4,0,0,1-2.83,1.14h0a4,4,0,0,1-2.82-1.14,3.6,3.6,0,0,1-.11-5.1l.11-.11a4.07,4.07,0,0,1,5.65,0,3.6,3.6,0,0,1,.11,5.1Zm-6.24-16.64a4.9,4.9,0,0,1,6.83,0,4.42,4.42,0,0,1,.11,6.24l-.11.11a4.84,4.84,0,0,1-3.42,1.38h0a4.84,4.84,0,0,1-3.41-1.38,4.39,4.39,0,0,1-.14-6.21l.14-.14Z"/></g></g></g></svg>