<svg xmlns="http://www.w3.org/2000/svg" viewBox="0 0 179.58 250.45"><defs><style>.cls-1{fill:#f4f4f2;stroke:#231f20;}.cls-2{fill:#e44145;}</style></defs><title>diamondsAsset 5</title><g id="Layer_2" data-name="Layer 2"><g id="Layer_1-2" data-name="Layer 1"><g id="five"><rect class="cls-1" x="0.5" y="0.5" width="178.58" height="249.45" rx="14.17" ry="14.17"/><path class="cls-2" d="M13.27,43a24.46,24.46,0,0,0,7.07,8.51A24.5,24.5,0,0,0,13.27,60a24.9,24.9,0,0,0-7.1-8.49A25,25,0,0,0,13.27,43Z"/><path class="cls-2" d="M166.34,190.42a24.57,24.57,0,0,0,7.07,8.51,24.59,24.59,0,0,0-7.07,8.49,24.9,24.9,0,0,0-7.1-8.49A24.65,24.65,0,0,0,166.34,190.42Z"/><path class="cls-2" d="M46.59,26A61.31,61.31,0,0,0,64.28,47.29,61.58,61.58,0,0,0,46.59,68.53,62,62,0,0,0,28.85,47.29,61.86,61.86,0,0,0,46.59,26Z"/><path class="cls-2" d="M89.81,104a61,61,0,0,0,17.7,21.27,61.35,61.35,0,0,0-17.7,21.25,61.87,61.87,0,0,0-17.74-21.25A61.22,61.22,0,0,0,89.81,104Z"/><path class="cls-2" d="M46.59,181.91A61.44,61.44,0,0,0,64.28,203.2a61.31,61.31,0,0,0-17.69,21.28,62,62,0,0,0-17.74-21.23A61.8,61.8,0,0,0,46.59,182Z"/><path class="cls-2" d="M133.05,26a61.21,61.21,0,0,0,17.69,21.28,61.49,61.49,0,0,0-17.69,21.24A62,62,0,0,0,115.3,47.29,61.88,61.88,0,0,0,133.05,26Z"/><path class="cls-2" d="M133.05,181.91a61.3,61.3,0,0,0,17.68,21.29,61.29,61.29,0,0,0-17.68,21.28,62,62,0,0,0-17.75-21.23A61.83,61.83,0,0,0,133.05,182Z"/><path class="cls-2" d="M18.23,23.63A6.83,6.83,0,0,0,12.94,21a6.42,6.42,0,0,0-3.6,1.13v-5h9.37V14.67H7.11v.81h0v9.73H9.36A5,5,0,0,1,13,23.31a4.58,4.58,0,0,1,3.57,1.85,7.77,7.77,0,0,1,0,9.36,4.61,4.61,0,0,1-3.58,1.87,4.38,4.38,0,0,1-2.77-1,6.47,6.47,0,0,1-1.91-2.78l-2.1.85a8.8,8.8,0,0,0,2.63,3.81,6.55,6.55,0,0,0,4.15,1.49h0a6.81,6.81,0,0,0,5.28-2.67,10.26,10.26,0,0,0,0-12.46Z"/><path class="cls-2" d="M161.35,226.81a6.8,6.8,0,0,0,5.28,2.67,6.33,6.33,0,0,0,3.6-1.12v5h-9.37v2.38h11.61v-.83h0v-9.73h-2.26a5,5,0,0,1-3.59,1.9,4.58,4.58,0,0,1-3.57-1.85,7.77,7.77,0,0,1,0-9.36,4.63,4.63,0,0,1,3.57-1.85,4.38,4.38,0,0,1,2.77,1,6.47,6.47,0,0,1,1.91,2.78l2.1-.85a8.8,8.8,0,0,0-2.63-3.81,6.56,6.56,0,0,0-4.15-1.52h0a6.81,6.81,0,0,0-5.28,2.67,10.26,10.26,0,0,0,0,12.46Z"/></g></g></g></svg>