<svg xmlns="http://www.w3.org/2000/svg" viewBox="0 0 179.58 250.44"><defs><style>.cls-1{fill:#f4f4f2;stroke:#231f20;}.cls-2{fill:#e44145;}</style></defs><title>diamondsAsset 7</title><g id="Layer_2" data-name="Layer 2"><g id="Layer_1-2" data-name="Layer 1"><g id="seven"><rect class="cls-1" x="0.5" y="0.5" width="178.58" height="249.44" rx="14.17" ry="14.17"/><path class="cls-2" d="M13.26,43a24.57,24.57,0,0,0,7.07,8.51A24.59,24.59,0,0,0,13.26,60a24.79,24.79,0,0,0-7.1-8.49A24.65,24.65,0,0,0,13.26,43Z"/><path class="cls-2" d="M166.33,190.41a24.46,24.46,0,0,0,7.07,8.51,24.63,24.63,0,0,0-7.07,8.5,24.82,24.82,0,0,0-7.1-8.5A24.65,24.65,0,0,0,166.33,190.41Z"/><path class="cls-2" d="M46.58,26A61.31,61.31,0,0,0,64.27,47.3,61.49,61.49,0,0,0,46.58,68.54,61.94,61.94,0,0,0,28.84,47.3,61.86,61.86,0,0,0,46.58,26Z"/><path class="cls-2" d="M46.58,104a61.17,61.17,0,0,0,17.69,21.27,61.58,61.58,0,0,0-17.69,21.24,62,62,0,0,0-17.74-21.24A61.73,61.73,0,0,0,46.58,104Z"/><path class="cls-2" d="M46.58,181.9a61.44,61.44,0,0,0,17.69,21.29,61.45,61.45,0,0,0-17.69,21.23,62,62,0,0,0-17.74-21.23A61.8,61.8,0,0,0,46.58,181.9Z"/><path class="cls-2" d="M133.09,26A61.1,61.1,0,0,0,150.78,47.3a61.24,61.24,0,0,0-17.69,21.23,62.13,62.13,0,0,0-17.74-21.24A61.93,61.93,0,0,0,133.09,26Z"/><path class="cls-2" d="M133.09,104a61,61,0,0,0,17.69,21.27,61.49,61.49,0,0,0-17.69,21.24,62.24,62.24,0,0,0-17.74-21.24A61.73,61.73,0,0,0,133.09,104Z"/><path class="cls-2" d="M133.09,181.9a61.13,61.13,0,0,0,17.69,21.29,61.24,61.24,0,0,0-17.69,21.23,62,62,0,0,0-17.74-21.23A62.09,62.09,0,0,0,133.09,181.9Z"/><path class="cls-2" d="M89.81,57.19A61.31,61.31,0,0,0,107.5,78.47,61.58,61.58,0,0,0,89.81,99.71,62.18,62.18,0,0,0,72.09,78.47,62,62,0,0,0,89.83,57.19Z"/><path class="cls-2" d="M6.16,14.67v1.44h0v2.45H8.39V17.07h9.34A63.47,63.47,0,0,0,11,38.76H13.2a58.13,58.13,0,0,1,3.89-15.41c.82-1.89,1.57-3.37,2.13-4.37.27-.5.5-.89.65-1.14l.47-.77v-2.4Z"/><path class="cls-2" d="M173.4,235.76v-1.44h0v-2.45h-2.22v1.49h-9.35a63.64,63.64,0,0,0,6.77-21.69h-2.24a57.73,57.73,0,0,1-3.88,15.41c-.81,1.89-1.57,3.37-2.12,4.37q-.42.77-.66,1.14l-.47.77v2.4Z"/></g></g></g></svg>