<svg xmlns="http://www.w3.org/2000/svg" viewBox="0 0 179.58 250.45"><defs><style>.cls-1{fill:#f4f4f2;stroke:#231f20;}.cls-2{fill:#e44145;}</style></defs><title>Asset 2</title><g id="Layer_2" data-name="Layer 2"><g id="Layer_1-2" data-name="Layer 1"><g id="two"><rect class="cls-1" x="0.5" y="0.5" width="178.58" height="249.45" rx="14.17" ry="14.17"/><path class="cls-2" d="M13.26,43a24.57,24.57,0,0,0,7.07,8.51A24.59,24.59,0,0,0,13.26,60a24.79,24.79,0,0,0-7.1-8.49A24.65,24.65,0,0,0,13.26,43Z"/><path class="cls-2" d="M166.33,190.42a24.66,24.66,0,0,0,7.07,8.51,24.7,24.7,0,0,0-7.07,8.49,24.9,24.9,0,0,0-7.1-8.49A24.65,24.65,0,0,0,166.33,190.42Z"/><path class="cls-2" d="M89.81,26A61.31,61.31,0,0,0,107.5,47.29,61.58,61.58,0,0,0,89.81,68.53,62.07,62.07,0,0,0,72.09,47.29,61.86,61.86,0,0,0,89.83,26Z"/><path class="cls-2" d="M89.81,181.91a61.21,61.21,0,0,0,17.69,21.28,61.44,61.44,0,0,0-17.69,21.29,62.15,62.15,0,0,0-17.72-21.29,61.76,61.76,0,0,0,17.74-21.28Z"/><path class="cls-2" d="M20.31,35H18.09v1.49H8.53A3.64,3.64,0,0,1,9,35.24a14.4,14.4,0,0,1,2.39-3,42.28,42.28,0,0,1,3.41-3h0a44.35,44.35,0,0,0,3.61-3.1,7.5,7.5,0,0,0,1.25-1.76,6.21,6.21,0,0,0,.6-2.24,5.23,5.23,0,0,0,0-.56,8.43,8.43,0,0,0-.25-2,6.61,6.61,0,0,0-1.91-3.31,6.81,6.81,0,0,0-4.68-1.6,7,7,0,0,0-4,1.11,6.3,6.3,0,0,0-1.77,1.83,8.26,8.26,0,0,0-1.12,2.87,8,8,0,0,0-.18,1.69v.08l2-.06h.3a7,7,0,0,1,.66-2.85,4.11,4.11,0,0,1,1.37-1.61A4.8,4.8,0,0,1,13.4,17a5.17,5.17,0,0,1,2.42.51,3.67,3.67,0,0,1,1.72,1.88A5.81,5.81,0,0,1,18,21.53v.34a4.16,4.16,0,0,1-.38,1.42,6.16,6.16,0,0,1-1.49,1.8c-.71.64-1.65,1.36-2.76,2.28a38.19,38.19,0,0,0-4.67,4.32A13.52,13.52,0,0,0,7,34a5.8,5.8,0,0,0-.77,2.39h0v.14h0v2.18H20.37V35Z"/><path class="cls-2" d="M159.24,215.48h2.27V214h9.58a3.64,3.64,0,0,1-.46,1.24,14.4,14.4,0,0,1-2.39,3,42.42,42.42,0,0,1-3.42,3h0a44.49,44.49,0,0,0-3.62,3.1,7,7,0,0,0-1.24,1.76,6.66,6.66,0,0,0-.61,2.24v.56a8.43,8.43,0,0,0,.25,2,6.58,6.58,0,0,0,1.93,3.29,6.81,6.81,0,0,0,4.68,1.6,7,7,0,0,0,4-1.11,6,6,0,0,0,1.76-1.83,8.29,8.29,0,0,0,1.12-2.89,9.71,9.71,0,0,0,.18-1.7v-.07l-2,.06H171a7.09,7.09,0,0,1-.67,2.86,4,4,0,0,1-1.36,1.61,4.8,4.8,0,0,1-2.73.73,5.17,5.17,0,0,1-2.42-.51,3.67,3.67,0,0,1-1.72-1.88,5.43,5.43,0,0,1-.44-2.14v-.34a4.16,4.16,0,0,1,.38-1.42,6.16,6.16,0,0,1,1.49-1.8c.71-.64,1.65-1.36,2.76-2.28a38.1,38.1,0,0,0,4.66-4.32,13.57,13.57,0,0,0,1.71-2.35,5.78,5.78,0,0,0,.76-2.39h0v-.14h0v-2.23H159.23v3.8Z"/></g></g></g></svg>