<svg xmlns="http://www.w3.org/2000/svg" viewBox="0 0 179.58 250.45"><defs><style>.cls-1{fill:#f4f4f2;stroke:#231f20;}.cls-2{fill:#e44145;}</style></defs><title>diamondsAsset 4</title><g id="Layer_2" data-name="Layer 2"><g id="Layer_1-2" data-name="Layer 1"><g id="four"><rect class="cls-1" x="0.5" y="0.5" width="178.58" height="249.45" rx="14.17" ry="14.17"/><path class="cls-2" d="M13.26,43a24.54,24.54,0,0,0,7.06,8.51A24.73,24.73,0,0,0,13.24,60a24.79,24.79,0,0,0-7.1-8.49A24.65,24.65,0,0,0,13.24,43Z"/><path class="cls-2" d="M166.32,190.42a24.49,24.49,0,0,0,7.08,8.51,24.73,24.73,0,0,0-7.08,8.49,24.9,24.9,0,0,0-7.1-8.49A24.65,24.65,0,0,0,166.32,190.42Z"/><path class="cls-2" d="M46.58,26A61.35,61.35,0,0,0,64.32,47.29,61.58,61.58,0,0,0,46.63,68.53,62,62,0,0,0,28.89,47.29,61.86,61.86,0,0,0,46.63,26Z"/><path class="cls-2" d="M46.58,181.91a61.35,61.35,0,0,0,17.74,21.28,61.69,61.69,0,0,0-17.74,21.29,62,62,0,0,0-17.74-21.24A61.76,61.76,0,0,0,46.58,182Z"/><path class="cls-2" d="M133,26a61.31,61.31,0,0,0,17.69,21.28A61.58,61.58,0,0,0,133,68.53a62.18,62.18,0,0,0-17.72-21.24A62,62,0,0,0,133.06,26Z"/><path class="cls-2" d="M133,181.91a61.21,61.21,0,0,0,17.69,21.28A61.44,61.44,0,0,0,133,224.48a62.15,62.15,0,0,0-17.72-21.29,61.79,61.79,0,0,0,17.75-21.28Z"/><path class="cls-2" d="M20.32,32.63v-2.4h-3V14.67H15L6.13,30.23v2.4h9v3.74H13.64v2.39h5.23V36.35H17.32V32.63ZM8.76,30.23,15.1,19.1V30.23Z"/><path class="cls-2" d="M159.23,217.81v2.39h3v15.57h2.31l8.88-15.57v-2.39h-9v-3.74h1.5v-2.39h-5.23v2.4h1.51v3.73Zm11.56,2.39-6.34,11.14V220.2Z"/></g></g></g></svg>