<svg xmlns="http://www.w3.org/2000/svg" viewBox="0 0 179.58 250.45"><defs><style>.cls-1{fill:#f4f4f2;stroke:#231f20;}.cls-2{fill:#e44145;}</style></defs><title>diamondsAsset 6</title><g id="Layer_2" data-name="Layer 2"><g id="Layer_1-2" data-name="Layer 1"><g id="six"><rect class="cls-1" x="0.5" y="0.5" width="178.58" height="249.45" rx="14.17" ry="14.17"/><path class="cls-2" d="M13.26,43a24.61,24.61,0,0,0,7.08,8.52A24.6,24.6,0,0,0,13.26,60a24.76,24.76,0,0,0-7.09-8.49A24.62,24.62,0,0,0,13.26,43Z"/><path class="cls-2" d="M166.33,190.41a24.49,24.49,0,0,0,7.08,8.51,24.76,24.76,0,0,0-7.08,8.5,25,25,0,0,0-7.09-8.5A24.62,24.62,0,0,0,166.33,190.41Z"/><path class="cls-2" d="M46.58,26A61.31,61.31,0,0,0,64.27,47.3,61.45,61.45,0,0,0,46.58,68.53,61.83,61.83,0,0,0,28.84,47.29,61.73,61.73,0,0,0,46.58,26Z"/><path class="cls-2" d="M46.58,104a61.17,61.17,0,0,0,17.69,21.27,61.61,61.61,0,0,0-17.69,21.25,61.87,61.87,0,0,0-17.74-21.25A61.53,61.53,0,0,0,46.58,104Z"/><path class="cls-2" d="M46.58,181.91a61.31,61.31,0,0,0,17.69,21.28,61.58,61.58,0,0,0-17.69,21.24,61.94,61.94,0,0,0-17.74-21.24A61.65,61.65,0,0,0,46.58,181.91Z"/><path class="cls-2" d="M133,26A61.31,61.31,0,0,0,150.73,47.3,61.49,61.49,0,0,0,133,68.54,61.94,61.94,0,0,0,115.3,47.3,61.86,61.86,0,0,0,133,26Z"/><path class="cls-2" d="M133,104a61,61,0,0,0,17.69,21.27A61.21,61.21,0,0,0,133,146.48a61.87,61.87,0,0,0-17.74-21.25A61.62,61.62,0,0,0,133,104Z"/><path class="cls-2" d="M133,181.91a61.31,61.31,0,0,0,17.69,21.28A61.58,61.58,0,0,0,133,224.43a62,62,0,0,0-17.74-21.24A61.86,61.86,0,0,0,133,181.91Z"/><path class="cls-2" d="M18.48,24a6.31,6.31,0,0,0-5.17-2.59h-.08a6.4,6.4,0,0,0-3,.77,6.84,6.84,0,0,0-1.56,1.22,3.89,3.89,0,0,1,.13-.71c.13-.67.26-1.21.36-1.57.05-.18.09-.32.11-.41a.17.17,0,0,0,0-.1h0v-.06h0a6,6,0,0,1,.91-1.73,4.61,4.61,0,0,1,1.24-1.13,4.06,4.06,0,0,1,1.92-.58h.33a4.59,4.59,0,0,1,3,1,5.14,5.14,0,0,1,.66.66,1.33,1.33,0,0,1,.14.19h0l.54-.39,1.31-.9a6.27,6.27,0,0,0-1.4-1.55,6.57,6.57,0,0,0-4.23-1.44h-.44a6,6,0,0,0-2.94.92,7.28,7.28,0,0,0-2.44,2.64,8.54,8.54,0,0,0-.67,1.55A30.06,30.06,0,0,0,6,28.19a18.85,18.85,0,0,0,.13,2.67,9.39,9.39,0,0,0,1.9,5.44,6.43,6.43,0,0,0,5.06,2.48h0a6.15,6.15,0,0,0,3-.72,7.23,7.23,0,0,0,3.06-3.27A10.68,10.68,0,0,0,20.34,30,9.84,9.84,0,0,0,18.48,24ZM16.76,34.59a4.49,4.49,0,0,1-1.52,1.32A4.39,4.39,0,0,1,9.8,34.72a6.81,6.81,0,0,1-1.32-3.79h0v-.62a8,8,0,0,1,1.34-4.64,4.42,4.42,0,0,1,1.5-1.35,4.11,4.11,0,0,1,2-.52h.06a4.49,4.49,0,0,1,2,.47,4.68,4.68,0,0,1,2,2.15A8.16,8.16,0,0,1,18.14,30a7.6,7.6,0,0,1-1.35,4.57Z"/><path class="cls-2" d="M161.06,226.45a6.66,6.66,0,0,0,2.23,1.89,6.39,6.39,0,0,0,2.94.69h.08a6.21,6.21,0,0,0,2.95-.77,6.84,6.84,0,0,0,1.56-1.22,3.19,3.19,0,0,1-.13.71c-.13.68-.26,1.21-.35,1.58-.05.18-.09.31-.12.4v.1h0a5.74,5.74,0,0,1-.91,1.73,4.61,4.61,0,0,1-1.24,1.13,4.06,4.06,0,0,1-1.92.58h-.32a4.64,4.64,0,0,1-3-1,4.18,4.18,0,0,1-.67-.66l-.14-.19h0l-.54.38-1.3.9a5.56,5.56,0,0,0,1.39,1.55,6.67,6.67,0,0,0,4.24,1.45h.43a6.15,6.15,0,0,0,2.94-.91,7.3,7.3,0,0,0,2.44-2.65,7.89,7.89,0,0,0,.67-1.55,30.06,30.06,0,0,0,1.16-8.38c0-.85-.05-1.75-.13-2.67a9.26,9.26,0,0,0-1.9-5.43,6.42,6.42,0,0,0-5.06-2.49h0a6.31,6.31,0,0,0-2.95.72,7.33,7.33,0,0,0-3.06,3.27,11,11,0,0,0-1.06,4.79A10,10,0,0,0,161.06,226.45Zm1.73-10.58a4.54,4.54,0,0,1,1.51-1.31,4.11,4.11,0,0,1,2-.49,4.32,4.32,0,0,1,3.44,1.67,6.67,6.67,0,0,1,1.35,3.76h0v.61a7.89,7.89,0,0,1-1.34,4.64,4.62,4.62,0,0,1-1.49,1.36,4.1,4.1,0,0,1-2,.51h-.06a4.21,4.21,0,0,1-2-.47,4.68,4.68,0,0,1-2-2.15,8.09,8.09,0,0,1-.76-3.56A7.67,7.67,0,0,1,162.79,215.87Z"/></g></g></g></svg>