<svg xmlns="http://www.w3.org/2000/svg" viewBox="0 0 43 43"><defs><style>.cls-1{fill:#fff;}</style></defs><title>Asset 2</title><g id="Layer_2" data-name="Layer 2"><g id="图层_1" data-name="图层 1"><path class="cls-1" d="M37.79,0H5.21A5.21,5.21,0,0,0,0,5.21V37.79A5.21,5.21,0,0,0,5.21,43H37.79A5.21,5.21,0,0,0,43,37.79V5.21A5.21,5.21,0,0,0,37.79,0Zm-18,32.56H2.51V10.44H19.39v3.42H6.78v5.66H18.65v3.53H6.78v6.31h13Zm20.67,0H36q-9.08-14.21-9.51-14.85a2.45,2.45,0,0,1-.32-.65,11.15,11.15,0,0,1-.85-1.6h-.11c.07.5.11,1.78.11,3.85V32.56H21.25V10.44h4.81q8.88,14.22,9.2,14.75a4.08,4.08,0,0,1,.42.75,11.59,11.59,0,0,1,.75,1.49h.11V25.72c-.07-.85-.11-1.39-.11-1.6V10.44h4.06Z"/></g></g></svg>