<svg xmlns="http://www.w3.org/2000/svg" viewBox="0 0 179.58 250.45"><defs><style>.cls-1{fill:#f4f4f2;stroke:#231f20;}.cls-2{fill:#e44145;}</style></defs><title>clubsAsset 6</title><g id="Layer_2" data-name="Layer 2"><g id="Layer_1-2" data-name="Layer 1"><g id="five"><rect class="cls-1" x="0.5" y="0.5" width="178.58" height="249.45" rx="14.17" ry="14.17"/><path class="cls-2" d="M17.23,43.11c-1.25-.38-3.19.3-3.9,3.13q-.09.23-.18,0c-1-2.86-2.72-3.49-3.91-3.12-1.76.57-3.19,2.68-3.06,5.36,0,4.69,4.22,7,7,11.53,2.83-4.49,7.07-6.84,7.09-11.54A5,5,0,0,0,17.23,43.11Z"/><path class="cls-2" d="M166.35,190.48c-2.83,4.48-7.07,6.84-7.08,11.54a4.94,4.94,0,0,0,3.08,5.35c1.25.38,3.19-.3,3.9-3.13q.09-.23.18,0c1,2.86,2.72,3.49,3.91,3.12,1.77-.57,3.2-2.68,3.06-5.36C173.37,197.29,169.18,194.92,166.35,190.48Z"/><path class="cls-2" d="M56.5,23.42c-3.12-1-8,.74-9.75,7.81-.15.38-.3.38-.44,0-2.57-7.16-6.81-8.72-9.79-7.79-4.41,1.42-8,6.68-7.65,13.39.07,11.65,10.57,17.59,17.64,28.79,7.08-11.2,17.67-17.08,17.7-28.84C64.83,30,61,24.82,56.5,23.42Z"/><path class="cls-2" d="M46.56,65.69v-.07l-.05.07Z"/><path class="cls-2" d="M46.57,181.91V182a.18.18,0,0,0,0-.07Z"/><path class="cls-2" d="M64.26,210.79c-.09-11.71-10.57-17.61-17.65-28.81-7.07,11.2-17.67,17.08-17.67,28.85-.61,6.78,3.18,12,7.72,13.35,3.11,1,8-.73,9.74-7.8.15-.39.31-.38.45,0,2.57,7.16,6.8,8.73,9.78,7.79C61,222.76,64.58,217.48,64.26,210.79Z"/><path class="cls-2" d="M142.94,23.42c-3.11-1-8,.74-9.74,7.81-.15.38-.31.38-.45,0-2.56-7.18-6.81-8.75-9.81-7.81-4.41,1.42-8,6.68-7.66,13.39.13,11.67,10.66,17.61,17.66,28.81,7.07-11.2,17.67-17.08,17.7-28.84C151.28,30,147.49,24.82,142.94,23.42Z"/><path class="cls-2" d="M133,65.69v0Z"/><path class="cls-2" d="M150.71,208c-.08-11.71-10.56-17.61-17.64-28.81-7.08,11.2-17.67,17.08-17.7,28.84-.62,6.78,3.18,12,7.71,13.36,3.12,1,8-.74,9.75-7.81.15-.38.3-.38.44,0,2.57,7.16,6.81,8.72,9.79,7.79C147.47,219.93,151,214.67,150.71,208Z"/><path class="cls-2" d="M133,179.08v0Z"/><path class="cls-2" d="M99.73,104.21c-3.12-1-8,.73-9.75,7.8-.15.39-.31.38-.45,0-2.57-7.16-6.8-8.73-9.78-7.79-4.41,1.42-8,6.68-7.66,13.39.09,11.71,10.57,17.61,17.64,28.81,7.09-11.2,17.68-17.08,17.71-28.85C108.06,110.78,104.26,105.61,99.73,104.21Z"/><path class="cls-2" d="M89.78,146.48l0-.07v.07Z"/><path class="cls-2" d="M18.23,23.63A6.83,6.83,0,0,0,12.94,21a6.42,6.42,0,0,0-3.6,1.13v-5h9.37V14.67H7.11v.81h0v9.73H9.36A5,5,0,0,1,13,23.31a4.58,4.58,0,0,1,3.57,1.85,7.77,7.77,0,0,1,0,9.36,4.61,4.61,0,0,1-3.58,1.87,4.38,4.38,0,0,1-2.77-1,6.47,6.47,0,0,1-1.91-2.78l-2.1.85a8.8,8.8,0,0,0,2.63,3.81,6.55,6.55,0,0,0,4.15,1.49h0a6.81,6.81,0,0,0,5.28-2.67,10.26,10.26,0,0,0,0-12.46Z"/><path class="cls-2" d="M161.35,226.81a6.8,6.8,0,0,0,5.28,2.67,6.33,6.33,0,0,0,3.6-1.12v5h-9.37v2.38h11.61v-.83h0v-9.73h-2.26a5,5,0,0,1-3.59,1.9,4.58,4.58,0,0,1-3.57-1.85,7.77,7.77,0,0,1,0-9.36,4.63,4.63,0,0,1,3.57-1.85,4.38,4.38,0,0,1,2.77,1,6.47,6.47,0,0,1,1.91,2.78l2.1-.85a8.8,8.8,0,0,0-2.63-3.81,6.56,6.56,0,0,0-4.15-1.52h0a6.81,6.81,0,0,0-5.28,2.67,10.26,10.26,0,0,0,0,12.46Z"/></g></g></g></svg>