<svg xmlns="http://www.w3.org/2000/svg" viewBox="0 0 179.58 250.45"><defs><style>.cls-1{fill:#f4f4f2;stroke:#231f20;}.cls-2{fill:#e44145;}</style></defs><title>clubsAsset 3</title><g id="Layer_2" data-name="Layer 2"><g id="Layer_1-2" data-name="Layer 1"><g id="two"><rect class="cls-1" x="0.5" y="0.5" width="178.58" height="249.45" rx="14.17" ry="14.17"/><path class="cls-2" d="M17.22,43.11c-1.25-.38-3.18.3-3.9,3.13-.06.15-.12.15-.17,0-1-2.86-2.73-3.49-3.92-3.12C7.47,43.69,6,45.8,6.17,48.48c0,4.69,4.23,7,7.06,11.52,2.86-4.52,7.07-6.84,7.08-11.52A5,5,0,0,0,17.22,43.11Z"/><path class="cls-2" d="M166.34,190.48c-2.83,4.48-7.07,6.84-7.08,11.54a4.94,4.94,0,0,0,3.08,5.35c1.25.38,3.19-.3,3.9-3.13.06-.15.13-.15.18,0,1,2.86,2.72,3.49,3.91,3.12,1.77-.57,3.2-2.68,3.07-5.36C173.36,197.28,169.17,194.92,166.34,190.48Z"/><path class="cls-2" d="M89.78,181.91a.22.22,0,0,1,0,.08l0-.08Z"/><path class="cls-2" d="M107.48,210.79c-.09-11.71-10.57-17.6-17.65-28.8-7.07,11.2-17.67,17.08-17.7,28.84-.61,6.78,3.18,12,7.72,13.35,3.11,1,8-.73,9.74-7.8.15-.39.31-.38.45,0,2.57,7.16,6.81,8.73,9.78,7.79C104.23,222.76,107.81,217.48,107.48,210.79Z"/><path class="cls-2" d="M89.77,68.53v-.08a.22.22,0,0,0,0,.08Z"/><path class="cls-2" d="M99.72,26.26c-3.12-1-8,.73-9.75,7.8-.15.39-.31.38-.45,0-2.57-7.17-6.8-8.73-9.78-7.79-4.41,1.42-8,6.68-7.65,13.39.08,11.71,10.56,17.6,17.64,28.8,7.08-11.2,17.67-17.08,17.7-28.84C108.09,32.83,104.25,27.65,99.72,26.26Z"/><path class="cls-2" d="M20.31,35H18.09v1.49H8.53A3.64,3.64,0,0,1,9,35.24a14.4,14.4,0,0,1,2.39-3,42.28,42.28,0,0,1,3.41-3h0a44.35,44.35,0,0,0,3.61-3.1,7.5,7.5,0,0,0,1.25-1.76,6.21,6.21,0,0,0,.6-2.24,5.23,5.23,0,0,0,0-.56,8.43,8.43,0,0,0-.25-2,6.61,6.61,0,0,0-1.91-3.31,6.81,6.81,0,0,0-4.68-1.6,7,7,0,0,0-4,1.11,6.3,6.3,0,0,0-1.77,1.83,8.26,8.26,0,0,0-1.12,2.87,8,8,0,0,0-.18,1.69v.08l2-.06h.3a7,7,0,0,1,.66-2.85,4.11,4.11,0,0,1,1.37-1.61A4.8,4.8,0,0,1,13.4,17a5.17,5.17,0,0,1,2.42.51,3.67,3.67,0,0,1,1.72,1.88A5.81,5.81,0,0,1,18,21.53v.34a4.16,4.16,0,0,1-.38,1.42,6.16,6.16,0,0,1-1.49,1.8c-.71.64-1.65,1.36-2.76,2.28a38.19,38.19,0,0,0-4.67,4.32A13.52,13.52,0,0,0,7,34a5.8,5.8,0,0,0-.77,2.39h0v.14h0v2.18H20.37V35Z"/><path class="cls-2" d="M159.25,215.48h2.28V214h9.56a3.86,3.86,0,0,1-.46,1.24,14.4,14.4,0,0,1-2.39,3,42.42,42.42,0,0,1-3.42,3h0a44.49,44.49,0,0,0-3.62,3.1,7,7,0,0,0-1.24,1.76,6.66,6.66,0,0,0-.61,2.24v.56a7.94,7.94,0,0,0,.25,2,6.58,6.58,0,0,0,1.93,3.29,6.81,6.81,0,0,0,4.68,1.6,7,7,0,0,0,4-1.11,6.06,6.06,0,0,0,1.77-1.83A8.44,8.44,0,0,0,173.1,230a8.83,8.83,0,0,0,.17-1.7v-.07l-2,.06H171a7.26,7.26,0,0,1-.67,2.86,4,4,0,0,1-1.37,1.61,4.74,4.74,0,0,1-2.72.73,5.17,5.17,0,0,1-2.42-.51,3.67,3.67,0,0,1-1.72-1.88,5.44,5.44,0,0,1-.45-2.14,1.93,1.93,0,0,1,0-.34,3.7,3.7,0,0,1,.38-1.42,6,6,0,0,1,1.48-1.8c.72-.64,1.66-1.36,2.76-2.28a36.73,36.73,0,0,0,4.67-4.32,14.12,14.12,0,0,0,1.71-2.35,5.93,5.93,0,0,0,.76-2.39h0v-.14h0v-2.23H159.25Z"/></g></g></g></svg>