<svg xmlns="http://www.w3.org/2000/svg" viewBox="0 0 179.58 250.45"><defs><style>.cls-1{fill:#f4f4f2;stroke:#231f20;}.cls-2{fill:#e44145;}</style></defs><title>clubsAsset 1</title><g id="Layer_2" data-name="Layer 2"><g id="Layer_1-2" data-name="Layer 1"><g id="ace"><rect class="cls-1" x="0.5" y="0.5" width="178.58" height="249.45" rx="14.17" ry="14.17"/><path class="cls-2" d="M17.23,43.11c-1.25-.38-3.19.3-3.9,3.13-.06.15-.13.15-.18,0-1-2.86-2.72-3.49-3.91-3.12-1.77.57-3.2,2.68-3.07,5.36,0,4.69,4.23,7.05,7.06,11.53,2.83-4.53,7.07-6.85,7.08-11.53A4.94,4.94,0,0,0,17.23,43.11Z"/><path class="cls-2" d="M166.34,190.48c-2.83,4.47-7.07,6.83-7.08,11.53a5,5,0,0,0,3.09,5.35c1.24.38,3.18-.3,3.9-3.13q.09-.22.18,0c1,2.86,2.72,3.49,3.91,3.12,1.76-.57,3.19-2.68,3.06-5.36C173.37,197.28,169.17,194.92,166.34,190.48Z"/><path class="cls-2" d="M89.78,146.48v0Z"/><path class="cls-2" d="M99.72,104.21c-3.11-1-8,.73-9.75,7.8-.15.39-.31.38-.45,0-2.57-7.16-6.8-8.73-9.78-7.79-4.4,1.42-8,6.68-7.65,13.39.09,11.71,10.56,17.61,17.64,28.81,7.08-11.2,17.68-17.08,17.71-28.85C108.05,110.78,104.26,105.61,99.72,104.21Z"/><path class="cls-2" d="M18.73,36.48,14.66,14.69H11.93L7.87,36.48H6.17v2.3h5.45v-2.3H10l.63-3.33h5.26l.62,3.33H14.89v2.3h5.45v-2.3Zm-7.59-5.83L13.3,19.09l2.18,11.53Z"/><path class="cls-2" d="M160.85,214l4.06,21.77h2.73L171.7,214h1.7v-2.3H168V214h1.57l-.63,3.33h-5.26L163,214h1.67v-2.3h-5.45V214Zm7.58,5.83-2.16,11.56-2.16-11.55Z"/></g></g></g></svg>