<svg xmlns="http://www.w3.org/2000/svg" viewBox="0 0 179.58 250.45"><defs><style>.cls-1{fill:#f4f4f2;stroke:#231f20;}.cls-2{fill:#e44145;}</style></defs><title>clubsAsset 9</title><g id="Layer_2" data-name="Layer 2"><g id="Layer_1-2" data-name="Layer 1"><g id="eight"><rect class="cls-1" x="0.5" y="0.5" width="178.58" height="249.45" rx="14.17" ry="14.17"/><path class="cls-2" d="M166.34,190.44c-2.83,4.48-7.07,6.83-7.08,11.54a5,5,0,0,0,3.09,5.34c1.24.39,3.19-.3,3.9-3.12.06-.16.12-.15.18,0,1,2.87,2.72,3.49,3.91,3.12,1.76-.57,3.19-2.67,3.06-5.36C173.36,197.28,169.17,194.92,166.34,190.44Z"/><path class="cls-2" d="M17.23,43.11c-1.25-.39-3.19.3-3.9,3.12q-.09.24-.18,0c-1-2.87-2.72-3.49-3.91-3.12-1.77.57-3.19,2.68-3.06,5.36,0,4.68,4.23,7,7,11.52,2.83-4.48,7.07-6.83,7.08-11.53A4.94,4.94,0,0,0,17.23,43.11Z"/><path class="cls-2" d="M150.71,210.79c-.09-11.71-10.57-17.61-17.64-28.81-7.08,11.2-17.67,17.08-17.71,28.84-.61,6.78,3.19,12,7.72,13.36,3.12,1,8-.74,9.75-7.81.14-.38.3-.38.44,0,2.57,7.16,6.81,8.72,9.78,7.79C147.47,222.76,151,217.5,150.71,210.79Z"/><path class="cls-2" d="M133,181.91l0,.07v-.07Z"/><path class="cls-2" d="M133,65.69v0Z"/><path class="cls-2" d="M143,23.42c-3.12-1-8,.73-9.75,7.8-.14.39-.3.38-.44,0-2.57-7.16-6.8-8.73-9.78-7.79-4.41,1.42-8,6.68-7.66,13.39.09,11.71,10.57,17.61,17.64,28.8,7.08-11.19,17.68-17.07,17.71-28.83C151.28,30,147.49,24.82,143,23.42Z"/><path class="cls-2" d="M143,104.21c-3.12-1-8,.73-9.75,7.8-.14.39-.3.38-.44,0-2.57-7.16-6.8-8.73-9.78-7.79-4.41,1.42-8,6.68-7.66,13.38.09,11.72,10.57,17.61,17.64,28.81,7.08-11.2,17.68-17.08,17.71-28.84C151.28,110.78,147.49,105.6,143,104.21Z"/><path class="cls-2" d="M133,146.47v0Z"/><path class="cls-2" d="M61.42,208c-.09-11.71-10.57-17.61-17.64-28.81C36.71,190.34,26.1,196.22,26.07,208c-.61,6.78,3.19,12,7.72,13.35,3.12,1,8-.73,9.75-7.8.15-.39.3-.38.44,0,2.57,7.16,6.81,8.73,9.78,7.79C58.18,219.92,61.71,214.66,61.42,208Z"/><path class="cls-2" d="M43.71,179.07l0,.07v-.07Z"/><path class="cls-2" d="M53.71,23.42c-3.12-1-8,.73-9.74,7.8-.15.39-.31.38-.45,0-2.57-7.16-6.8-8.73-9.78-7.79-4.41,1.42-8,6.68-7.66,13.39.09,11.71,10.57,17.61,17.65,28.81,7.07-11.2,17.67-17.08,17.7-28.84C62,30,58.2,24.82,53.71,23.42Z"/><path class="cls-2" d="M43.71,65.69v-.07l-.05.07Z"/><path class="cls-2" d="M53.71,104.21c-3.12-1-8,.73-9.74,7.8-.15.39-.31.38-.45,0-2.57-7.17-6.8-8.73-9.78-7.79-4.41,1.42-8,6.68-7.66,13.39.09,11.71,10.57,17.6,17.65,28.8,7.07-11.2,17.67-17.08,17.7-28.84C62,110.78,58.2,105.6,53.71,104.21Z"/><path class="cls-2" d="M43.71,146.47v-.07l-.05.07Z"/><path class="cls-2" d="M107.48,169.69c-.08-11.72-10.56-17.61-17.64-28.81-7.08,11.2-17.67,17.08-17.7,28.84-.61,6.78,3.18,12,7.71,13.36,3.12,1,8-.74,9.75-7.81.15-.39.31-.38.45,0,2.57,7.17,6.8,8.73,9.78,7.8C104.24,181.65,107.81,176.39,107.48,169.69Z"/><path class="cls-2" d="M89.8,140.8v0Z"/><path class="cls-2" d="M99.71,64.52c-3.12-1-8,.74-9.74,7.81-.15.38-.31.38-.45,0-2.57-7.16-6.8-8.72-9.78-7.79-4.41,1.42-8,6.68-7.66,13.39.1,11.69,10.63,17.59,17.63,28.79,7.07-11.2,17.67-17.08,17.7-28.84C108.05,71.1,104.25,65.92,99.71,64.52Z"/><path class="cls-2" d="M89.78,106.79v0Z"/><path class="cls-2" d="M18.22,26.6a7,7,0,0,0-1.22-1c.19-.15.37-.3.54-.46a6.17,6.17,0,0,0,0-8.73l0,0A6.13,6.13,0,0,0,9,25.19c.17.16.35.31.54.46a7,7,0,0,0-1.22,1,7.11,7.11,0,0,0-.08,10,.6.6,0,0,0,.08.08A7.09,7.09,0,0,0,18.22,26.6Zm-7.79-8.4a4,4,0,0,1,2.82-1.14h0a4,4,0,0,1,2.83,1.14,3.61,3.61,0,0,1,0,5.21,4.07,4.07,0,0,1-5.65,0,3.61,3.61,0,0,1,0-5.21Zm6.28,16.64a4.92,4.92,0,0,1-6.83,0,4.39,4.39,0,0,1-.14-6.21,1.85,1.85,0,0,1,.14-.14,4.84,4.84,0,0,1,3.41-1.38h0a4.84,4.84,0,0,1,3.42,1.38,4.42,4.42,0,0,1,.11,6.24l-.11.11Z"/><path class="cls-2" d="M161.36,223.83a7.3,7.3,0,0,0,1.22,1,6.13,6.13,0,1,0,8,.48,6.06,6.06,0,0,0-.54-.47,7.3,7.3,0,0,0,1.22-1,7.09,7.09,0,1,0-10-.1l.1.1Zm7.79,8.4a4,4,0,0,1-2.83,1.15h0a4,4,0,0,1-2.82-1.15,3.61,3.61,0,0,1,0-5.21,4.07,4.07,0,0,1,5.65,0,3.64,3.64,0,0,1,1.11,2.61A3.6,3.6,0,0,1,169.15,232.23Zm-6.24-16.64a4.92,4.92,0,0,1,6.83,0,4.42,4.42,0,0,1,.11,6.24l-.11.11a4.84,4.84,0,0,1-3.42,1.38h0a4.84,4.84,0,0,1-3.41-1.38,4.39,4.39,0,0,1-.14-6.21l.14-.14Z"/></g></g></g></svg>