<svg xmlns="http://www.w3.org/2000/svg" viewBox="0 0 179.58 250.45"><defs><style>.cls-1{fill:#f4f4f2;stroke:#231f20;}.cls-2{fill:#e44145;}</style></defs><title>clubsAsset 10</title><g id="Layer_2" data-name="Layer 2"><g id="Layer_1-2" data-name="Layer 1"><g id="nine"><rect class="cls-1" x="0.5" y="0.5" width="178.58" height="249.45" rx="14.17" ry="14.17"/><path class="cls-2" d="M17.22,43.11c-1.24-.39-3.18.3-3.9,3.12-.06.16-.12.15-.17,0-1-2.87-2.73-3.49-3.92-3.12-1.76.57-3.19,2.67-3.06,5.36,0,4.68,4.23,7,7.06,11.52,2.83-4.48,7.07-6.83,7.08-11.54A5,5,0,0,0,17.22,43.11Z"/><path class="cls-2" d="M166.32,190.44c-2.83,4.48-7.07,6.83-7.08,11.54a4.93,4.93,0,0,0,3.08,5.34c1.24.39,3.18-.29,3.9-3.12.06-.16.12-.15.18,0,1,2.87,2.72,3.49,3.91,3.12,1.77-.57,3.19-2.67,3.06-5.36C173.37,197.28,169.17,194.92,166.32,190.44Z"/><path class="cls-2" d="M56.49,23.42c-3.12-1-8,.73-9.75,7.8-.14.39-.3.38-.44,0-2.57-7.16-6.8-8.73-9.78-7.79-4.41,1.42-8,6.68-7.66,13.39C29,48.53,39.43,54.43,46.5,65.62c7.08-11.19,17.68-17.07,17.71-28.83C64.82,30,61,24.82,56.49,23.42Z"/><path class="cls-2" d="M46.55,65.69a.22.22,0,0,0,0-.08v.08Z"/><path class="cls-2" d="M46.55,118.6l0-.07v.07Z"/><path class="cls-2" d="M56.49,76.33c-3.12-1-8,.74-9.75,7.81-.14.38-.3.37-.44,0-2.57-7.16-6.8-8.72-9.78-7.79-4.41,1.42-8,6.68-7.66,13.39.09,11.71,10.57,17.61,17.64,28.81,7.08-11.2,17.68-17.08,17.71-28.84C64.82,82.91,61,77.73,56.49,76.33Z"/><path class="cls-2" d="M46.56,181.91v0Z"/><path class="cls-2" d="M64.25,210.79c-.09-11.71-10.57-17.61-17.64-28.81-7.08,11.2-17.68,17.08-17.71,28.84-.61,6.78,3.19,12,7.72,13.36,3.12,1,8-.74,9.75-7.81.14-.38.3-.37.44,0,2.57,7.16,6.81,8.72,9.79,7.79C61,222.76,64.58,217.5,64.25,210.79Z"/><path class="cls-2" d="M46.56,129v0Z"/><path class="cls-2" d="M64.25,157.88c-.09-11.72-10.57-17.61-17.64-28.81-7.08,11.2-17.68,17.08-17.71,28.84-.61,6.78,3.19,12,7.72,13.36,3.12,1,8-.74,9.75-7.81.14-.39.3-.38.44,0,2.57,7.17,6.81,8.73,9.79,7.8C61,169.84,64.58,164.59,64.25,157.88Z"/><path class="cls-2" d="M133,65.69l0-.08v.08Z"/><path class="cls-2" d="M143,23.42c-3.12-1-8,.73-9.75,7.8-.14.39-.3.38-.45,0-2.56-7.16-6.8-8.73-9.78-7.79-4.41,1.42-8,6.68-7.65,13.39.09,11.71,10.56,17.61,17.64,28.8,7.08-11.19,17.67-17.07,17.7-28.83C151.32,30,147.48,24.82,143,23.42Z"/><path class="cls-2" d="M133,118.6l0-.07v.07Z"/><path class="cls-2" d="M143,76.33c-3.12-1-8,.74-9.75,7.81-.14.38-.3.37-.45,0C130.19,77,126,75.42,123,76.35c-4.41,1.42-8,6.68-7.65,13.39.09,11.71,10.56,17.61,17.64,28.81,7.08-11.2,17.67-17.08,17.7-28.84C151.32,82.91,147.48,77.73,143,76.33Z"/><path class="cls-2" d="M133,181.91v0Z"/><path class="cls-2" d="M150.71,210.79c-.09-11.71-10.57-17.61-17.65-28.81-7.07,11.2-17.67,17.08-17.7,28.84-.61,6.78,3.18,12,7.72,13.36,3.12,1,8-.74,9.75-7.81.14-.38.3-.37.44,0,2.57,7.16,6.8,8.73,9.78,7.79C147.46,222.76,151,217.5,150.71,210.79Z"/><path class="cls-2" d="M150.71,157.88c-.09-11.72-10.57-17.61-17.65-28.81-7.07,11.2-17.67,17.08-17.7,28.84-.61,6.78,3.18,12,7.72,13.36,3.12,1,8-.74,9.75-7.81.14-.39.3-.38.44,0,2.57,7.17,6.8,8.73,9.78,7.8C147.46,169.84,151,164.59,150.71,157.88Z"/><path class="cls-2" d="M133,129v0Z"/><path class="cls-2" d="M89.78,146.48l0-.08v.08Z"/><path class="cls-2" d="M99.72,104.21c-3.12-1-8,.73-9.75,7.8-.15.39-.3.38-.45,0-2.57-7.17-6.8-8.73-9.78-7.79-4.41,1.42-8,6.68-7.65,13.39.09,11.71,10.57,17.61,17.64,28.8,7.08-11.19,17.67-17.07,17.71-28.84C108,110.78,104.25,105.6,99.72,104.21Z"/><path class="cls-2" d="M20.14,22a8.82,8.82,0,0,0-1.86-5,6.38,6.38,0,0,0-5-2.37h0a6.23,6.23,0,0,0-2.9.69,7.07,7.07,0,0,0-3,3.12,10.37,10.37,0,0,0-1,4.58,9.41,9.41,0,0,0,1.79,5.75,6.32,6.32,0,0,0,5.09,2.47h.06a6.13,6.13,0,0,0,2.9-.74A6.81,6.81,0,0,0,18.12,29a12.47,12.47,0,0,1-1.06,4.93,4.39,4.39,0,0,1-1.54,1.77,4.83,4.83,0,0,1-2.75.72,4.52,4.52,0,0,1-2.16-.51,5.2,5.2,0,0,1-1.85-1.76,6.79,6.79,0,0,1-.41-.75l-.09-.21h0l-2,.79a8.23,8.23,0,0,0,1.43,2.42,7.09,7.09,0,0,0,2,1.66,6.62,6.62,0,0,0,3.12.75h0a6.87,6.87,0,0,0,3.87-1.06,6.31,6.31,0,0,0,1.89-1.89A10.38,10.38,0,0,0,20,32.27a20.46,20.46,0,0,0,.38-3.41v-2C20.32,24.42,20.17,22.38,20.14,22ZM16.7,27.18a4.44,4.44,0,0,1-1.47,1.29,4,4,0,0,1-1.91.55h-.05a4.28,4.28,0,0,1-4-2.5,7.65,7.65,0,0,1-.75-3.42,7.2,7.2,0,0,1,1.34-4.37,4.31,4.31,0,0,1,1.49-1.26,4.21,4.21,0,0,1,2-.47,4.3,4.3,0,0,1,3.38,1.6,6.56,6.56,0,0,1,1.35,4.2,7.44,7.44,0,0,1-1.38,4.4Z"/><path class="cls-2" d="M159.43,228.39a8.67,8.67,0,0,0,1.85,5,6.39,6.39,0,0,0,5,2.38h0a6.35,6.35,0,0,0,2.9-.69,7.2,7.2,0,0,0,3-3.13,10.1,10.1,0,0,0,1-4.58,9.27,9.27,0,0,0-1.79-5.75,6.28,6.28,0,0,0-5.08-2.47h-.08a6.09,6.09,0,0,0-2.89.74,6.54,6.54,0,0,0-1.9,1.57,12.39,12.39,0,0,1,1.06-4.94,4.59,4.59,0,0,1,1.53-1.77,5.05,5.05,0,0,1,2.76-.72,4.46,4.46,0,0,1,2.15.52,5,5,0,0,1,1.85,1.75,5.52,5.52,0,0,1,.42.75l.09.21h0l2-.8a8.23,8.23,0,0,0-1.43-2.42,7.06,7.06,0,0,0-2-1.65,6.51,6.51,0,0,0-3.12-.76h0a6.84,6.84,0,0,0-3.86,1.06,6.34,6.34,0,0,0-1.89,1.9,10.38,10.38,0,0,0-1.4,3.55,20.46,20.46,0,0,0-.38,3.4v2.05C159.23,226,159.4,228,159.43,228.39Zm3.43-5.16a4.59,4.59,0,0,1,1.48-1.29,4,4,0,0,1,1.94-.49h0a4.46,4.46,0,0,1,2,.44,4.63,4.63,0,0,1,2,2.06,7.65,7.65,0,0,1,.75,3.42,7.2,7.2,0,0,1-1.34,4.37,4.55,4.55,0,0,1-1.49,1.27,4.38,4.38,0,0,1-5.34-1.14,6.53,6.53,0,0,1-1.35-4.19A7.52,7.52,0,0,1,162.86,223.23Z"/></g></g></g></svg>