<svg xmlns="http://www.w3.org/2000/svg" viewBox="0 0 179.58 250.45"><defs><style>.cls-1{fill:#f4f4f2;stroke:#231f20;}.cls-2{fill:#e44145;}</style></defs><title>clubsAsset 7</title><g id="Layer_2" data-name="Layer 2"><g id="Layer_1-2" data-name="Layer 1"><g id="six"><rect class="cls-1" x="0.5" y="0.5" width="178.58" height="249.45" rx="14.17" ry="14.17"/><path class="cls-2" d="M17.23,43.11c-1.25-.39-3.19.3-3.9,3.12-.06.16-.13.16-.18,0-1-2.87-2.72-3.49-3.91-3.12-1.77.57-3.2,2.67-3.07,5.36,0,4.68,4.23,7,7.06,11.52,2.83-4.48,7.07-6.83,7.08-11.54A4.93,4.93,0,0,0,17.23,43.11Z"/><path class="cls-2" d="M166.34,190.44c-2.83,4.48-7.07,6.83-7.08,11.54a5,5,0,0,0,3.09,5.34c1.24.39,3.18-.29,3.9-3.12q.09-.22.18,0c1,2.86,2.72,3.49,3.91,3.11,1.76-.57,3.19-2.67,3.06-5.35C173.37,197.28,169.17,194.92,166.34,190.44Z"/><path class="cls-2" d="M46.55,65.69v0Z"/><path class="cls-2" d="M56.48,23.42c-3.11-1-8,.73-9.74,7.8-.15.39-.31.38-.45,0-2.56-7.2-6.81-8.74-9.81-7.8-4.41,1.42-8,6.68-7.66,13.39C29,48.52,39.48,54.42,46.48,65.62c7.07-11.2,17.67-17.08,17.7-28.84C64.82,30,61,24.81,56.48,23.42Z"/><path class="cls-2" d="M46.56,181.91V182l0-.07Z"/><path class="cls-2" d="M64.25,210.79c-.08-11.71-10.56-17.61-17.64-28.81-7.07,11.2-17.67,17.08-17.7,28.84-.62,6.78,3.18,12,7.71,13.36,3.12,1,8-.73,9.75-7.8.15-.39.3-.38.45,0,2.56,7.16,6.8,8.73,9.78,7.79C61,222.76,64.58,217.5,64.25,210.79Z"/><path class="cls-2" d="M133,145l0-.08V145Z"/><path class="cls-2" d="M143,102.79c-3.12-1-8,.73-9.75,7.8-.14.39-.3.38-.44,0-2.57-7.16-6.81-8.73-9.78-7.79-4.41,1.42-8,6.68-7.66,13.39.09,11.71,10.57,17.61,17.64,28.8,7.08-11.19,17.68-17.07,17.71-28.84C151.28,109.36,147.48,104.18,143,102.79Z"/><path class="cls-2" d="M143,23.42c-3.12-1-8,.73-9.75,7.8-.14.39-.3.38-.44,0-2.57-7.16-6.81-8.73-9.78-7.79-4.41,1.42-8,6.68-7.66,13.39.09,11.71,10.57,17.61,17.64,28.81,7.08-11.2,17.68-17.08,17.71-28.84C151.28,30,147.48,24.81,143,23.42Z"/><path class="cls-2" d="M133,65.69l0-.07v.07Z"/><path class="cls-2" d="M133,181.91l0,.07v-.07Z"/><path class="cls-2" d="M150.71,210.79c-.09-11.71-10.57-17.61-17.64-28.81-7.08,11.2-17.68,17.08-17.71,28.84-.61,6.78,3.19,12,7.72,13.36,3.12,1,8-.73,9.75-7.8.15-.39.3-.38.44,0,2.57,7.16,6.8,8.73,9.79,7.79C147.48,222.76,151,217.5,150.71,210.79Z"/><path class="cls-2" d="M46.55,145v0Z"/><path class="cls-2" d="M56.48,102.79c-3.11-1-8,.73-9.74,7.8-.15.39-.31.38-.45,0-2.57-7.16-6.8-8.73-9.78-7.79-4.41,1.42-8,6.68-7.66,13.39.1,11.7,10.63,17.6,17.63,28.83,7.07-11.2,17.67-17.08,17.7-28.85C64.82,109.36,61,104.18,56.48,102.79Z"/><path class="cls-2" d="M18.48,24a6.46,6.46,0,0,0-2.23-1.89,6.39,6.39,0,0,0-2.94-.69h-.08a6.4,6.4,0,0,0-3,.77,6.84,6.84,0,0,0-1.56,1.22,3.89,3.89,0,0,1,.13-.71c.13-.68.26-1.21.36-1.57.05-.19.09-.32.11-.41a.17.17,0,0,0,0-.1h0v-.05h0a6,6,0,0,1,.91-1.73,4.61,4.61,0,0,1,1.24-1.13,4.06,4.06,0,0,1,1.92-.58h.33a4.59,4.59,0,0,1,3,1,5.14,5.14,0,0,1,.66.66,1.33,1.33,0,0,1,.14.19h0l.54-.38,1.31-.9a6.08,6.08,0,0,0-1.4-1.55,6.57,6.57,0,0,0-4.23-1.44h-.44a6.15,6.15,0,0,0-2.94.91,7.39,7.39,0,0,0-2.44,2.65,8.54,8.54,0,0,0-.67,1.55A30.06,30.06,0,0,0,6,28.22a18.85,18.85,0,0,0,.13,2.67,9.39,9.39,0,0,0,1.9,5.44,6.43,6.43,0,0,0,5.06,2.48h0a6.15,6.15,0,0,0,3-.72,7.23,7.23,0,0,0,3.06-3.27A10.67,10.67,0,0,0,20.34,30,9.93,9.93,0,0,0,18.48,24ZM16.76,34.6a4.49,4.49,0,0,1-1.52,1.32A4.39,4.39,0,0,1,9.8,34.73a6.84,6.84,0,0,1-1.32-3.8h0v-.62a8,8,0,0,1,1.34-4.64,4.65,4.65,0,0,1,1.5-1.36,4.22,4.22,0,0,1,2-.51h.06a4.36,4.36,0,0,1,2,.47,4.68,4.68,0,0,1,2,2.15A8.16,8.16,0,0,1,18.14,30a7.6,7.6,0,0,1-1.35,4.57Z"/><path class="cls-2" d="M161.06,226.45a6.66,6.66,0,0,0,2.23,1.89,6.39,6.39,0,0,0,2.94.69h.08a6.09,6.09,0,0,0,2.95-.77,6.84,6.84,0,0,0,1.56-1.22,3.19,3.19,0,0,1-.13.71c-.13.68-.26,1.22-.35,1.58-.05.18-.09.32-.12.41v.09h0a5.67,5.67,0,0,1-.91,1.74,4.42,4.42,0,0,1-1.24,1.12,4.06,4.06,0,0,1-1.92.58h-.32a4.58,4.58,0,0,1-3-1,4.12,4.12,0,0,1-.67-.65l-.14-.2h0l-.54.39-1.3.89a5.56,5.56,0,0,0,1.39,1.55,6.67,6.67,0,0,0,4.24,1.45h.43a6.16,6.16,0,0,0,2.94-.92,7.06,7.06,0,0,0,2.44-2.65,7.89,7.89,0,0,0,.67-1.55,30.06,30.06,0,0,0,1.16-8.38c0-.85-.05-1.74-.13-2.67a9.26,9.26,0,0,0-1.9-5.43,6.42,6.42,0,0,0-5.06-2.49h0a6.31,6.31,0,0,0-2.95.72,7.33,7.33,0,0,0-3.06,3.27,11,11,0,0,0-1.06,4.79A10,10,0,0,0,161.06,226.45Zm1.73-10.57a4.46,4.46,0,0,1,1.51-1.32,4.11,4.11,0,0,1,2-.49,4.32,4.32,0,0,1,3.44,1.67,6.61,6.61,0,0,1,1.35,3.77h0v.62a7.86,7.86,0,0,1-1.34,4.63,4.62,4.62,0,0,1-1.49,1.36,4.1,4.1,0,0,1-2,.51h-.06a4.35,4.35,0,0,1-2-.46,4.71,4.71,0,0,1-2-2.16,8.09,8.09,0,0,1-.76-3.56A7.6,7.6,0,0,1,162.79,215.88Z"/></g></g></g></svg>