<svg xmlns="http://www.w3.org/2000/svg" viewBox="0 0 179.58 250.45"><defs><style>.cls-1{fill:#f4f4f2;stroke:#231f20;}.cls-2{fill:#e44145;}</style></defs><title>clubsAsset 4</title><g id="Layer_2" data-name="Layer 2"><g id="Layer_1-2" data-name="Layer 1"><g id="three"><rect class="cls-1" x="0.5" y="0.5" width="178.58" height="249.45" rx="14.17" ry="14.17"/><path class="cls-2" d="M17.23,43.11c-1.25-.38-3.19.3-3.9,3.13q-.09.23-.18,0c-1-2.86-2.72-3.49-3.91-3.12-1.77.57-3.2,2.68-3.07,5.36,0,4.69,4.23,7,7.06,11.53,2.83-4.49,7.07-6.84,7.08-11.54A4.93,4.93,0,0,0,17.23,43.11Z"/><path class="cls-2" d="M166.34,190.48c-2.83,4.48-7.06,6.83-7.08,11.53a5,5,0,0,0,3.09,5.35c1.25.38,3.19-.3,3.9-3.13q.09-.22.18,0c1,2.86,2.72,3.49,3.91,3.12,1.76-.57,3.19-2.68,3.06-5.36C173.37,197.29,169.17,194.93,166.34,190.48Z"/><path class="cls-2" d="M107.49,210.79c-.09-11.71-10.57-17.6-17.65-28.8-7.08,11.2-17.67,17.08-17.7,28.84-.62,6.78,3.18,12,7.71,13.36,3.12,1,8-.74,9.75-7.81.14-.39.3-.38.44,0,2.57,7.17,6.81,8.73,9.79,7.8C104.24,222.76,107.81,217.48,107.49,210.79Z"/><path class="cls-2" d="M89.79,181.91v0Z"/><path class="cls-2" d="M89.78,68.53a.18.18,0,0,0-.07,0v.08Z"/><path class="cls-2" d="M99.71,26.26c-3.11-1-8,.73-9.74,7.8-.15.39-.31.38-.45,0-2.57-7.17-6.8-8.73-9.78-7.79-4.41,1.42-8,6.68-7.66,13.39.1,11.7,10.63,17.59,17.63,28.82,7.08-11.2,17.68-17.08,17.71-28.84C108.05,32.83,104.26,27.65,99.71,26.26Z"/><path class="cls-2" d="M89.78,146.48l0-.07v.07Z"/><path class="cls-2" d="M99.71,104.21c-3.11-1-8,.73-9.74,7.8-.15.39-.31.38-.45,0-2.57-7.16-6.8-8.73-9.78-7.79-4.41,1.42-8,6.68-7.66,13.39.09,11.71,10.57,17.61,17.64,28.81,7.08-11.2,17.68-17.08,17.71-28.84C108.05,110.78,104.26,105.61,99.71,104.21Z"/><path class="cls-2" d="M14.31,22.48l5.88-5.25h0V14.67H6.71v4.07H8.79V17.2h7.92L8.94,24.39l1.12,1.66a4.52,4.52,0,0,1,3.08-1.24,4.89,4.89,0,0,1,3.57,1.67,6.4,6.4,0,0,1,0,8.11,4.93,4.93,0,0,1-3.64,1.68,4.57,4.57,0,0,1-3.5-1.68,6,6,0,0,1-1.33-2.78l-2.11.44c.68,3.71,3.52,6.5,6.94,6.5,3.91,0,7.23-3.67,7.23-8.21C20.34,26.48,17.71,23.12,14.31,22.48Z"/><path class="cls-2" d="M165.27,228l-5.88,5.25h0v2.51h13.53v-4.07h-2.11v1.54H162.9l7.77-7.19-1.12-1.66a4.53,4.53,0,0,1-3.08,1.25,4.93,4.93,0,0,1-3.64-1.68,6.4,6.4,0,0,1,0-8.11,4.93,4.93,0,0,1,3.64-1.68,4.6,4.6,0,0,1,3.5,1.68,6,6,0,0,1,1.33,2.78l2.11-.44c-.68-3.71-3.53-6.5-6.94-6.5-3.92,0-7.23,3.68-7.23,8.21C159.24,224,161.9,227.32,165.27,228Z"/></g></g></g></svg>