<svg xmlns="http://www.w3.org/2000/svg" viewBox="0 0 179.58 250.45"><defs><style>.cls-1{fill:#f4f4f2;stroke:#231f20;}.cls-2{fill:#e44145;}</style></defs><title>clubsAsset 11</title><g id="Layer_2" data-name="Layer 2"><g id="Layer_1-2" data-name="Layer 1"><g id="ten"><rect class="cls-1" x="0.5" y="0.5" width="178.58" height="249.45" rx="14.17" ry="14.17"/><path class="cls-2" d="M17.23,43.11c-1.25-.39-3.19.3-3.9,3.12-.06.16-.12.15-.18,0-1-2.87-2.72-3.49-3.91-3.12-1.76.57-3.2,2.67-3.06,5.36,0,4.68,4.22,7,7,11.52,2.83-4.48,7.07-6.83,7.09-11.54A5,5,0,0,0,17.23,43.11Z"/><path class="cls-2" d="M166.35,190.44c-2.83,4.48-7.07,6.83-7.08,11.54a4.93,4.93,0,0,0,3.08,5.34c1.25.39,3.19-.29,3.9-3.12.06-.16.13-.15.18,0,1,2.87,2.72,3.49,3.91,3.12,1.77-.57,3.2-2.67,3.06-5.36C173.37,197.28,169.18,194.92,166.35,190.44Z"/><path class="cls-2" d="M46.56,68.52v-.07l-.05.07Z"/><path class="cls-2" d="M56.5,26.25c-3.12-1-8,.74-9.75,7.81-.15.38-.3.38-.44,0-2.57-7.16-6.81-8.72-9.79-7.79-4.41,1.43-8,6.68-7.65,13.39C29,51.38,39.44,57.27,46.51,68.47c7.08-11.2,17.67-17.08,17.7-28.84C64.83,32.83,61,27.65,56.5,26.25Z"/><path class="cls-2" d="M56.5,77.28c-3.12-1-8,.73-9.75,7.8-.15.39-.3.38-.44,0-2.57-7.16-6.81-8.73-9.79-7.79-4.41,1.42-8,6.68-7.65,13.39.09,11.71,10.57,17.61,17.64,28.8,7.08-11.19,17.67-17.07,17.7-28.84C64.83,83.85,61,78.67,56.5,77.28Z"/><path class="cls-2" d="M46.56,119.55v-.08l-.05.08Z"/><path class="cls-2" d="M46.57,179.07v.08l0-.08Z"/><path class="cls-2" d="M64.26,208c-.09-11.71-10.57-17.6-17.65-28.8-7.07,11.2-17.67,17.08-17.67,28.87-.61,6.78,3.18,12,7.72,13.36,3.11,1,8-.74,9.74-7.81.15-.39.31-.38.45,0,2.57,7.17,6.8,8.73,9.78,7.8C61,219.92,64.58,214.66,64.26,208Z"/><path class="cls-2" d="M64.26,156.93c-.09-11.71-10.57-17.61-17.65-28.81C39.54,139.32,28.94,145.2,28.94,157c-.61,6.79,3.18,12,7.72,13.36,3.11,1,8-.73,9.74-7.8.15-.39.31-.38.45,0,2.57,7.16,6.8,8.73,9.78,7.79C61,168.9,64.58,163.64,64.26,156.93Z"/><path class="cls-2" d="M46.57,128v.07l0-.07Z"/><path class="cls-2" d="M99.73,54.6c-3.12-1-8,.74-9.75,7.8-.15.39-.31.38-.45,0-2.57-7.16-6.8-8.73-9.78-7.79-4.41,1.42-8,6.68-7.66,13.39.09,11.71,10.57,17.61,17.64,28.81,7.09-11.2,17.68-17.08,17.71-28.84C108.06,61.18,104.26,56,99.73,54.6Z"/><path class="cls-2" d="M89.78,96.87l0-.07v.07Z"/><path class="cls-2" d="M107.49,182.44c-.09-11.71-10.57-17.61-17.65-28.81-7.07,11.2-17.67,17.08-17.7,28.84-.61,6.79,3.18,12,7.72,13.36,3.11,1,8-.73,9.74-7.8.15-.39.3-.38.44,0,2.58,7.16,6.82,8.73,9.79,7.79C104.24,194.41,107.82,189.15,107.49,182.44Z"/><path class="cls-2" d="M89.79,153.56v.07l0-.07Z"/><path class="cls-2" d="M133,68.52v0Z"/><path class="cls-2" d="M142.94,26.25c-3.12-1-8,.74-9.74,7.81-.15.38-.31.38-.45,0-2.57-7.16-6.8-8.72-9.78-7.79-4.41,1.43-8,6.68-7.66,13.39.09,11.71,10.57,17.61,17.65,28.81,7.07-11.2,17.67-17.08,17.7-28.84C151.28,32.83,147.49,27.65,142.94,26.25Z"/><path class="cls-2" d="M142.94,77.28c-3.12-1-8,.73-9.74,7.8-.15.39-.31.38-.45,0-2.57-7.16-6.8-8.73-9.78-7.79-4.41,1.42-8,6.68-7.66,13.39.09,11.71,10.57,17.61,17.65,28.8,7.07-11.19,17.67-17.08,17.7-28.84C151.28,83.85,147.49,78.67,142.94,77.28Z"/><path class="cls-2" d="M133,119.55v0Z"/><path class="cls-2" d="M150.72,208c-.1-11.71-10.57-17.6-17.65-28.8-7.08,11.2-17.68,17.08-17.7,28.84-.62,6.78,3.18,12,7.71,13.36,3.12,1,8-.74,9.75-7.81.15-.39.3-.38.44,0,2.58,7.17,6.81,8.73,9.79,7.8C147.47,219.92,151,214.66,150.72,208Z"/><path class="cls-2" d="M133,179.07v0Z"/><path class="cls-2" d="M133,128v0Z"/><path class="cls-2" d="M150.71,156.93c-.09-11.71-10.56-17.61-17.64-28.81-7.08,11.2-17.68,17.08-17.7,28.84-.62,6.79,3.18,12,7.71,13.36,3.12,1,8-.73,9.75-7.8.15-.39.3-.38.44,0,2.57,7.16,6.81,8.73,9.79,7.79C147.46,168.9,151,163.64,150.71,156.93Z"/><polygon class="cls-2" points="6.17 38.73 6.17 14.67 8.35 14.67 8.35 38.73 6.17 38.73 6.17 38.73"/><path class="cls-2" d="M12.94,37.44a4.66,4.66,0,0,1-1.3-3.26h0V19.24A4.67,4.67,0,0,1,12.94,16h0A4.21,4.21,0,0,1,16,14.71h0A4.25,4.25,0,0,1,19,16h0a4.72,4.72,0,0,1,1.3,3.26h0V34.22A4.72,4.72,0,0,1,19,37.48h0A4.24,4.24,0,0,1,16,38.8h0a4.26,4.26,0,0,1-3.06-1.32Zm1.5-19.72a2.15,2.15,0,0,0-.62,1.52h0V34.18a2.15,2.15,0,0,0,.62,1.53h0a2.18,2.18,0,0,0,1.56.66h0a2.2,2.2,0,0,0,1.57-.66h0a2.15,2.15,0,0,0,.62-1.53h0V19.24a2.15,2.15,0,0,0-.62-1.52h0a2.15,2.15,0,0,0-1.63-.7h0a2.15,2.15,0,0,0-1.56.67Z"/><polygon class="cls-2" points="173.42 211.71 173.42 235.77 171.24 235.77 171.24 211.71 173.42 211.71 173.42 211.71"/><path class="cls-2" d="M166.67,213a4.6,4.6,0,0,1,1.3,3.26h0v14.94a4.6,4.6,0,0,1-1.3,3.26h0a4.26,4.26,0,0,1-3.06,1.32h0a4.24,4.24,0,0,1-3.07-1.32h0a4.72,4.72,0,0,1-1.3-3.26h0v-15a4.72,4.72,0,0,1,1.3-3.26h0a4.24,4.24,0,0,1,3.07-1.32h0a4.26,4.26,0,0,1,3.06,1.32Zm-1.49,19.72a2.11,2.11,0,0,0,.61-1.52h0v-15a2.2,2.2,0,0,0-.61-1.52h0a2.17,2.17,0,0,0-1.57-.67h0a2.17,2.17,0,0,0-1.57.67h0a2.17,2.17,0,0,0-.62,1.52h0v14.94a2.17,2.17,0,0,0,.62,1.52h0a2.17,2.17,0,0,0,1.57.67h0a2.17,2.17,0,0,0,1.57-.67Z"/></g></g></g></svg>