<svg xmlns="http://www.w3.org/2000/svg" viewBox="0 0 179.58 250.45"><defs><style>.cls-1{fill:#f4f4f2;stroke:#231f20;}.cls-2{fill:#e44145;}</style></defs><title>clubsAsset 8</title><g id="Layer_2" data-name="Layer 2"><g id="Layer_1-2" data-name="Layer 1"><g id="seven"><rect class="cls-1" x="0.5" y="0.5" width="178.58" height="249.45" rx="14.17" ry="14.17"/><path class="cls-2" d="M17.22,43.11c-1.25-.39-3.18.3-3.9,3.12-.06.16-.12.15-.17,0-1-2.87-2.73-3.49-3.92-3.12-1.76.57-3.19,2.67-3.06,5.36,0,4.68,4.23,7,7.06,11.52,2.83-4.48,7.07-6.83,7.08-11.54A5,5,0,0,0,17.22,43.11Z"/><path class="cls-2" d="M166.34,190.44c-2.83,4.48-7.07,6.83-7.08,11.54a4.93,4.93,0,0,0,3.08,5.34c1.25.39,3.19-.29,3.9-3.12.06-.16.12-.15.18,0,1,2.87,2.72,3.49,3.91,3.12,1.77-.57,3.2-2.67,3.07-5.36C173.36,197.28,169.17,194.92,166.34,190.44Z"/><path class="cls-2" d="M56.49,23.42c-3.12-1-8,.73-9.75,7.8-.15.39-.3.38-.44,0-2.57-7.16-6.81-8.73-9.79-7.79-4.41,1.42-8,6.68-7.65,13.39C29,48.53,39.43,54.43,46.5,65.63c7.08-11.2,17.68-17.08,17.7-28.84C64.82,30,61,24.81,56.49,23.42Z"/><path class="cls-2" d="M46.55,65.69v-.07l0,.07Z"/><path class="cls-2" d="M64.25,210.79c-.09-11.71-10.57-17.61-17.64-28.81-7.08,11.2-17.68,17.08-17.71,28.84-.61,6.78,3.19,12,7.72,13.36,3.12,1,8-.74,9.74-7.81.15-.38.31-.37.45,0,2.57,7.16,6.8,8.73,9.78,7.79C61,222.76,64.58,217.5,64.25,210.79Z"/><path class="cls-2" d="M46.56,181.91v0Z"/><path class="cls-2" d="M133,146.48a.22.22,0,0,1,0-.08l-.05.08Z"/><path class="cls-2" d="M143,104.21c-3.12-1-8,.73-9.75,7.8-.15.39-.3.38-.45,0-2.57-7.17-6.8-8.73-9.78-7.79-4.41,1.42-8,6.68-7.65,13.39.08,11.71,10.56,17.6,17.64,28.8,7.07-11.2,17.67-17.08,17.7-28.84C151.28,110.78,147.48,105.6,143,104.21Z"/><path class="cls-2" d="M133,65.69l0-.07-.05.07Z"/><path class="cls-2" d="M143,23.42c-3.12-1-8,.73-9.75,7.8-.15.39-.3.38-.45,0-2.57-7.16-6.8-8.73-9.78-7.79-4.41,1.42-8,6.68-7.65,13.39.08,11.71,10.56,17.61,17.64,28.81,7.07-11.2,17.67-17.08,17.7-28.84C151.28,30,147.48,24.81,143,23.42Z"/><path class="cls-2" d="M150.71,210.79c-.09-11.71-10.57-17.61-17.65-28.81-7.07,11.2-17.67,17.08-17.7,28.84-.61,6.78,3.18,12,7.72,13.36,3.11,1,8-.74,9.74-7.81.15-.38.31-.37.45,0,2.57,7.16,6.8,8.73,9.78,7.79C147.46,222.76,151,217.5,150.71,210.79Z"/><path class="cls-2" d="M133,181.91v0Z"/><path class="cls-2" d="M56.49,104.21c-3.12-1-8,.73-9.75,7.8-.15.39-.3.38-.44,0-2.57-7.17-6.81-8.73-9.79-7.79-4.41,1.42-8,6.68-7.65,13.39.09,11.71,10.57,17.6,17.64,28.8,7.08-11.2,17.68-17.08,17.7-28.84C64.82,110.78,61,105.6,56.49,104.21Z"/><path class="cls-2" d="M46.55,146.48v-.08l0,.08Z"/><path class="cls-2" d="M99.72,57.43c-3.12-1-8,.74-9.75,7.81-.15.39-.31.38-.45,0-2.57-7.16-6.8-8.72-9.78-7.79-4.41,1.43-8,6.69-7.65,13.39.08,11.72,10.56,17.61,17.64,28.81,7.08-11.2,17.67-17.08,17.7-28.84C108.09,64,104.25,58.83,99.72,57.43Z"/><path class="cls-2" d="M89.77,99.7v-.07l0,.07Z"/><path class="cls-2" d="M6.16,14.67v1.44h0v2.45H8.39V17.07h9.34A63.47,63.47,0,0,0,11,38.76H13.2a58.13,58.13,0,0,1,3.89-15.41c.82-1.89,1.57-3.37,2.13-4.38.27-.5.5-.88.65-1.13l.47-.77v-2.4Z"/><path class="cls-2" d="M173.4,235.77v-1.45h0v-2.45h-2.22v1.49h-9.35a63.64,63.64,0,0,0,6.77-21.69h-2.24a57.73,57.73,0,0,1-3.88,15.41c-.81,1.9-1.57,3.38-2.12,4.38-.28.5-.5.88-.66,1.13l-.47.77v2.41Z"/></g></g></g></svg>