<svg xmlns="http://www.w3.org/2000/svg" viewBox="0 0 179.58 250.45"><defs><style>.cls-1{fill:#f4f4f2;stroke:#231f20;}.cls-2{fill:#e44145;}</style></defs><title>clubsAsset 5</title><g id="Layer_2" data-name="Layer 2"><g id="Layer_1-2" data-name="Layer 1"><g id="four"><rect class="cls-1" x="0.5" y="0.5" width="178.58" height="249.45" rx="14.17" ry="14.17"/><path class="cls-2" d="M17.22,43.11c-1.24-.38-3.18.3-3.9,3.13,0,.15-.12.15-.17,0-1-2.86-2.72-3.49-3.92-3.12C7.47,43.69,6,45.8,6.17,48.48c0,4.68,4.23,7,7.06,11.52,2.83-4.52,7.09-6.84,7.09-11.52A5,5,0,0,0,17.22,43.11Z"/><path class="cls-2" d="M166.32,190.48c-2.83,4.48-7.07,6.83-7.08,11.53a4.93,4.93,0,0,0,3.09,5.35c1.24.38,3.18-.3,3.9-3.13.05-.15.12-.15.17,0,1,2.86,2.72,3.49,3.92,3.12,1.76-.57,3.19-2.68,3.06-5.36C173.32,197.29,169.17,194.93,166.32,190.48Z"/><path class="cls-2" d="M56.49,26.26c-3.12-1-8,.73-9.75,7.8-.14.39-.3.38-.44,0-2.57-7.16-6.8-8.73-9.78-7.79-4.41,1.42-8,6.68-7.66,13.39C29,51.37,39.43,57.27,46.5,68.46c7.08-11.19,17.68-17.07,17.71-28.84C64.82,32.83,61,27.65,56.49,26.26Z"/><path class="cls-2" d="M46.55,68.53l0-.08v.08Z"/><path class="cls-2" d="M64.25,210.79c-.09-11.71-10.57-17.6-17.64-28.8-7.08,11.2-17.68,17.08-17.71,28.84-.61,6.78,3.19,12,7.72,13.35,3.12,1,8-.73,9.75-7.8.15-.39.3-.38.44,0,2.57,7.17,6.81,8.73,9.78,7.79C61,222.76,64.58,217.48,64.25,210.79Z"/><path class="cls-2" d="M46.56,181.91V182a.22.22,0,0,1,0-.08Z"/><path class="cls-2" d="M133,65.69l0-.07v.07Z"/><path class="cls-2" d="M143,23.42c-3.12-1-8,.74-9.75,7.81-.15.38-.3.38-.44,0-2.57-7.16-6.81-8.72-9.79-7.79-4.41,1.42-8,6.68-7.65,13.39.08,11.71,10.56,17.61,17.64,28.81,7.08-11.2,17.67-17.08,17.7-28.84C151.32,30,147.48,24.82,143,23.42Z"/><path class="cls-2" d="M150.71,210.79c-.09-11.71-10.57-17.6-17.64-28.8-7.08,11.2-17.68,17.08-17.71,28.84-.61,6.78,3.18,12,7.72,13.35,3.12,1,8-.73,9.74-7.8.15-.39.31-.38.45,0,2.57,7.17,6.8,8.73,9.78,7.79C147.46,222.76,151,217.48,150.71,210.79Z"/><path class="cls-2" d="M133,181.91v0Z"/><path class="cls-2" d="M20.32,32.63v-2.4h-3V14.67H15L6.13,30.23v2.4h9v3.74H13.64v2.39h5.23V36.35H17.32V32.63ZM8.76,30.23,15.1,19.1V30.23Z"/><path class="cls-2" d="M159.23,217.81v2.39h3v15.57h2.31l8.88-15.57v-2.39h-9v-3.74h1.5v-2.39h-5.23v2.4h1.51v3.73Zm11.56,2.39-6.34,11.14V220.2Z"/></g></g></g></svg>