<svg xmlns="http://www.w3.org/2000/svg" viewBox="0 0 13.989 13.658">
  <defs>
    <style>
      .cls-1 {
        fill: #c5d1c5;
      }
    </style>
  </defs>
  <g id="language" transform="translate(0 0)">
    <path id="Path_336" data-name="Path 336" class="cls-1" d="M15.4,21.6v3.177a4.117,4.117,0,0,0,2.181-2.656A6.985,6.985,0,0,0,15.4,21.6Z" transform="translate(-8.097 -11.357)"/>
    <path id="Path_337" data-name="Path 337" class="cls-1" d="M18.2,14.8H15.4v2.466a6.945,6.945,0,0,1,2.419.569A12.08,12.08,0,0,0,18.2,14.8Z" transform="translate(-8.097 -7.781)"/>
    <path id="Path_338" data-name="Path 338" class="cls-1" d="M15.4,7.822V10.24h2.8a11.556,11.556,0,0,0-.474-2.94A6.618,6.618,0,0,1,15.4,7.822Z" transform="translate(-8.097 -3.838)"/>
    <path id="Path_339" data-name="Path 339" class="cls-1" d="M11.424,24.825V21.6a5.55,5.55,0,0,0-2.324.522A4.009,4.009,0,0,0,11.424,24.825Z" transform="translate(-4.785 -11.357)"/>
    <path id="Path_340" data-name="Path 340" class="cls-1" d="M7.8,10.293h2.94V7.922A6.444,6.444,0,0,1,8.227,7.4,13.253,13.253,0,0,0,7.8,10.293Z" transform="translate(-4.101 -3.891)"/>
    <path id="Path_341" data-name="Path 341" class="cls-1" d="M15.4.8V3.693a7.844,7.844,0,0,0,2.087-.474A3.89,3.89,0,0,0,15.4.8Z" transform="translate(-8.097 -0.421)"/>
    <path id="Path_342" data-name="Path 342" class="cls-1" d="M11.529,3.64V.7A3.775,3.775,0,0,0,9.3,3.166,7.2,7.2,0,0,0,11.529,3.64Z" transform="translate(-4.89 -0.368)"/>
    <path id="Path_343" data-name="Path 343" class="cls-1" d="M8.179,17.84a6.678,6.678,0,0,1,2.561-.522V14.9H7.8A11.6,11.6,0,0,0,8.179,17.84Z" transform="translate(-4.101 -7.834)"/>
    <path id="Path_344" data-name="Path 344" class="cls-1" d="M3.367,18.172A11.879,11.879,0,0,1,2.94,14.9H0a7.052,7.052,0,0,0,1.755,4.458A6.426,6.426,0,0,1,3.367,18.172Z" transform="translate(0 -7.834)"/>
    <path id="Path_345" data-name="Path 345" class="cls-1" d="M17.7,0a5.325,5.325,0,0,1,1.66,2.419,6.94,6.94,0,0,0,1.328-1A6.733,6.733,0,0,0,17.7,0Z" transform="translate(-9.306)"/>
    <path id="Path_346" data-name="Path 346" class="cls-1" d="M22.327,14.8a14.427,14.427,0,0,1-.427,3.32,7.313,7.313,0,0,1,1.707,1.28,7.062,7.062,0,0,0,1.9-4.6Z" transform="translate(-11.514 -7.781)"/>
    <path id="Path_347" data-name="Path 347" class="cls-1" d="M6.38,2.519A5.844,5.844,0,0,1,7.993.1,7.067,7.067,0,0,0,5.1,1.618,6.207,6.207,0,0,0,6.38,2.519Z" transform="translate(-2.681 -0.053)"/>
    <path id="Path_348" data-name="Path 348" class="cls-1" d="M21.7,5.286a13.5,13.5,0,0,1,.522,3.272h3.13A6.823,6.823,0,0,0,23.36,4.1,5.9,5.9,0,0,1,21.7,5.286Z" transform="translate(-11.409 -2.156)"/>
    <path id="Path_349" data-name="Path 349" class="cls-1" d="M2.94,8.715a13.892,13.892,0,0,1,.522-3.225A7.42,7.42,0,0,1,1.849,4.4,7.021,7.021,0,0,0,0,8.715Z" transform="translate(0 -2.313)"/>
    <path id="Path_350" data-name="Path 350" class="cls-1" d="M19.612,23.4A5.426,5.426,0,0,1,18,25.961a6.413,6.413,0,0,0,2.988-1.518A7.5,7.5,0,0,0,19.612,23.4Z" transform="translate(-9.464 -12.303)"/>
    <path id="Path_351" data-name="Path 351" class="cls-1" d="M6.128,23.3a6.94,6.94,0,0,0-1.328,1,6.63,6.63,0,0,0,2.893,1.565A6.379,6.379,0,0,1,6.128,23.3Z" transform="translate(-2.524 -12.251)"/>
  </g>
</svg>
