<svg xmlns="http://www.w3.org/2000/svg" viewBox="0 0 14.25 14.308">
  <defs>
    <style>
      .cls-1 {
        fill: #c5d1c5;
      }
    </style>
  </defs>
  <path id="my_account" data-name="my account" class="cls-1" d="M9.149,8.731A1.346,1.346,0,0,1,8.941,8a6.6,6.6,0,0,1,.52-1.924,1.165,1.165,0,0,0,.468-.468,1.309,1.309,0,0,0,.1-.832.29.29,0,0,1-.1-.312,7.425,7.425,0,0,0,.208-2.184A2.7,2.7,0,0,0,8,.1a4.136,4.136,0,0,0-2.652.26,2.325,2.325,0,0,0-1.3,2.08,11.566,11.566,0,0,0,.26,2.132s-.312.1-.208.624a1.253,1.253,0,0,0,.572.832A6.148,6.148,0,0,1,5.3,8.367c-.208.624-1.976,1.3-3.224,2.288C.412,11.539.1,14.3.1,14.3H14.349s-.208-2.444-1.2-3.484S9.409,9.459,9.149,8.731Z" transform="translate(-0.099 0.013)"/>
</svg>
