<svg xmlns="http://www.w3.org/2000/svg" viewBox="0 0 179.58 250.45"><defs><style>.cls-1{fill:#f4f4f2;}.cls-1,.cls-2,.cls-3{stroke:#231f20;}.cls-2,.cls-3{fill:#231f20;stroke-linejoin:round;}.cls-2{stroke-width:0.16px;}.cls-3{stroke-width:0.07px;}</style></defs><title>spadesAsset 2</title><g id="Layer_2" data-name="Layer 2"><g id="Layer_1-2" data-name="Layer 1"><g id="two"><rect class="cls-1" x="0.5" y="0.5" width="178.58" height="249.45" rx="14.17" ry="14.17"/><path class="cls-2" d="M89.76,26a2.82,2.82,0,0,0-.29.18C81.87,31,73,40.48,72.09,52.29c-.43,5.61,3.16,9.5,7.8,9.58,3,.06,5.34-1,6.63-3,1.07-1.67,1.34-4.24,1.52-3,.62,4.54-1.28,8.9-2.31,12.72a12.09,12.09,0,0,1,4-.63h0a12.09,12.09,0,0,1,4,.63c-1-3.82-2.93-8.18-2.31-12.72.18-1.19.45,1.38,1.52,3,1.29,2,3.67,3.07,6.63,3,4.64-.08,8.23-4,7.79-9.58-.8-11.81-9.67-21.25-17.27-26.1L89.81,26Z"/><path class="cls-2" d="M89.76,224.48a2.82,2.82,0,0,1-.29-.18C81.87,219.45,73,210,72.1,198.2c-.43-5.61,3.16-9.5,7.8-9.58,3-.05,5.34,1,6.63,3,1.07,1.67,1.34,4.24,1.52,3,.62-4.54-1.28-8.9-2.31-12.72a12.36,12.36,0,0,0,4,.64h0a12.36,12.36,0,0,0,4-.64c-1,3.82-2.93,8.18-2.31,12.72.18,1.19.45-1.38,1.52-3,1.29-2,3.67-3.06,6.63-3,4.64.08,8.23,4,7.79,9.58C106.47,210,97.6,219.45,90,224.3c-.09.07-.16.1-.28.18Z"/><path class="cls-3" d="M13.24,43l-.12.07c-3,1.94-6.58,5.72-6.94,10.44a3.28,3.28,0,0,0,2.68,3.79l.43,0A3,3,0,0,0,12,56.16c.42-.67.53-1.7.6-1.22.25,1.81-.51,3.56-.92,5.08a5.16,5.16,0,0,1,1.61-.25h0a4.88,4.88,0,0,1,1.61.25c-.41-1.52-1.17-3.27-.92-5.08.07-.48.18.55.61,1.22a3,3,0,0,0,2.65,1.2A3.29,3.29,0,0,0,20.35,54a3,3,0,0,0,0-.42C20,48.81,16.4,45,13.37,43.09L13.26,43Z"/><path class="cls-3" d="M166.31,207.48l-.12-.08c-3-1.94-6.58-5.72-6.94-10.44a3.28,3.28,0,0,1,2.68-3.79l.43,0a3,3,0,0,1,2.66,1.2c.42.67.53,1.7.6,1.23.25-1.82-.51-3.57-.92-5.09a5.22,5.22,0,0,0,1.62.25h0a5.22,5.22,0,0,0,1.62-.25c-.42,1.52-1.17,3.27-.93,5.09.07.47.18-.56.61-1.23a3,3,0,0,1,2.65-1.2,3.29,3.29,0,0,1,3.16,3.41,3,3,0,0,1,0,.42c-.36,4.72-3.91,8.5-6.94,10.44l-.11.08Z"/><path d="M20.33,35H18.09v1.49H8.52A4.21,4.21,0,0,1,9,35.24a14.74,14.74,0,0,1,2.39-3,44.21,44.21,0,0,1,3.42-3h0a44.49,44.49,0,0,0,3.62-3.1,7,7,0,0,0,1.24-1.76,6.22,6.22,0,0,0,.61-2.24,5.23,5.23,0,0,0,0-.56,7.89,7.89,0,0,0-.26-2,6.61,6.61,0,0,0-1.91-3.31,6.81,6.81,0,0,0-4.68-1.6,7,7,0,0,0-4,1.11,6.06,6.06,0,0,0-1.77,1.83,8.26,8.26,0,0,0-1.12,2.87,9.6,9.6,0,0,0-.18,1.69v.08l2-.06h.3a7,7,0,0,1,.67-2.85,4,4,0,0,1,1.37-1.61A4.8,4.8,0,0,1,13.41,17a5.17,5.17,0,0,1,2.42.51,3.67,3.67,0,0,1,1.72,1.88A5.44,5.44,0,0,1,18,21.53a1.93,1.93,0,0,1,0,.34,3.7,3.7,0,0,1-.38,1.42,6,6,0,0,1-1.49,1.8c-.71.64-1.65,1.36-2.76,2.28A38.19,38.19,0,0,0,8.7,31.69,12.79,12.79,0,0,0,7,34.05a5.75,5.75,0,0,0-.77,2.38h0v.14h0v2.18H20.39V35Z"/><path d="M159.24,215.48h2.27V214h9.58a4.13,4.13,0,0,1-.47,1.24,14.4,14.4,0,0,1-2.39,3,42.42,42.42,0,0,1-3.42,3h0a44.49,44.49,0,0,0-3.62,3.1,7.5,7.5,0,0,0-1.25,1.76,6.66,6.66,0,0,0-.61,2.24v.56a8.43,8.43,0,0,0,.25,2,6.49,6.49,0,0,0,1.94,3.29,6.76,6.76,0,0,0,4.68,1.6,7,7,0,0,0,4-1.11,6.18,6.18,0,0,0,1.77-1.83,8.44,8.44,0,0,0,1.12-2.89,9.71,9.71,0,0,0,.18-1.7v-.07l-2,.06H171a7.08,7.08,0,0,1-.66,2.86,4,4,0,0,1-1.37,1.61,4.8,4.8,0,0,1-2.73.73,5.24,5.24,0,0,1-2.43-.51,3.67,3.67,0,0,1-1.72-1.88,5.61,5.61,0,0,1-.44-2.14,1.93,1.93,0,0,1,0-.34,3.93,3.93,0,0,1,.37-1.42,6.16,6.16,0,0,1,1.49-1.8c.72-.64,1.66-1.36,2.77-2.28a38.19,38.19,0,0,0,4.67-4.32,14.12,14.12,0,0,0,1.71-2.35,5.93,5.93,0,0,0,.76-2.39h0v-.14h0v-2.23H159.23v3.8Z"/></g></g></g></svg>