<svg xmlns="http://www.w3.org/2000/svg" viewBox="0 0 179.58 250.45"><defs><style>.cls-1{fill:#f4f4f2;}.cls-1,.cls-3,.cls-4{stroke:#231f20;}.cls-2{fill:none;}.cls-3,.cls-4{fill:#231f20;stroke-linejoin:round;}.cls-3{stroke-width:0.07px;}.cls-4{stroke-width:0.16px;}</style></defs><title>spades Asset 6</title><g id="Layer_2" data-name="Layer 2"><g id="Layer_1-2" data-name="Layer 1"><g id="six"><rect class="cls-1" x="0.5" y="0.5" width="178.58" height="249.45" rx="14.17" ry="14.17"/><path class="cls-2" d="M15.36,24.27a4.48,4.48,0,0,0-2-.46h-.08a4.1,4.1,0,0,0-2,.51,4.51,4.51,0,0,0-1.5,1.35,8,8,0,0,0-1.3,4.64v.62h0a6.75,6.75,0,0,0,1.35,3.76,4.39,4.39,0,0,0,5.44,1.19,4.49,4.49,0,0,0,1.52-1.32A7.65,7.65,0,0,0,18.15,30a8.16,8.16,0,0,0-.76-3.57A4.66,4.66,0,0,0,15.36,24.27Z"/><path d="M18.48,24a6.28,6.28,0,0,0-5.17-2.58h-.08a6.28,6.28,0,0,0-3,.76,6.84,6.84,0,0,0-1.56,1.22,3.89,3.89,0,0,1,.13-.71c.13-.67.26-1.21.36-1.57.05-.18.09-.32.11-.41a.17.17,0,0,0,0-.1h0v-.06h0a5.79,5.79,0,0,1,.91-1.74,4.61,4.61,0,0,1,1.24-1.13,3.94,3.94,0,0,1,1.92-.57h.33a4.59,4.59,0,0,1,3,1,5.14,5.14,0,0,1,.66.66l.14.19h0l.54-.39,1.31-.9a6.21,6.21,0,0,0-1.39-1.55,6.7,6.7,0,0,0-4.24-1.44h-.44a6.16,6.16,0,0,0-2.94.92,7.23,7.23,0,0,0-2.44,2.65,7.89,7.89,0,0,0-.67,1.55A30,30,0,0,0,6,28.19a18.85,18.85,0,0,0,.13,2.67,9.39,9.39,0,0,0,1.9,5.44,6.43,6.43,0,0,0,5.06,2.48h0a6.15,6.15,0,0,0,3-.72,7.23,7.23,0,0,0,3.06-3.27A10.68,10.68,0,0,0,20.34,30,9.84,9.84,0,0,0,18.48,24ZM16.76,34.59a4.49,4.49,0,0,1-1.52,1.32A4.39,4.39,0,0,1,9.8,34.72a6.81,6.81,0,0,1-1.32-3.79h0v-.62a8,8,0,0,1,1.34-4.64,4.51,4.51,0,0,1,1.5-1.35,4.1,4.1,0,0,1,2-.51h.06a4.48,4.48,0,0,1,2,.46,4.68,4.68,0,0,1,2,2.15A8.16,8.16,0,0,1,18.14,30a7.6,7.6,0,0,1-1.35,4.57Z"/><path class="cls-2" d="M164.22,226.16a4.21,4.21,0,0,0,2,.47h.06a4.25,4.25,0,0,0,2-.51,4.62,4.62,0,0,0,1.49-1.36,8,8,0,0,0,1.35-4.64v-.61h0a6.67,6.67,0,0,0-1.35-3.76,4.32,4.32,0,0,0-3.44-1.67,4.11,4.11,0,0,0-2,.49,4.54,4.54,0,0,0-1.51,1.31,7.71,7.71,0,0,0-1.37,4.58,8.09,8.09,0,0,0,.76,3.56A4.68,4.68,0,0,0,164.22,226.16Z"/><path d="M161.06,226.45a6.66,6.66,0,0,0,2.23,1.89,6.39,6.39,0,0,0,2.94.69h.08a6.21,6.21,0,0,0,2.95-.77,6.84,6.84,0,0,0,1.56-1.22,3.19,3.19,0,0,1-.13.71c-.13.68-.26,1.21-.35,1.58l-.12.4v.1h0a5.74,5.74,0,0,1-.91,1.73,4.45,4.45,0,0,1-1.24,1.13,4.06,4.06,0,0,1-1.92.58h-.32a4.7,4.7,0,0,1-3-1,5.07,5.07,0,0,1-.66-.65l-.14-.2h0l-.54.39-1.3.89a5.88,5.88,0,0,0,1.39,1.55,6.65,6.65,0,0,0,4.24,1.45h.43a6.15,6.15,0,0,0,2.94-.91,7.06,7.06,0,0,0,2.44-2.65,7.89,7.89,0,0,0,.67-1.55,30.06,30.06,0,0,0,1.16-8.38,18.85,18.85,0,0,0-.13-2.67,9.26,9.26,0,0,0-1.9-5.43,6.42,6.42,0,0,0-5.06-2.49h0a6.31,6.31,0,0,0-3,.72,7.33,7.33,0,0,0-3.06,3.27,11,11,0,0,0-1.06,4.79A10,10,0,0,0,161.06,226.45Zm1.73-10.58a4.54,4.54,0,0,1,1.51-1.31,4.11,4.11,0,0,1,2-.49,4.32,4.32,0,0,1,3.44,1.67,6.67,6.67,0,0,1,1.35,3.76h0v.61a8,8,0,0,1-1.35,4.64,4.62,4.62,0,0,1-1.49,1.36,4.25,4.25,0,0,1-2,.51h-.06a4.21,4.21,0,0,1-2-.47,4.68,4.68,0,0,1-2-2.15,8.09,8.09,0,0,1-.76-3.56A7.68,7.68,0,0,1,162.79,215.87Z"/><path class="cls-3" d="M13.24,43l-.12.08c-3,1.94-6.58,5.72-6.94,10.44a3.29,3.29,0,0,0,2.7,3.79l.42,0A3,3,0,0,0,12,56.17c.43-.67.54-1.7.61-1.23.25,1.82-.51,3.57-.93,5.09a5.22,5.22,0,0,1,1.62-.25h0a5.16,5.16,0,0,1,1.61.25c-.41-1.52-1.17-3.27-.92-5.09.07-.47.18.56.6,1.23a3,3,0,0,0,2.66,1.2A3.28,3.28,0,0,0,20.35,54a3.13,3.13,0,0,0,0-.43C20,48.82,16.41,45,13.37,43.1L13.26,43Z"/><path class="cls-3" d="M166.31,207.42l-.11-.07c-3-1.94-6.59-5.73-6.95-10.44a3.3,3.3,0,0,1,2.71-3.8l.41,0a2.91,2.91,0,0,1,2.65,1.21c.43.67.54,1.7.61,1.22.25-1.82-.51-3.56-.92-5.09a4.64,4.64,0,0,0,1.61.25h0a4.88,4.88,0,0,0,1.61-.25c-.41,1.53-1.17,3.27-.92,5.09.07.48.18-.55.6-1.22a2.93,2.93,0,0,1,2.66-1.21,3.28,3.28,0,0,1,3.15,3.42,3,3,0,0,1,0,.42c-.36,4.71-3.9,8.5-6.94,10.44l-.11.07Z"/><path class="cls-4" d="M46.53,26l-.29.18c-7.59,4.85-16.45,14.31-17.36,26.1-.44,5.61,3.15,9.5,7.79,9.58,3,0,5.34-1,6.63-3,1.08-1.67,1.35-4.25,1.52-3,.63,4.54-1.28,8.9-2.3,12.72a12.36,12.36,0,0,1,4-.64h0a12.36,12.36,0,0,1,4,.64c-1-3.82-2.93-8.18-2.3-12.72.17-1.2.44,1.38,1.51,3,1.29,2,3.67,3.06,6.64,3,4.63-.08,8.22-4,7.79-9.58C63.33,40.5,54.48,31,46.88,26.19a2.11,2.11,0,0,0-.27-.18Z"/><path class="cls-4" d="M133,26l-.29.18c-7.6,4.85-16.46,14.31-17.37,26.1-.43,5.61,3.16,9.49,7.8,9.58,3,0,5.34-1,6.63-3,1.07-1.67,1.34-4.25,1.52-3,.62,4.54-1.28,8.9-2.31,12.71a12.63,12.63,0,0,1,4-.63h0a12.63,12.63,0,0,1,4,.63c-1-3.81-2.93-8.17-2.31-12.71.18-1.2.45,1.38,1.52,3,1.29,2,3.67,3.06,6.63,3,4.64-.09,8.23-4,7.8-9.58-.91-11.79-9.77-21.25-17.36-26.1-.09-.07-.16-.1-.28-.18Z"/><path class="cls-4" d="M46.54,104l-.3.18c-7.59,4.85-16.45,14.31-17.36,26.1-.44,5.61,3.15,9.49,7.79,9.58,3,.05,5.34-1,6.63-3,1.08-1.67,1.35-4.25,1.52-3.06.63,4.55-1.28,8.91-2.3,12.73a12.36,12.36,0,0,1,4-.64h0a12.36,12.36,0,0,1,4,.64c-1-3.82-2.93-8.18-2.3-12.73.17-1.19.44,1.39,1.51,3.06,1.29,2,3.67,3.06,6.64,3,4.63-.09,8.22-4,7.79-9.58-.83-11.79-9.68-21.22-17.28-26.1l-.27-.18Z"/><path class="cls-4" d="M133,104l-.29.18c-7.6,4.85-16.46,14.31-17.37,26.1-.43,5.61,3.16,9.49,7.8,9.58,3,.05,5.34-1,6.63-3,1.07-1.67,1.34-4.25,1.52-3.06.62,4.55-1.28,8.91-2.31,12.73a12.36,12.36,0,0,1,4-.64h0a12.36,12.36,0,0,1,4,.64c-1-3.82-2.93-8.18-2.31-12.73.18-1.19.45,1.39,1.52,3.06,1.29,2,3.67,3.06,6.63,3,4.64-.09,8.23-4,7.8-9.58-.91-11.79-9.77-21.25-17.36-26.1L133,104Z"/><path class="cls-4" d="M46.53,224.43l-.29-.18c-7.59-4.85-16.45-14.31-17.36-26.11-.44-5.61,3.15-9.49,7.79-9.58,3-.05,5.34,1,6.63,3,1.07,1.67,1.35,4.25,1.52,3.06.63-4.54-1.28-8.91-2.3-12.72a12.35,12.35,0,0,0,4,.63h0a12.35,12.35,0,0,0,4-.63c-1,3.81-2.93,8.18-2.3,12.72.17,1.19.44-1.39,1.51-3.06,1.29-2,3.67-3.06,6.64-3,4.63.09,8.22,4,7.79,9.58-.91,11.8-9.77,21.26-17.36,26.11Z"/><path class="cls-4" d="M133,224.43l-.29-.18c-7.6-4.85-16.46-14.31-17.37-26.11-.43-5.61,3.16-9.49,7.8-9.58,3-.05,5.34,1,6.63,3,1.07,1.67,1.34,4.25,1.52,3.06.62-4.54-1.28-8.91-2.31-12.72a12.35,12.35,0,0,0,4,.63h0a12.35,12.35,0,0,0,4-.63c-1,3.81-2.93,8.18-2.31,12.72.18,1.19.45-1.39,1.52-3.06,1.29-2,3.67-3.06,6.63-3,4.64.09,8.23,4,7.8,9.58-.91,11.8-9.77,21.26-17.36,26.11l-.28.18Z"/></g></g></g></svg>