<svg xmlns="http://www.w3.org/2000/svg" viewBox="0 0 179.58 250.44"><defs><style>.cls-1{fill:#f4f4f2;}.cls-1,.cls-3,.cls-4{stroke:#231f20;}.cls-2{fill:none;}.cls-3,.cls-4{fill:#231f20;stroke-linejoin:round;}.cls-3{stroke-width:0.07px;}.cls-4{stroke-width:0.16px;}</style></defs><title>spades Asset 8</title><g id="Layer_2" data-name="Layer 2"><g id="Layer_1-2" data-name="Layer 1"><rect class="cls-1" x="0.5" y="0.5" width="178.58" height="249.44" rx="14.17" ry="14.17"/><path class="cls-2" d="M13.25,27.11h0a4.84,4.84,0,0,0-3.41,1.38,4.39,4.39,0,0,0-.14,6.22l.14.14a4.92,4.92,0,0,0,6.83,0,4.41,4.41,0,0,0,.11-6.25l-.11-.11A4.86,4.86,0,0,0,13.25,27.11Z"/><path class="cls-2" d="M13.25,24.55a4.08,4.08,0,0,0,2.83-1.14,3.6,3.6,0,0,0,.11-5.1,1.14,1.14,0,0,0-.11-.11,4.08,4.08,0,0,0-2.83-1.14h0a4,4,0,0,0-2.82,1.14,3.6,3.6,0,0,0-.11,5.1l.11.11A4,4,0,0,0,13.25,24.55Z"/><path d="M18.22,26.61a7.3,7.3,0,0,0-1.22-1,6,6,0,0,0,.54-.46,6.13,6.13,0,1,0-8.67-.1l.1.1a6,6,0,0,0,.54.46,7.08,7.08,0,1,0,9.74,2.3A7.18,7.18,0,0,0,18.22,26.61ZM10.43,18.2a4,4,0,0,1,2.82-1.14h0a4.08,4.08,0,0,1,2.83,1.14,3.6,3.6,0,0,1,.11,5.1,1.14,1.14,0,0,1-.11.11,4.08,4.08,0,0,1-2.83,1.14,4,4,0,0,1-2.82-1.14,3.6,3.6,0,0,1-.11-5.1Zm6.28,16.65a4.92,4.92,0,0,1-6.83,0,4.39,4.39,0,0,1-.14-6.22l.14-.14a4.84,4.84,0,0,1,3.41-1.38h0a4.84,4.84,0,0,1,3.42,1.38,4.41,4.41,0,0,1,.11,6.25l-.11.11Z"/><path class="cls-2" d="M166.32,223.32h0a4.84,4.84,0,0,0,3.41-1.38,4.42,4.42,0,0,0,.11-6.24l-.11-.11a4.92,4.92,0,0,0-6.83,0,4.39,4.39,0,0,0-.14,6.21l.14.14A4.8,4.8,0,0,0,166.32,223.32Z"/><path class="cls-2" d="M166.32,225.88A4,4,0,0,0,163.5,227a3.61,3.61,0,0,0,0,5.21,4,4,0,0,0,2.82,1.15h0a4,4,0,0,0,2.82-1.15,3.6,3.6,0,0,0,1.11-2.6,3.64,3.64,0,0,0-1.11-2.61A4,4,0,0,0,166.32,225.88Z"/><path d="M161.36,223.83a7.3,7.3,0,0,0,1.22,1,6.13,6.13,0,1,0,7.2,9.92,6.61,6.61,0,0,0,.8-.69,6.16,6.16,0,0,0,0-8.71l0,0a6.06,6.06,0,0,0-.54-.47,7.3,7.3,0,0,0,1.22-1,7.09,7.09,0,1,0-10-.1l.1.1Zm7.79,8.4a4,4,0,0,1-2.82,1.15h0a4,4,0,0,1-2.82-1.15,3.61,3.61,0,0,1,0-5.21,4.07,4.07,0,0,1,5.65,0,3.6,3.6,0,0,1,0,5.21Zm-6.24-16.64a4.92,4.92,0,0,1,6.83,0,4.42,4.42,0,0,1,.11,6.24l-.11.11a4.84,4.84,0,0,1-3.41,1.38h0a4.84,4.84,0,0,1-3.41-1.38,4.39,4.39,0,0,1-.14-6.21l.14-.14Z"/><path class="cls-3" d="M13.24,43l-.11.07c-3,1.94-6.59,5.72-7,10.44a3.29,3.29,0,0,0,2.7,3.79l.42,0A3,3,0,0,0,12,56.16c.43-.67.54-1.7.61-1.22.25,1.81-.51,3.56-.92,5.08a4.88,4.88,0,0,1,1.61-.25h0a5.16,5.16,0,0,1,1.61.25c-.41-1.52-1.17-3.27-.92-5.08.07-.48.18.55.6,1.22a3,3,0,0,0,2.66,1.2A3.29,3.29,0,0,0,20.36,54a3,3,0,0,0,0-.42c-.37-4.72-3.91-8.5-7-10.44a.41.41,0,0,0-.11-.07Z"/><path class="cls-3" d="M166.32,207.42l-.12-.07c-3-1.94-6.59-5.73-7-10.45a3.29,3.29,0,0,1,2.7-3.79l.42,0a2.91,2.91,0,0,1,2.65,1.21c.43.66.54,1.7.61,1.22.25-1.82-.51-3.56-.92-5.09a4.64,4.64,0,0,0,1.61.25h0a4.64,4.64,0,0,0,1.61-.25c-.41,1.53-1.17,3.27-.92,5.09.07.48.18-.56.61-1.22a2.9,2.9,0,0,1,2.65-1.21,3.3,3.3,0,0,1,3.16,3.43c0,.14,0,.27,0,.4-.37,4.72-3.91,8.51-7,10.45l-.11.07Z"/><path class="cls-4" d="M46.54,26l-.3.18c-7.59,4.85-16.45,14.31-17.36,26.1-.43,5.61,3.15,9.5,7.79,9.58,3,0,5.34-1,6.63-3,1.08-1.67,1.35-4.25,1.52-3,.63,4.54-1.27,8.9-2.3,12.72a12.36,12.36,0,0,1,4-.64h0a12.36,12.36,0,0,1,4,.64c-1-3.82-2.92-8.18-2.3-12.72.17-1.2.45,1.38,1.52,3,1.29,2,3.67,3.06,6.63,3,4.64-.08,8.22-4,7.79-9.58-.91-11.79-9.77-21.25-17.36-26.1L46.53,26Z"/><path class="cls-4" d="M133,26l-.29.18c-7.6,4.85-16.45,14.31-17.36,26.1-.44,5.61,3.15,9.5,7.79,9.58,3,0,5.34-1,6.63-3,1.07-1.67,1.35-4.25,1.52-3,.63,4.54-1.28,8.9-2.3,12.72a12.36,12.36,0,0,1,4-.64h0a12.36,12.36,0,0,1,4,.64c-1-3.82-2.93-8.18-2.3-12.72.17-1.2.44,1.38,1.51,3,1.29,2,3.67,3.06,6.64,3,4.63-.08,8.22-4,7.79-9.58-.91-11.79-9.77-21.25-17.36-26.1L133,26Z"/><path class="cls-4" d="M89.76,67.11l-.29.18C81.88,72.14,73,81.6,72.11,93.39c-.43,5.61,3.15,9.5,7.79,9.58,3,.06,5.34-1,6.63-3,1.07-1.68,1.35-4.25,1.52-3.06.63,4.54-1.28,8.9-2.3,12.72a11.83,11.83,0,0,1,4-.63h0a12.09,12.09,0,0,1,4,.63c-1-3.82-2.93-8.18-2.3-12.72.17-1.19.44,1.38,1.51,3.06,1.29,2,3.68,3.06,6.64,3,4.64-.08,8.22-4,7.79-9.58C106.48,81.6,97.62,72.14,90,67.29l-.27-.18Z"/><path class="cls-4" d="M46.54,104l-.3.18c-7.59,4.85-16.45,14.31-17.36,26.1-.43,5.61,3.15,9.49,7.79,9.58,3,.05,5.34-1,6.63-3,1.08-1.67,1.35-4.25,1.52-3.06.63,4.55-1.27,8.91-2.3,12.73a12.36,12.36,0,0,1,4-.64h0a12.36,12.36,0,0,1,4,.64c-1-3.82-2.92-8.18-2.3-12.73.17-1.19.45,1.39,1.52,3.06,1.29,2,3.67,3.06,6.63,3,4.64-.09,8.22-4,7.79-9.58-.91-11.79-9.77-21.25-17.36-26.1l-.27-.18Z"/><path class="cls-4" d="M130.16,104c-.1.07-.18.1-.29.18-7.6,4.85-16.46,14.31-17.37,26.1-.43,5.61,3.16,9.49,7.79,9.58,3,.05,5.35-1,6.64-3,1.07-1.67,1.34-4.25,1.52-3.06.62,4.55-1.28,8.91-2.31,12.72a12.63,12.63,0,0,1,4-.63h0a12.63,12.63,0,0,1,4,.63c-1-3.81-2.93-8.17-2.31-12.72.17-1.19.45,1.39,1.52,3.06,1.29,2,3.67,3.06,6.63,3,4.64-.09,8.23-4,7.79-9.58-.91-11.79-9.77-21.25-17.36-26.1l-.27-.18Z"/><path class="cls-4" d="M89.76,183.32l-.29-.18C81.87,178.29,73,168.83,72.11,157c-.44-5.61,3.15-9.49,7.79-9.58,3-.05,5.34,1,6.63,3,1.07,1.67,1.35,4.25,1.52,3.06.63-4.55-1.28-8.91-2.3-12.72a12.63,12.63,0,0,0,4,.63h0a12.63,12.63,0,0,0,4-.63c-1,3.81-2.93,8.17-2.3,12.72.17,1.19.44-1.39,1.51-3.06,1.29-2,3.68-3.06,6.64-3,4.64.09,8.22,4,7.79,9.58-.91,11.79-9.77,21.25-17.36,26.1-.08.07-.16.1-.27.18Z"/><path class="cls-4" d="M46.53,224.43l-.29-.18c-7.59-4.85-16.45-14.31-17.36-26.11-.43-5.61,3.15-9.49,7.79-9.58,3-.05,5.34,1,6.63,3,1.07,1.67,1.35,4.25,1.52,3.06.63-4.54-1.27-8.91-2.3-12.72a12.63,12.63,0,0,0,4,.63h0a12.63,12.63,0,0,0,4-.63c-1,3.81-2.92,8.18-2.3,12.72.17,1.19.45-1.39,1.52-3.06,1.29-2,3.67-3.06,6.63-3,4.64.09,8.22,4,7.79,9.58-.91,11.8-9.77,21.26-17.36,26.11l-.27.18Z"/><path class="cls-4" d="M133,224.43l-.29-.18c-7.6-4.85-16.45-14.31-17.36-26.11-.44-5.61,3.15-9.49,7.79-9.58,3-.05,5.34,1,6.63,3,1.07,1.67,1.35,4.25,1.52,3.06.63-4.54-1.28-8.91-2.3-12.72a12.63,12.63,0,0,0,4,.63h0a12.63,12.63,0,0,0,4-.63c-1,3.81-2.93,8.18-2.3,12.72.17,1.19.44-1.39,1.51-3.06,1.29-2,3.67-3.06,6.64-3,4.63.09,8.22,4,7.79,9.58-.91,11.8-9.77,21.26-17.36,26.11l-.27.18Z"/></g></g></svg>