<svg xmlns="http://www.w3.org/2000/svg" viewBox="0 0 179.58 250.44"><defs><style>.cls-1{fill:#f4f4f2;}.cls-1,.cls-2,.cls-3{stroke:#231f20;}.cls-2,.cls-3{fill:#231f20;stroke-linejoin:round;}.cls-2{stroke-width:0.07px;}.cls-3{stroke-width:0.16px;}</style></defs><title>spades Asset 7</title><g id="Layer_2" data-name="Layer 2"><g id="Layer_1-2" data-name="Layer 1"><g id="seven"><rect class="cls-1" x="0.5" y="0.5" width="178.58" height="249.44" rx="14.17" ry="14.17"/><path d="M6.16,14.67v1.44h0v2.45H8.39V17.07h9.35A63.71,63.71,0,0,0,11,38.76h2.24a58.12,58.12,0,0,1,3.88-15.41c.82-1.89,1.57-3.37,2.13-4.37.27-.5.5-.89.65-1.14l.47-.77v-2.4Z"/><path d="M173.4,235.77v-1.45h0v-2.45h-2.22v1.49h-9.35a63.64,63.64,0,0,0,6.77-21.69h-2.24a57.73,57.73,0,0,1-3.88,15.41c-.81,1.89-1.57,3.37-2.12,4.38-.28.5-.5.88-.66,1.13l-.47.77v2.41Z"/><path class="cls-2" d="M13.24,43l-.12.08c-3,1.94-6.58,5.72-6.95,10.44a3.29,3.29,0,0,0,2.7,3.79l.42,0a2.93,2.93,0,0,0,2.65-1.2c.43-.67.54-1.7.61-1.23.25,1.82-.51,3.57-.92,5.09a5.16,5.16,0,0,1,1.61-.25h0a4.88,4.88,0,0,1,1.61.25c-.41-1.52-1.17-3.27-.92-5.09.07-.47.18.56.61,1.23a2.93,2.93,0,0,0,2.65,1.2A3.29,3.29,0,0,0,20.35,54a3,3,0,0,0,0-.42C20,48.82,16.4,45,13.37,43.1L13.26,43Z"/><path class="cls-2" d="M166.31,207.42l-.12-.07c-3-1.94-6.58-5.73-7-10.45a3.3,3.3,0,0,1,2.72-3.79l.4,0a3,3,0,0,1,2.66,1.2c.42.67.53,1.7.6,1.23.25-1.82-.51-3.56-.92-5.09a4.69,4.69,0,0,0,1.62.25h0a4.64,4.64,0,0,0,1.61-.25c-.41,1.53-1.17,3.27-.92,5.09.07.47.18-.56.61-1.23a3,3,0,0,1,2.65-1.2,3.29,3.29,0,0,1,3.16,3.41,3,3,0,0,1,0,.42c-.36,4.72-3.91,8.51-6.94,10.45l-.11.07Z"/><path class="cls-3" d="M46.53,26l-.29.18c-7.6,4.85-16.46,14.31-17.37,26.1-.43,5.61,3.16,9.5,7.8,9.58,3,0,5.34-1,6.63-3,1.07-1.67,1.34-4.24,1.52-3,.62,4.54-1.28,8.9-2.31,12.72a12.36,12.36,0,0,1,4-.64h0a12.36,12.36,0,0,1,4,.64c-1-3.82-2.93-8.18-2.31-12.72.18-1.19.45,1.38,1.52,3,1.29,2,3.67,3.06,6.63,3,4.64-.08,8.23-4,7.8-9.58-.91-11.79-9.77-21.25-17.36-26.1L46.51,26Z"/><path class="cls-3" d="M133,26l-.3.18c-7.59,4.85-16.45,14.31-17.36,26.1-.43,5.61,3.16,9.5,7.79,9.58,3,0,5.35-1,6.63-3,1.08-1.67,1.35-4.24,1.52-3,.63,4.54-1.27,8.9-2.3,12.72a12.36,12.36,0,0,1,4-.64h0a12.36,12.36,0,0,1,4,.64c-1-3.82-2.92-8.18-2.3-12.72.17-1.19.45,1.38,1.52,3,1.29,2,3.67,3.06,6.63,3,4.64-.08,8.22-4,7.79-9.58-.91-11.79-9.77-21.25-17.36-26.1l-.16-.18Z"/><path class="cls-3" d="M89.76,57.19a2.82,2.82,0,0,0-.29.18C81.87,62.22,73,71.68,72.1,83.47c-.43,5.61,3.16,9.5,7.8,9.58,3,.06,5.34-1,6.63-3,1.07-1.67,1.34-4.24,1.52-3,.62,4.54-1.28,8.9-2.31,12.72a12.09,12.09,0,0,1,4-.63h0a11.83,11.83,0,0,1,4,.63c-1-3.82-2.92-8.18-2.3-12.72.18-1.19.45,1.38,1.52,3,1.29,2,3.67,3.07,6.63,3,4.64-.08,8.23-4,7.79-9.58-.9-11.79-9.77-21.25-17.35-26.1l-.28-.18Z"/><path class="cls-3" d="M46.53,104l-.29.18c-7.6,4.85-16.46,14.31-17.37,26.1-.43,5.61,3.16,9.49,7.8,9.58,3,.05,5.34-1,6.63-3,1.07-1.67,1.34-4.25,1.52-3.06.62,4.54-1.28,8.91-2.31,12.72a12.63,12.63,0,0,1,4-.63h0a12.63,12.63,0,0,1,4,.63c-1-3.81-2.93-8.18-2.31-12.72.18-1.19.45,1.39,1.52,3.06,1.29,2,3.67,3.06,6.63,3,4.64-.09,8.23-4,7.8-9.58-.91-11.79-9.77-21.25-17.36-26.1l-.28-.18Z"/><path class="cls-3" d="M133,104l-.3.18c-7.59,4.85-16.45,14.31-17.36,26.1-.43,5.61,3.16,9.49,7.79,9.58,3,.05,5.35-1,6.63-3,1.08-1.67,1.35-4.25,1.52-3.06.63,4.54-1.27,8.91-2.3,12.72a12.63,12.63,0,0,1,4-.63h0a12.63,12.63,0,0,1,4,.63c-1-3.81-2.92-8.18-2.3-12.72.17-1.19.45,1.39,1.52,3.06,1.29,2,3.67,3.06,6.63,3,4.64-.09,8.22-4,7.79-9.58-.91-11.79-9.77-21.25-17.36-26.1L133,104Z"/><path class="cls-3" d="M46.53,224.43l-.29-.18c-7.6-4.85-16.46-14.31-17.37-26.11-.43-5.61,3.16-9.49,7.8-9.58,3-.05,5.34,1,6.63,3,1.07,1.67,1.34,4.25,1.52,3.06.62-4.54-1.28-8.91-2.31-12.72a12.63,12.63,0,0,0,4,.63h0a12.63,12.63,0,0,0,4-.63c-1,3.81-2.93,8.18-2.31,12.72.18,1.19.45-1.39,1.52-3.06,1.29-2,3.67-3.06,6.63-3,4.64.09,8.23,4,7.8,9.58-.91,11.8-9.77,21.26-17.36,26.11l-.28.18Z"/><path class="cls-3" d="M133,224.43l-.3-.18c-7.59-4.85-16.45-14.31-17.36-26.11-.43-5.61,3.16-9.49,7.79-9.58,3-.05,5.35,1,6.63,3,1.08,1.67,1.35,4.25,1.52,3.06.63-4.54-1.27-8.91-2.3-12.72a12.63,12.63,0,0,0,4,.63h0a12.63,12.63,0,0,0,4-.63c-1,3.81-2.93,8.18-2.31,12.72.17,1.19.45-1.39,1.52-3.06,1.29-2,3.67-3.06,6.63-3,4.64.09,8.22,4,7.79,9.58-.91,11.8-9.77,21.26-17.36,26.11l-.27.18Z"/></g></g></g></svg>