<svg xmlns="http://www.w3.org/2000/svg" viewBox="0 0 179.58 250.44"><defs><style>.cls-1{fill:#f4f4f2;}.cls-1,.cls-3,.cls-4{stroke:#231f20;}.cls-2{fill:none;}.cls-3,.cls-4{fill:#231f20;stroke-linejoin:round;}.cls-3{stroke-width:0.07px;}.cls-4{stroke-width:0.16px;}</style></defs><title>spades Asset 9</title><g id="Layer_2" data-name="Layer 2"><g id="Layer_1-2" data-name="Layer 1"><g id="nine"><rect class="cls-1" x="0.5" y="0.5" width="178.58" height="249.44" rx="14.17" ry="14.17"/><path class="cls-2" d="M13.32,17a4.11,4.11,0,0,0-2,.46,4.31,4.31,0,0,0-1.49,1.26,7.23,7.23,0,0,0-1.34,4.38,7.45,7.45,0,0,0,.75,3.41,4.48,4.48,0,0,0,2,2.06,4.34,4.34,0,0,0,2,.45h.08a4.15,4.15,0,0,0,1.95-.49,4.47,4.47,0,0,0,1.47-1.3,7.48,7.48,0,0,0,1.32-4.44,6.53,6.53,0,0,0-1.35-4.19A4.22,4.22,0,0,0,13.32,17Z"/><path d="M20.14,22a8.68,8.68,0,0,0-1.86-5,6.35,6.35,0,0,0-5-2.38h0a6.23,6.23,0,0,0-2.9.69,7,7,0,0,0-3,3.13,10.37,10.37,0,0,0-1,4.58,9.31,9.31,0,0,0,1.8,5.74,6.44,6.44,0,0,0,2.19,1.82,6.57,6.57,0,0,0,2.89.65h.06a6.12,6.12,0,0,0,2.9-.73A6.54,6.54,0,0,0,18.12,29a12.47,12.47,0,0,1-1.06,4.93,4.39,4.39,0,0,1-1.54,1.77,4.83,4.83,0,0,1-2.75.72,4.52,4.52,0,0,1-2.16-.51,5.09,5.09,0,0,1-1.85-1.75,6.79,6.79,0,0,1-.41-.75l-.09-.22h0l-2,.79a8.15,8.15,0,0,0,1.43,2.43,7.06,7.06,0,0,0,2,1.65,6.62,6.62,0,0,0,3.12.75h0a7.05,7.05,0,0,0,3.87-1,6.58,6.58,0,0,0,1.89-1.9A10.38,10.38,0,0,0,20,32.26a20.46,20.46,0,0,0,.38-3.41v-2C20.32,24.43,20.17,22.38,20.14,22ZM16.7,27.18a4.47,4.47,0,0,1-1.47,1.3,4.13,4.13,0,0,1-1.91.54h-.05a4.34,4.34,0,0,1-2-.45,4.48,4.48,0,0,1-2-2.06,7.45,7.45,0,0,1-.75-3.41,7.23,7.23,0,0,1,1.34-4.38,4.31,4.31,0,0,1,1.49-1.26,4.11,4.11,0,0,1,2-.46,4.24,4.24,0,0,1,3.38,1.6,6.53,6.53,0,0,1,1.35,4.19A7.42,7.42,0,0,1,16.7,27.2Z"/><path class="cls-2" d="M166.32,233.47a4.35,4.35,0,0,0,2-.46,4.55,4.55,0,0,0,1.49-1.27,7.2,7.2,0,0,0,1.34-4.37,7.65,7.65,0,0,0-.75-3.42,4.28,4.28,0,0,0-4-2.5h0a4.09,4.09,0,0,0-2,.49,4.44,4.44,0,0,0-1.47,1.29,7.48,7.48,0,0,0-1.32,4.44,6.56,6.56,0,0,0,1.35,4.2A4.26,4.26,0,0,0,166.32,233.47Z"/><path d="M159.43,228.39a8.68,8.68,0,0,0,1.86,5,6.39,6.39,0,0,0,5,2.38h0a6.36,6.36,0,0,0,2.9-.7,7.07,7.07,0,0,0,3-3.12,10.37,10.37,0,0,0,1-4.58,9.36,9.36,0,0,0-1.8-5.75,6.28,6.28,0,0,0-5.08-2.47h0a6.13,6.13,0,0,0-2.9.74,6.81,6.81,0,0,0-1.9,1.56,12.47,12.47,0,0,1,1.06-4.93,4.39,4.39,0,0,1,1.54-1.77,5,5,0,0,1,2.75-.72,4.5,4.5,0,0,1,2.16.52,5.06,5.06,0,0,1,1.84,1.75,5.52,5.52,0,0,1,.42.75l.09.21h0l2-.79a8.23,8.23,0,0,0-1.43-2.42,6.92,6.92,0,0,0-2-1.65,6.51,6.51,0,0,0-3.12-.76h0A6.87,6.87,0,0,0,163,212.7a6.23,6.23,0,0,0-1.89,1.9,10.25,10.25,0,0,0-1.4,3.54,20.46,20.46,0,0,0-.38,3.41v2A45.87,45.87,0,0,0,159.43,228.39Zm3.44-5.16a4.44,4.44,0,0,1,1.47-1.29,4.09,4.09,0,0,1,2-.49h0a4.28,4.28,0,0,1,4,2.5,7.65,7.65,0,0,1,.75,3.42,7.2,7.2,0,0,1-1.34,4.37,4.55,4.55,0,0,1-1.49,1.27,4.38,4.38,0,0,1-5.34-1.14,6.56,6.56,0,0,1-1.35-4.2A7.48,7.48,0,0,1,162.87,223.23Z"/><path class="cls-3" d="M13.24,43l-.12.08c-3,1.94-6.58,5.72-6.94,10.44a3.28,3.28,0,0,0,2.68,3.79l.43,0A3,3,0,0,0,12,56.17c.43-.67.54-1.7.6-1.23.25,1.82-.51,3.57-.92,5.09a5.22,5.22,0,0,1,1.62-.25h0a5.16,5.16,0,0,1,1.61.25c-.42-1.52-1.17-3.27-.93-5.09.07-.47.18.56.61,1.23a3,3,0,0,0,2.65,1.2A3.29,3.29,0,0,0,20.35,54a3,3,0,0,0,0-.42C20,48.82,16.4,45,13.37,43.1l0-.08Z"/><path class="cls-3" d="M166.32,207.42l-.12-.07c-3-1.94-6.58-5.73-6.94-10.45a3.29,3.29,0,0,1,2.7-3.79l.42,0a2.91,2.91,0,0,1,2.65,1.21c.43.66.54,1.7.61,1.22.25-1.82-.52-3.56-.93-5.09a4.69,4.69,0,0,0,1.62.25h0a4.88,4.88,0,0,0,1.61-.25c-.41,1.53-1.17,3.27-.92,5.09.06.48.17-.56.6-1.22a2.91,2.91,0,0,1,2.65-1.21,3.29,3.29,0,0,1,3.16,3.41,3,3,0,0,1,0,.42c-.36,4.72-3.9,8.51-6.94,10.45l-.11.07Z"/><path class="cls-4" d="M46.53,26l-.29.18c-7.6,4.85-16.46,14.31-17.37,26.1-.43,5.61,3.16,9.5,7.8,9.58,3,.06,5.34-1,6.63-3,1.07-1.67,1.35-4.24,1.52-3,.62,4.54-1.28,8.9-2.31,12.72a12.09,12.09,0,0,1,4-.63h0a12.09,12.09,0,0,1,4,.63c-1-3.82-2.93-8.18-2.3-12.72.17-1.19.44,1.38,1.51,3,1.29,2,3.67,3.07,6.63,3,4.64-.08,8.23-4,7.8-9.58-.91-11.79-9.77-21.25-17.36-26.1L46.51,26Z"/><path class="cls-4" d="M133,26l-.29.18c-7.6,4.85-16.46,14.31-17.37,26.1-.43,5.61,3.16,9.5,7.8,9.58,3,.06,5.34-1,6.63-3,1.07-1.67,1.34-4.24,1.52-3,.62,4.54-1.28,8.9-2.31,12.72a12.09,12.09,0,0,1,4-.63h0a12.09,12.09,0,0,1,4,.63c-1-3.82-2.93-8.18-2.31-12.72.18-1.19.45,1.38,1.52,3,1.29,2,3.67,3.07,6.63,3,4.64-.08,8.23-4,7.79-9.58-.9-11.79-9.77-21.25-17.36-26.1L133,26Z"/><path class="cls-4" d="M46.53,78l-.29.18c-7.6,4.85-16.46,14.31-17.37,26.1-.43,5.61,3.16,9.49,7.8,9.58,3,.05,5.34-1,6.63-3,1.07-1.67,1.35-4.25,1.52-3.06.62,4.54-1.28,8.91-2.31,12.72a12.09,12.09,0,0,1,4-.63h0a12.09,12.09,0,0,1,4,.63c-1-3.81-2.93-8.18-2.3-12.72.17-1.19.44,1.39,1.51,3.06,1.29,2,3.67,3.06,6.63,3,4.64-.09,8.23-4,7.8-9.58-.91-11.79-9.77-21.25-17.36-26.1a1.67,1.67,0,0,0-.28-.18Z"/><path class="cls-4" d="M133,78l-.29.18c-7.6,4.85-16.46,14.31-17.37,26.1-.43,5.61,3.16,9.49,7.8,9.58,3,.05,5.34-1,6.63-3,1.07-1.67,1.34-4.25,1.52-3.06.62,4.54-1.28,8.91-2.31,12.72a12.09,12.09,0,0,1,4-.63h0a12.09,12.09,0,0,1,4,.63c-1-3.81-2.93-8.18-2.31-12.72.18-1.19.45,1.39,1.52,3.06,1.29,2,3.67,3.06,6.63,3,4.64-.09,8.23-4,7.79-9.58-.9-11.79-9.77-21.25-17.36-26.1A2.11,2.11,0,0,0,133,78Z"/><path class="cls-4" d="M89.76,104l-.29.18C81.87,109,73,118.45,72.1,130.24c-.43,5.61,3.16,9.49,7.8,9.58,3,.05,5.34-1,6.63-3,1.07-1.67,1.34-4.25,1.52-3.06.62,4.55-1.28,8.91-2.31,12.72a12.63,12.63,0,0,1,4-.63h0a12.63,12.63,0,0,1,4,.63c-1-3.81-2.93-8.17-2.31-12.72.18-1.19.45,1.39,1.52,3.06,1.29,2,3.67,3.06,6.63,3,4.64-.09,8.23-4,7.8-9.58-.91-11.79-9.77-21.25-17.36-26.1l-.28-.18Z"/><path class="cls-4" d="M46.53,172.46l-.29-.18c-7.6-4.85-16.46-14.31-17.37-26.11-.43-5.61,3.16-9.49,7.8-9.58,3-.05,5.34,1,6.63,3,1.07,1.67,1.35,4.25,1.52,3.06.62-4.54-1.28-8.91-2.31-12.72a12.09,12.09,0,0,0,4,.63h0a12.09,12.09,0,0,0,4-.63c-1,3.81-2.93,8.18-2.3,12.72.17,1.19.44-1.39,1.51-3.06,1.29-2,3.67-3.06,6.63-3,4.64.09,8.23,4,7.8,9.58-.91,11.8-9.77,21.26-17.36,26.11l-.28.18Z"/><path class="cls-4" d="M133,172.46l-.29-.18c-7.6-4.85-16.46-14.31-17.37-26.11-.43-5.61,3.16-9.49,7.8-9.58,3-.05,5.34,1,6.63,3,1.07,1.67,1.34,4.25,1.52,3.06.62-4.54-1.28-8.91-2.31-12.72a12.09,12.09,0,0,0,4,.63h0a12.09,12.09,0,0,0,4-.63c-1,3.81-2.93,8.18-2.31,12.72.18,1.19.45-1.39,1.52-3.06,1.29-2,3.67-3.06,6.63-3,4.64.09,8.23,4,7.79,9.58-.9,11.8-9.77,21.26-17.35,26.11l-.28.18Z"/><path class="cls-4" d="M46.53,224.43l-.29-.18c-7.6-4.85-16.46-14.31-17.37-26.11-.43-5.61,3.16-9.49,7.8-9.58,3-.05,5.34,1,6.63,3,1.07,1.67,1.35,4.25,1.52,3.06.62-4.54-1.28-8.91-2.31-12.72a12.63,12.63,0,0,0,4,.63h0a12.63,12.63,0,0,0,4-.63c-1,3.81-2.93,8.18-2.3,12.72.17,1.19.44-1.39,1.51-3.06,1.29-2,3.67-3.06,6.63-3,4.64.09,8.23,4,7.8,9.58-.91,11.8-9.77,21.26-17.36,26.11l-.28.18Z"/><path class="cls-4" d="M133,224.43l-.29-.18c-7.6-4.85-16.46-14.31-17.37-26.11-.43-5.61,3.16-9.49,7.8-9.58,3-.05,5.34,1,6.63,3,1.07,1.67,1.34,4.25,1.52,3.06.62-4.54-1.28-8.91-2.31-12.72a12.63,12.63,0,0,0,4,.63h0a12.63,12.63,0,0,0,4-.63c-1,3.81-2.93,8.18-2.31,12.72.18,1.19.45-1.39,1.52-3.06,1.29-2,3.67-3.06,6.63-3,4.64.09,8.23,4,7.79,9.58-.9,11.8-9.77,21.26-17.35,26.11l-.28.18Z"/></g></g></g></svg>