<svg xmlns="http://www.w3.org/2000/svg" viewBox="0 0 179.58 250.45"><defs><style>.cls-1{fill:#f4f4f2;}.cls-1,.cls-10,.cls-11,.cls-12,.cls-13,.cls-14,.cls-15,.cls-2,.cls-4,.cls-6,.cls-7,.cls-8,.cls-9{stroke:#231f20;}.cls-10,.cls-11,.cls-12,.cls-13,.cls-14,.cls-15,.cls-2,.cls-5,.cls-6,.cls-7,.cls-8,.cls-9{fill:#231f20;}.cls-10,.cls-11,.cls-12,.cls-13,.cls-14,.cls-15,.cls-2,.cls-4,.cls-6,.cls-7,.cls-8,.cls-9{stroke-linejoin:round;}.cls-2{stroke-width:0.07px;}.cls-3,.cls-4{fill:none;}.cls-4{stroke-width:1.5px;}.cls-6{stroke-width:0.46px;}.cls-7{stroke-width:0.35px;}.cls-8{stroke-width:0.26px;}.cls-10,.cls-11,.cls-15,.cls-9{stroke-linecap:round;}.cls-9{stroke-width:0.1px;}.cls-10{stroke-width:0.05px;}.cls-11,.cls-13{stroke-width:0.02px;}.cls-12{stroke-width:0.2px;}.cls-14{stroke-width:0.04px;}.cls-15{stroke-width:0.03px;}</style></defs><title>spades Asset 1</title><g id="Layer_2" data-name="Layer 2"><g id="Layer_1-2" data-name="Layer 1"><g id="ace"><rect class="cls-1" x="0.5" y="0.5" width="178.58" height="249.45" rx="14.17" ry="14.17"/><path class="cls-2" d="M13.24,43l-.11.07c-3,1.94-6.59,5.72-7,10.44a3.29,3.29,0,0,0,2.7,3.79l.42,0A3,3,0,0,0,12,56.16c.43-.67.54-1.7.61-1.22.25,1.81-.51,3.56-.92,5.08a4.88,4.88,0,0,1,1.61-.25h0a5.16,5.16,0,0,1,1.61.25c-.41-1.52-1.17-3.27-.92-5.08.07-.48.18.55.6,1.22a3,3,0,0,0,2.66,1.2A3.28,3.28,0,0,0,20.35,54a3.13,3.13,0,0,0,0-.43c-.36-4.72-3.9-8.5-6.94-10.44a.41.41,0,0,0-.11-.07Z"/><path class="cls-2" d="M166.31,207.48l-.11-.08c-3-1.94-6.59-5.72-6.95-10.44a3.29,3.29,0,0,1,2.7-3.79l.42,0a3,3,0,0,1,2.65,1.2c.43.67.54,1.7.61,1.23.25-1.82-.51-3.57-.92-5.09a4.88,4.88,0,0,0,1.61.25h0a4.88,4.88,0,0,0,1.61-.25c-.41,1.52-1.17,3.27-.92,5.09.07.47.18-.56.6-1.23a3,3,0,0,1,2.66-1.2,3.28,3.28,0,0,1,3.15,3.4,3.13,3.13,0,0,1,0,.43c-.36,4.72-3.9,8.5-6.94,10.44l-.11.08Z"/><polygon class="cls-3" points="164.22 219.82 168.54 219.82 166.38 231.38 164.22 219.82"/><path d="M173.41,214v-2.3H168V214h1.67l-.63,3.34h-5.26l-.62-3.33h1.57v-2.3h-5.45V214h1.7L165,235.77h2.73L171.8,214Zm-4.87,5.84-2.16,11.55-2.17-11.56Z"/><polygon class="cls-3" points="11.14 30.63 15.47 30.63 13.31 19.07 11.14 30.63"/><path d="M18.73,36.48,14.66,14.69H11.93L7.87,36.48H6.17v2.3h5.44v-2.3H10.05l.62-3.33h5.26l.63,3.33H14.89v2.3h5.45v-2.3Zm-7.59-5.83,2.17-11.56,2.17,11.53Z"/><path class="cls-4" d="M89.67,70.15c-.19.14-.32.22-.54.39C75.05,81,58.62,101.4,56.94,126.83c-.8,12.11,5.85,20.48,14.45,20.66,5.49.12,9.9-2.15,12.29-6.48,2-3.61,2.5-9.16,2.82-6.59,1.16,9.79-2.37,19.2-4.28,27.43a19.92,19.92,0,0,1,7.48-1.37h0a19.9,19.9,0,0,1,7.47,1.37c-1.9-8.23-5.42-17.64-4.27-27.43.33-2.57.83,3,2.82,6.59,2.38,4.33,6.8,6.6,12.29,6.48,8.6-.18,15.25-8.55,14.45-20.66C120.77,101.4,104.34,81,90.28,70.54a3.14,3.14,0,0,0-.51-.39Z"/><path class="cls-5" d="M66.48,132.8v-.6h0a9.1,9.1,0,0,1,8.5-9.07h.74a11.24,11.24,0,0,1,11.21,10.51h0a.5.5,0,0,1-.47.53h0a.5.5,0,0,1-.53-.46h0a10.24,10.24,0,0,0-10.21-9.58h-.67a8.09,8.09,0,0,0-7.57,8.07h0a4.69,4.69,0,0,0,0,.53h0a6.37,6.37,0,0,0,6.35,6h.42a5,5,0,0,0,4.68-5h0v-.33h0A3.92,3.92,0,0,0,75,129.75h-.26a3,3,0,0,0-2.82,3h0v.2h0a2.32,2.32,0,0,0,2.31,2.16h.16a1.75,1.75,0,0,0,1.63-1.75h0v-.11h0a1.3,1.3,0,0,0-1.3-1.22h-.08a.93.93,0,0,0-.88.94h0V133h0a.5.5,0,0,1-.46.54h0a.49.49,0,0,1-.54-.44h0V133h0A1.94,1.94,0,0,1,74.59,131h.17a2.29,2.29,0,0,1,2.3,2.16h0v.17h0a2.76,2.76,0,0,1-2.58,2.75h-.21A3.3,3.3,0,0,1,71,133h0v-.27h0a4,4,0,0,1,3.75-4h.33a4.9,4.9,0,0,1,4.88,4.58h0v.4h0a6,6,0,0,1-5.62,6h-.48a7.37,7.37,0,0,1-7.35-6.89Z"/><path class="cls-5" d="M105.2,139.68a6,6,0,0,1-5.6-6h0v-.4h0a4.91,4.91,0,0,1,4.88-4.58h.32a4,4,0,0,1,3.75,4h0V133h0a3.31,3.31,0,0,1-3.3,3.1H105a2.76,2.76,0,0,1-2.57-2.75h0v-.18h0a2.3,2.3,0,0,1,2.29-2.15h.15a2,2,0,0,1,1.82,1.94h0V133h0a.52.52,0,0,1-.52.49h0a.5.5,0,0,1-.48-.52h0v-.08h0a.94.94,0,0,0-.9-.94h-.07a1.29,1.29,0,0,0-1.29,1.23h0a.17.17,0,0,0,0,.1h0a1.76,1.76,0,0,0,1.63,1.75h.16a2.32,2.32,0,0,0,2.31-2.16h0v-.2h0a3,3,0,0,0-2.83-3h-.25a3.89,3.89,0,0,0-3.88,3.65h0v.33h0a5,5,0,0,0,4.66,5h.42a6.36,6.36,0,0,0,6.35-6h0v-.54h0a8.08,8.08,0,0,0-7.55-8.07h-.68a10.24,10.24,0,0,0-10.2,9.58h0a.49.49,0,0,1-.52.46h0a.49.49,0,0,1-.46-.52h0a11.21,11.21,0,0,1,11.19-10.51h.75a9.09,9.09,0,0,1,8.48,9.07h0v.6h0a7.36,7.36,0,0,1-7.34,6.89h-.48Z"/><path class="cls-5" d="M89.75,138a.55.55,0,0,1-.36-.15h0a.5.5,0,0,1-.14-.35h0v-.24h0c-.11-1.84-1.64-3.79-2.44-4.63h0c-.28-.3-.45-.46-.45-.46h0a.48.48,0,0,1-.14-.52h0a61.77,61.77,0,0,0,1.65-6.14h0c.49-2.17.87-4.51,1.41-6.47h0a20.61,20.61,0,0,0-.7-2.05h0a.11.11,0,0,1,0-.08h0a6.49,6.49,0,0,0-6-4.15h0a6,6,0,0,0-2.06.36h0a4.94,4.94,0,0,0-3.31,4.66h0a4.92,4.92,0,0,0,.27,1.7h0a3.87,3.87,0,0,0,3.64,2.58h0a3.76,3.76,0,0,0,1.29-.22h0a3,3,0,0,0,2-2.82h0a2.84,2.84,0,0,0-.17-1h0a2.27,2.27,0,0,0-2.16-1.53h0a2.17,2.17,0,0,0-.76.13h0a1.74,1.74,0,0,0-1.16,1.63h0a1.91,1.91,0,0,0,.1.58h0a1.32,1.32,0,0,0,1.21.86h0a1.26,1.26,0,0,0,.43-.08h0a.93.93,0,0,0,.62-.87h0a.81.81,0,0,0,0-.31h0a.62.62,0,0,0-.61-.43h0a.74.74,0,0,0-.21,0h0a.4.4,0,0,0-.28.39h0a.29.29,0,0,0,0,.13h0a.5.5,0,0,1-.31.63h0a.5.5,0,0,1-.64-.3h0a1.5,1.5,0,0,1-.08-.47h0a1.42,1.42,0,0,1,1-1.34h0a1.65,1.65,0,0,1,.54-.09h0a1.64,1.64,0,0,1,1.55,1.1h0a1.72,1.72,0,0,1,.11.64h0a1.93,1.93,0,0,1-1.29,1.82h0a2.48,2.48,0,0,1-.76.13h0a2.27,2.27,0,0,1-2.15-1.53h0a2.57,2.57,0,0,1-.16-.91h0A2.71,2.71,0,0,1,81,115.63h0a3.13,3.13,0,0,1,1.09-.19h0a3.29,3.29,0,0,1,3.11,2.2h0a3.93,3.93,0,0,1,.22,1.32h0a4,4,0,0,1-2.66,3.76h0a5,5,0,0,1-1.62.28h0a4.85,4.85,0,0,1-4.58-3.25h0a5.92,5.92,0,0,1-.34-2h0a6,6,0,0,1,4-5.61h0a7.23,7.23,0,0,1,2.39-.41h0a7.47,7.47,0,0,1,6.93,4.87h0c.1.24.19.48.28.74h0c.12-.3.25-.58.38-.84h0c1.46-2.79,4-4.8,7-4.8h0a6.77,6.77,0,0,1,2.27.39h0a6,6,0,0,1,4,5.61h0a5.92,5.92,0,0,1-.34,2h0A4.85,4.85,0,0,1,98.56,123h0a4.91,4.91,0,0,1-1.61-.28h0a4,4,0,0,1-2.67-3.76h0a3.94,3.94,0,0,1,.23-1.32h0a3.28,3.28,0,0,1,3.1-2.2h0a3.18,3.18,0,0,1,1.1.19h0a2.72,2.72,0,0,1,1.82,2.57h0a2.57,2.57,0,0,1-.16.91h0a2.27,2.27,0,0,1-2.15,1.53h0a2.65,2.65,0,0,1-.74-.11h0a1.93,1.93,0,0,1-1.29-1.82h0a1.72,1.72,0,0,1,.11-.64h0a1.64,1.64,0,0,1,1.55-1.1h0a1.71,1.71,0,0,1,.55.09h0a1.41,1.41,0,0,1,.94,1.34h0a1.44,1.44,0,0,1-.08.46h0a.48.48,0,0,1-.62.31h0a.48.48,0,0,1-.31-.62h0a.33.33,0,0,0,0-.14h0A.42.42,0,0,0,98,118h-.21a.65.65,0,0,0-.61.43h0a.81.81,0,0,0,0,.31h0a.93.93,0,0,0,.62.87h0a1.26,1.26,0,0,0,.43.08h0a1.27,1.27,0,0,0,1.21-.86h0a1.65,1.65,0,0,0,.1-.58h0a1.71,1.71,0,0,0-1.16-1.63h0a2.17,2.17,0,0,0-.76-.13h0A2.3,2.3,0,0,0,95.48,118h0a3.09,3.09,0,0,0-.17,1h0a3,3,0,0,0,2,2.82h0a3.71,3.71,0,0,0,1.28.22h0a3.85,3.85,0,0,0,3.64-2.58h0a4.89,4.89,0,0,0,.28-1.65h0a4.94,4.94,0,0,0-3.31-4.66h0a5.53,5.53,0,0,0-1.93-.34h0c-2.5,0-4.81,1.72-6.14,4.26h0a10.29,10.29,0,0,0-.76,2h0c.55,2,1,4.25,1.48,6.46h0c.67,3,1.55,5.83,1.64,6.12h0a.49.49,0,0,1-.13.56h0s-.19.16-.48.46h0a13.73,13.73,0,0,0-1.07,1.22h0a6.65,6.65,0,0,0-1.51,3.41h0v.2h0a.5.5,0,0,1-.14.35h0a.55.55,0,0,1-.36.15h0Zm0-2.75a11.44,11.44,0,0,1,2.65-3.59h0c-.26-.83-1-3.3-1.59-6h0c-.34-1.55-.67-3.14-1-4.61h0c-.33,1.47-.62,3.09-1,4.63h0c-.59,2.64-1.33,5.11-1.59,5.94h0a11.73,11.73,0,0,1,2.5,3.58Z"/><path class="cls-5" d="M99.37,98.62a7.43,7.43,0,0,1-5-2h0a6.07,6.07,0,0,1-2-4.46h0A6,6,0,0,1,94,88.07h0a4.94,4.94,0,0,1,3.64-1.6h0a4.91,4.91,0,0,1,3.34,1.3h0a4,4,0,0,1,1.31,3h0a4,4,0,0,1-1.06,2.73h0a3.35,3.35,0,0,1-2.47,1.09h0a3.32,3.32,0,0,1-2.26-.88h0a2.8,2.8,0,0,1-.9-2h0a2.76,2.76,0,0,1,.73-1.87h0A2.32,2.32,0,0,1,98,89h0a2.34,2.34,0,0,1,1.57.61h0a1.93,1.93,0,0,1,.64,1.44h0a2,2,0,0,1-.52,1.32h0a1.65,1.65,0,0,1-1.23.54h0a1.66,1.66,0,0,1-1.12-.44h0a.49.49,0,0,1,0-.69h0a.5.5,0,0,1,.71,0h0a.66.66,0,0,0,.44.17h0a.65.65,0,0,0,.49-.21h0a1,1,0,0,0,.26-.65h0a1,1,0,0,0-.31-.7h0a1.3,1.3,0,0,0-.9-.35h0a1.3,1.3,0,0,0-1,.43h0a1.82,1.82,0,0,0-.47,1.19h0A1.77,1.77,0,0,0,97.15,93h0a2.31,2.31,0,0,0,1.58.62h0a2.32,2.32,0,0,0,1.73-.76h0a3,3,0,0,0,.8-2.06h0a3,3,0,0,0-1-2.25h0a3.9,3.9,0,0,0-2.66-1h0a3.93,3.93,0,0,0-2.91,1.28h0a5,5,0,0,0-1.33,3.41h0A5.08,5.08,0,0,0,95,96h0a6.43,6.43,0,0,0,4.35,1.69h0a6.37,6.37,0,0,0,4.75-2.09h0a8.17,8.17,0,0,0,2.15-5.52h0a8.12,8.12,0,0,0-2.65-6h0a.51.51,0,0,1,0-.71h0a.5.5,0,0,1,.71,0h0a9.13,9.13,0,0,1,3,6.77h0a9.17,9.17,0,0,1-2.41,6.2h0a7.47,7.47,0,0,1-5.48,2.41h0Z"/><path class="cls-5" d="M74.48,96.21A9.17,9.17,0,0,1,72.07,90h0a9.13,9.13,0,0,1,3-6.77h0a.51.51,0,0,1,.71,0h0a.5.5,0,0,1,0,.71h0a8.12,8.12,0,0,0-2.65,6h0a8.17,8.17,0,0,0,2.15,5.52h0A6.41,6.41,0,0,0,80,97.56h0a6.46,6.46,0,0,0,4.36-1.69h0A5,5,0,0,0,86,92.14h0a5,5,0,0,0-1.33-3.41h0a3.93,3.93,0,0,0-2.91-1.28h0a4,4,0,0,0-2.67,1h0a3,3,0,0,0-1,2.26h0a3,3,0,0,0,.8,2.06h0a2.37,2.37,0,0,0,1.73.76h0a2.33,2.33,0,0,0,1.59-.62h0a1.77,1.77,0,0,0,.58-1.31h0a1.82,1.82,0,0,0-.47-1.19h0a1.32,1.32,0,0,0-1-.43h0a1.32,1.32,0,0,0-.89.34h0a1,1,0,0,0-.31.71h0a.93.93,0,0,0,.25.64h0a.64.64,0,0,0,.49.22h0a.67.67,0,0,0,.45-.18h0a.5.5,0,0,1,.71,0h0a.49.49,0,0,1,0,.69h0a1.69,1.69,0,0,1-1.13.44h0a1.65,1.65,0,0,1-1.23-.54h0A2,2,0,0,1,79.18,91h0a2,2,0,0,1,.63-1.44h0a2.34,2.34,0,0,1,1.57-.61h0a2.34,2.34,0,0,1,1.72.75h0a2.76,2.76,0,0,1,.73,1.87h0a2.77,2.77,0,0,1-.91,2h0a3.32,3.32,0,0,1-2.26.88h0a3.34,3.34,0,0,1-2.46-1.08h0a4,4,0,0,1-1.07-2.74h0a4,4,0,0,1,1.31-3h0a5,5,0,0,1,3.35-1.3h0A5,5,0,0,1,85.44,88h0A6.08,6.08,0,0,1,87,92.06h0a6,6,0,0,1-2,4.46h0a7.43,7.43,0,0,1-5,2h0a7.43,7.43,0,0,1-5.49-2.41Z"/><path class="cls-5" d="M71.8,113.19a5.63,5.63,0,0,1-3.87-5.35h0a5.6,5.6,0,0,1,.28-1.77h0a4.61,4.61,0,0,1,4.38-3.17h0a4.4,4.4,0,0,1,1.44.24h0a3.74,3.74,0,0,1,2.6,3.59h0a3.71,3.71,0,0,1-.19,1.19h0a3.11,3.11,0,0,1-3,2.15h0a3.08,3.08,0,0,1-1-.16h0a2.6,2.6,0,0,1-1.79-2.47h0a2.51,2.51,0,0,1,.13-.82h0a2.21,2.21,0,0,1,2.07-1.5h0a2.31,2.31,0,0,1,.69.11h0A1.85,1.85,0,0,1,74.81,107h0a1.9,1.9,0,0,1-.09.58h0a.51.51,0,0,1-.63.32h0a.5.5,0,0,1-.32-.63h0a1.13,1.13,0,0,0,0-.26h0a.86.86,0,0,0-.59-.81h0a1.15,1.15,0,0,0-.37-.06h0a1.18,1.18,0,0,0-1.12.82h0a1.69,1.69,0,0,0-.08.5h0a1.61,1.61,0,0,0,1.1,1.52h0a2.19,2.19,0,0,0,.67.11h0a2.14,2.14,0,0,0,2-1.46h0a2.62,2.62,0,0,0,.14-.88h0a2.77,2.77,0,0,0-1.91-2.64h0a3.35,3.35,0,0,0-1.13-.19h0a3.61,3.61,0,0,0-3.43,2.48h0a4.79,4.79,0,0,0-.23,1.46h0a4.63,4.63,0,0,0,3.18,4.4h0a5.89,5.89,0,0,0,1.86.3h0a5.92,5.92,0,0,0,5.62-4.07h0a7.57,7.57,0,0,0,.38-2.36h0A7.5,7.5,0,0,0,74.69,99h0a9.57,9.57,0,0,0-3-.49h0a9.52,9.52,0,0,0-9,6.55h0a.5.5,0,0,1-.63.32h0a.5.5,0,0,1-.32-.63h0a10.52,10.52,0,0,1,10-7.24h0A10.28,10.28,0,0,1,75,98h0a8.51,8.51,0,0,1,5.86,8.09h0a8.74,8.74,0,0,1-.43,2.68h0a7,7,0,0,1-6.57,4.75h0a6.94,6.94,0,0,1-2.17-.35Z"/><path class="cls-5" d="M99,108.79a8.41,8.41,0,0,1-.44-2.68h0A8.52,8.52,0,0,1,104.42,98h0a10.28,10.28,0,0,1,3.3-.54h0a10.52,10.52,0,0,1,10,7.24h0a.5.5,0,0,1-.31.63h0a.51.51,0,0,1-.64-.32h0a9.52,9.52,0,0,0-9-6.55h0a9.57,9.57,0,0,0-3,.49h0a7.52,7.52,0,0,0-5.17,7.14h0a7.3,7.3,0,0,0,.39,2.36h0a5.9,5.9,0,0,0,5.61,4.07h0a5.83,5.83,0,0,0,1.85-.3h0a4.63,4.63,0,0,0,3.18-4.4h0a4.51,4.51,0,0,0-.24-1.46h0A3.59,3.59,0,0,0,107,103.9h0a3.3,3.3,0,0,0-1.12.19h0a2.77,2.77,0,0,0-1.92,2.64h0a2.89,2.89,0,0,0,.14.88h0a2.14,2.14,0,0,0,2,1.46h0a2.19,2.19,0,0,0,.67-.11h0a1.61,1.61,0,0,0,1.1-1.52h0a1.69,1.69,0,0,0-.08-.5h0a1.18,1.18,0,0,0-1.12-.82h0a1.15,1.15,0,0,0-.37.06h0a.85.85,0,0,0-.58.81h0a1.13,1.13,0,0,0,0,.26h0a.49.49,0,0,1-.3.62h0a.5.5,0,0,1-.63-.31h0a1.9,1.9,0,0,1-.09-.58h0a1.83,1.83,0,0,1,1.26-1.75h0a2,2,0,0,1,.69-.12h0a2.22,2.22,0,0,1,2.07,1.51h0a2.8,2.8,0,0,1,.13.81h0a2.6,2.6,0,0,1-1.79,2.47h0a3.08,3.08,0,0,1-1,.16h0a3.11,3.11,0,0,1-3-2.15h0a3.42,3.42,0,0,1-.2-1.19h0a3.78,3.78,0,0,1,2.6-3.59h0a4.4,4.4,0,0,1,1.44-.24h0a4.6,4.6,0,0,1,4.37,3.17h0a5.61,5.61,0,0,1,.29,1.77h0a5.63,5.63,0,0,1-3.87,5.35h0a6.93,6.93,0,0,1-2.16.35h0a6.91,6.91,0,0,1-6.56-4.75Z"/><path class="cls-5" d="M96.11,171.8a4.63,4.63,0,0,1-1.57-.27h0A3.81,3.81,0,0,1,92,168h0a3.76,3.76,0,0,1,.22-1.29h0a3.15,3.15,0,0,1,3-2.08h0a3.25,3.25,0,0,1,1.07.18h0A2.62,2.62,0,0,1,98,167.23h0a2.62,2.62,0,0,1-.15.88h0a2.2,2.2,0,0,1-2.07,1.45h0a2.1,2.1,0,0,1-.74-.13h0a1.84,1.84,0,0,1-1.23-1.74h0a1.94,1.94,0,0,1,.11-.63h0A1.59,1.59,0,0,1,95.45,166h0a1.44,1.44,0,0,1,.54.1h0a1.36,1.36,0,0,1,.9,1.28h0a1.26,1.26,0,0,1-.08.47h0a1.16,1.16,0,0,1-.43.57h0a1.19,1.19,0,0,0,.56-.65h0a1.49,1.49,0,0,0,.1-.55h0A1.63,1.63,0,0,0,96,165.7h0a2.28,2.28,0,0,0-.73-.12h0a2.15,2.15,0,0,0-2,1.42h0a2.83,2.83,0,0,0-.16.95h0a2.8,2.8,0,0,0,1.86,2.64h0a3.7,3.7,0,0,0,1.23.21h0a3.64,3.64,0,0,0,3.42-2.4h0a4.73,4.73,0,0,0,.27-1.58h0a4.66,4.66,0,0,0-3.09-4.39h0a.5.5,0,0,1-.3-.64h0a.5.5,0,0,1,.62-.31h0a5.66,5.66,0,0,1,3.75,5.33h0a5.64,5.64,0,0,1-.33,1.91h0a4.63,4.63,0,0,1-4.36,3.07Zm-1.25-4.4a1.41,1.41,0,0,0,0,.29h0a.91.91,0,0,0,.1.4h0v-.15h0a.51.51,0,0,1,.64-.31h.07a.2.2,0,0,0,.18-.12h0a.29.29,0,0,0,0-.13h0a.35.35,0,0,0-.24-.34h-.2a.58.58,0,0,0-.55.39Z"/><path class="cls-5" d="M101.94,164.72a5.63,5.63,0,0,1-3.89-1.55h0a.5.5,0,0,1,0-.71h0a.5.5,0,0,1,.71,0h0a4.64,4.64,0,0,0,3.2,1.27h0a4.64,4.64,0,0,0,3.4-1.46h0a3.65,3.65,0,0,0,1-2.5h0a3.61,3.61,0,0,0-1.14-2.64h0a2.79,2.79,0,0,0-1.92-.77h0a2.8,2.8,0,0,0-2,.88h0a2.18,2.18,0,0,0-.58,1.48h0a2.15,2.15,0,0,0,.67,1.56h0a1.64,1.64,0,0,0,1.11.44h0a1.6,1.6,0,0,0,1.18-.51h0a1.14,1.14,0,0,0,.32-.8h0a1.23,1.23,0,0,1-.31.65h0a1.34,1.34,0,0,1-1,.42h0a1.29,1.29,0,0,1-.93-.37h0a1.57,1.57,0,0,1-.5-1.15h0a1.6,1.6,0,0,1,.43-1.09h0a1.86,1.86,0,0,1,1.35-.58h0a1.83,1.83,0,0,1,1.27.51h0a2.18,2.18,0,0,1,.69,1.59h0a2.18,2.18,0,0,1-.6,1.51h0a2.62,2.62,0,0,1-1.9.82h0a2.63,2.63,0,0,1-1.8-.72h0a3.13,3.13,0,0,1-1-2.28h0a3.1,3.1,0,0,1,.85-2.16h0a3.81,3.81,0,0,1,2.78-1.2h0a3.82,3.82,0,0,1,2.61,1h0a4.64,4.64,0,0,1,1.45,3.37h0a4.68,4.68,0,0,1-1.26,3.19h0a5.67,5.67,0,0,1-4.12,1.77h0Zm.4-6.17a.59.59,0,0,0-.16.4h0a.58.58,0,0,0,.18.43h0a.38.38,0,0,0,.25.09h0a.39.39,0,0,0,.27-.11h0a.15.15,0,0,0,0-.13h0a.2.2,0,0,0-.06-.14h0a.5.5,0,0,1,0-.71h0l.12-.1h0a.85.85,0,0,0-.62.27Z"/><path class="cls-5" d="M108.55,169a3,3,0,0,1-2.19-1h0a2.5,2.5,0,0,1-.66-1.68h0a2.5,2.5,0,0,1,.8-1.83h0a2.1,2.1,0,0,1,1.41-.55h0a2.1,2.1,0,0,1,1.54.67h0a1.79,1.79,0,0,1,.47,1.2h0a1.8,1.8,0,0,1-.57,1.31h0a1.6,1.6,0,0,1-1,.39h0a1.54,1.54,0,0,1-1.12-.48h0a1.32,1.32,0,0,1-.34-.89h0a1.31,1.31,0,0,1,.42-1h0a.61.61,0,0,1,.16-.12h0a.68.68,0,0,0-.26.18h0a1.47,1.47,0,0,0-.48,1.09h0a1.48,1.48,0,0,0,.39,1h0a2,2,0,0,0,1.46.64h0a2,2,0,0,0,1.34-.52h0a2.57,2.57,0,0,0,.84-1.91h0a2.61,2.61,0,0,0-.69-1.76h0a3.33,3.33,0,0,0-2.48-1.1h0a3.35,3.35,0,0,0-2.29.9h0a.5.5,0,0,1-.7,0h0a.5.5,0,0,1,0-.71h0a4.39,4.39,0,0,1,3-1.16h0a4.38,4.38,0,0,1,3.22,1.42h0a3.61,3.61,0,0,1,1,2.44h0a3.59,3.59,0,0,1-1.16,2.65h0a3,3,0,0,1-2,.78ZM108,166a.29.29,0,0,0-.1.23h0a.32.32,0,0,0,.08.21h0l.08.07h0a.49.49,0,0,1,.15-.47h0a.21.21,0,0,0-.11,0h0a.17.17,0,0,0-.1,0Z"/><path class="cls-5" d="M79,168.72a5.65,5.65,0,0,1-.34-1.91h0a5.67,5.67,0,0,1,3.78-5.33h0a.5.5,0,0,1,.64.3h0a.51.51,0,0,1-.31.64h0a4.67,4.67,0,0,0-3.09,4.4h0a4.64,4.64,0,0,0,.28,1.57h0a3.63,3.63,0,0,0,3.42,2.41h0a3.43,3.43,0,0,0,1.23-.22h0a2.82,2.82,0,0,0,1.86-2.64h0a2.84,2.84,0,0,0-.17-.95h0a2.15,2.15,0,0,0-2-1.42h0a2,2,0,0,0-.72.13h0a1.64,1.64,0,0,0-1.08,1.52h0a1.72,1.72,0,0,0,.1.55h0a1.17,1.17,0,0,0,.57.65h0a1.18,1.18,0,0,1-.44-.57h0a1.44,1.44,0,0,1-.08-.46h0a1.37,1.37,0,0,1,.9-1.29h0a1.26,1.26,0,0,1,.54-.09h0a1.57,1.57,0,0,1,1.49,1h0a1.71,1.71,0,0,1,.11.63h0a1.87,1.87,0,0,1-1.23,1.75h0a2.35,2.35,0,0,1-.74.13h0a2.19,2.19,0,0,1-2.06-1.46h0a2.41,2.41,0,0,1-.16-.88h0a2.62,2.62,0,0,1,1.74-2.46h0a3,3,0,0,1,1.06-.19h0a3.14,3.14,0,0,1,3,2.09h0a3.71,3.71,0,0,1,.23,1.28h0A3.81,3.81,0,0,1,85,171.49h0a4.61,4.61,0,0,1-1.56.27h0a4.64,4.64,0,0,1-4.36-3.07Zm5.52-.79a.38.38,0,0,1,0,.15h0a.86.86,0,0,0,.1-.41h0a.71.71,0,0,0,0-.29h0a.58.58,0,0,0-.55-.39h-.19a.37.37,0,0,0-.25.35h0a.24.24,0,0,0,0,.12h0a.18.18,0,0,0,.18.13h.23a.51.51,0,0,1,.47.34Z"/><path class="cls-5" d="M73.48,162.93a4.61,4.61,0,0,1-1.27-3.18h0a4.61,4.61,0,0,1,1.46-3.37h0a3.71,3.71,0,0,1,2.61-1h0a3.81,3.81,0,0,1,2.77,1.19h0a3.17,3.17,0,0,1,.86,2.16h0a3.19,3.19,0,0,1-1,2.29h0a2.58,2.58,0,0,1-1.79.71h0a2.66,2.66,0,0,1-1.91-.82h0a2.21,2.21,0,0,1-.6-1.5h0a2.18,2.18,0,0,1,.69-1.6h0a1.77,1.77,0,0,1,1.27-.5h0a1.79,1.79,0,0,1,1.35.58h0a1.51,1.51,0,0,1,.43,1.08h0a1.54,1.54,0,0,1-.49,1.16h0a1.38,1.38,0,0,1-.94.37h0a1.35,1.35,0,0,1-1-.43h0a1.25,1.25,0,0,1-.32-.65h0a1.22,1.22,0,0,0,.33.81h0a1.63,1.63,0,0,0,1.18.5h0a1.55,1.55,0,0,0,1.1-.44h0a2.14,2.14,0,0,0,.68-1.56h0a2.12,2.12,0,0,0-.59-1.47h0a2.8,2.8,0,0,0-2-.88h0a2.77,2.77,0,0,0-1.93.77h0a3.62,3.62,0,0,0-1.14,2.64h0a3.6,3.6,0,0,0,1,2.49h0a4.68,4.68,0,0,0,3.39,1.46h0a4.64,4.64,0,0,0,3.2-1.27h0a.5.5,0,0,1,.71,0h0a.5.5,0,0,1,0,.71h0a5.66,5.66,0,0,1-3.89,1.54h0A5.67,5.67,0,0,1,73.52,163Zm3.21-4.56a.49.49,0,0,1,0,.69h0a.2.2,0,0,0-.06.14h0a.15.15,0,0,0,0,.13h0a.36.36,0,0,0,.27.12h0a.35.35,0,0,0,.25-.1h0a.59.59,0,0,0,.19-.43h0a.71.71,0,0,0-.16-.4h0a.93.93,0,0,0-.63-.27h0a.32.32,0,0,1,.13.1Z"/><path class="cls-5" d="M68.94,168.23a3.56,3.56,0,0,1-1.16-2.65h0a3.59,3.59,0,0,1,1-2.44h0A4.38,4.38,0,0,1,72,161.73h0a4.38,4.38,0,0,1,3,1.15h0a.49.49,0,0,1,0,.69h0a.5.5,0,0,1-.71,0h0a3.32,3.32,0,0,0-2.28-.89h0a3.36,3.36,0,0,0-2.49,1.09h0a2.61,2.61,0,0,0-.69,1.76h0a2.61,2.61,0,0,0,.85,1.91h0A2,2,0,0,0,71,168h0a2,2,0,0,0,1.45-.64h0a1.44,1.44,0,0,0,.4-1h0a1.51,1.51,0,0,0-.48-1.09h0a1.27,1.27,0,0,0-.27-.18h0a.61.61,0,0,1,.16.12h0a1.35,1.35,0,0,1,.43,1h0a1.33,1.33,0,0,1-.35.89h0a1.52,1.52,0,0,1-1.11.49h0a1.49,1.49,0,0,1-1-.4h0a1.76,1.76,0,0,1-.57-1.31h0a1.76,1.76,0,0,1,.46-1.19h0a2.1,2.1,0,0,1,1.54-.68h0a2.12,2.12,0,0,1,1.41.55h0a2.49,2.49,0,0,1,.81,1.83h0a2.51,2.51,0,0,1-.66,1.69h0a3,3,0,0,1-2.19,1h0a3,3,0,0,1-2-.79ZM71.33,166h0a.49.49,0,0,1,.14.47h0l.09-.07h0a.32.32,0,0,0,.08-.21h0a.33.33,0,0,0-.1-.23h0a.21.21,0,0,0-.11,0h0a.16.16,0,0,0-.11,0Z"/><path class="cls-5" d="M86,72a5.64,5.64,0,0,1-4.12-1.78h0A4.64,4.64,0,0,1,80.66,67h0a4.6,4.6,0,0,1,1.45-3.37h0a3.8,3.8,0,0,1,2.61-1h0a3.78,3.78,0,0,1,2.77,1.2h0A3.13,3.13,0,0,1,88.35,66h0a3.11,3.11,0,0,1-1,2.29h0a2.59,2.59,0,0,1-1.79.72h0a2.66,2.66,0,0,1-1.91-.82h0a2.22,2.22,0,0,1-.59-1.51h0a2.21,2.21,0,0,1,.68-1.59h0A1.85,1.85,0,0,1,85,64.57h0a1.84,1.84,0,0,1,1.34.58h0a1.57,1.57,0,0,1,.44,1.09h0a1.57,1.57,0,0,1-.5,1.15h0a1.36,1.36,0,0,1-.94.37h0a1.35,1.35,0,0,1-1-.43h0a1.11,1.11,0,0,1-.31-.64h0a1.19,1.19,0,0,0,.32.8h0a1.6,1.6,0,0,0,1.18.51h0a1.64,1.64,0,0,0,1.11-.44h0A2.17,2.17,0,0,0,87.33,66h0a2.11,2.11,0,0,0-.59-1.47h0a2.8,2.8,0,0,0-2-.88h0a2.82,2.82,0,0,0-1.93.77h0a3.65,3.65,0,0,0-1.13,2.64h0a3.63,3.63,0,0,0,1,2.5h0A4.68,4.68,0,0,0,86.07,71h0a4.68,4.68,0,0,0,3.21-1.27h0a.49.49,0,0,1,.69,0h0a.49.49,0,0,1,0,.69h0A5.6,5.6,0,0,1,86.1,72h0Zm-.9-6.34a.51.51,0,0,1,0,.71h0a.18.18,0,0,0-.06.14h0a.21.21,0,0,0,0,.13h0a.39.39,0,0,0,.27.11h0a.38.38,0,0,0,.25-.09h0a.59.59,0,0,0,.19-.43h0a.59.59,0,0,0-.16-.4h0a.86.86,0,0,0-.62-.27h0l.13.1Z"/><path class="cls-5" d="M79.48,76.28a3,3,0,0,1-2-.79h0a3.59,3.59,0,0,1-1.16-2.65h0a3.55,3.55,0,0,1,1-2.43h0A4.38,4.38,0,0,1,80.54,69h0a4.39,4.39,0,0,1,3,1.16h0a.5.5,0,0,1,0,.71h0a.5.5,0,0,1-.71,0h0A3.38,3.38,0,0,0,80.55,70h0a3.4,3.4,0,0,0-2.49,1.09h0a2.6,2.6,0,0,0-.68,1.76h0a2.59,2.59,0,0,0,.84,1.92h0a2,2,0,0,0,1.34.52h0A2,2,0,0,0,81,74.62h0a1.48,1.48,0,0,0,.39-1h0a1.48,1.48,0,0,0-.48-1.1h0a1.27,1.27,0,0,0-.27-.18h0l.17.13h0a1.34,1.34,0,0,1,.42,1h0a1.33,1.33,0,0,1-.35.89h0a1.51,1.51,0,0,1-1.11.49h0a1.49,1.49,0,0,1-1-.4h0a1.74,1.74,0,0,1-.57-1.3h0a1.78,1.78,0,0,1,.46-1.2h0a2.1,2.1,0,0,1,1.54-.67h0a2,2,0,0,1,1.41.55h0a2.45,2.45,0,0,1,.81,1.83h0a2.5,2.5,0,0,1-.66,1.68h0a3,3,0,0,1-2.19,1Zm.38-3h0a.54.54,0,0,1,.15.48h0l.08-.07h0a.35.35,0,0,0,.08-.22h0a.37.37,0,0,0-.1-.23h-.21Z"/><path class="cls-5" d="M89.48,70.37a.49.49,0,0,1,0-.69h0a.49.49,0,0,1,.68,0l0,0h0a4.68,4.68,0,0,0,3.21,1.27h0a4.68,4.68,0,0,0,3.39-1.46h0a3.65,3.65,0,0,0,1-2.5h0a3.7,3.7,0,0,0-1.14-2.64h0a2.77,2.77,0,0,0-1.93-.77h0a2.8,2.8,0,0,0-2,.88h0a2.11,2.11,0,0,0-.59,1.47h0a2.17,2.17,0,0,0,.67,1.57h0a1.64,1.64,0,0,0,1.11.44h0a1.6,1.6,0,0,0,1.18-.51h0a1.28,1.28,0,0,0,.33-.81h0a1.24,1.24,0,0,1-.32.66h0a1.38,1.38,0,0,1-1,.42h0a1.36,1.36,0,0,1-.94-.37h0a1.57,1.57,0,0,1-.5-1.15h0a1.57,1.57,0,0,1,.44-1.09h0a1.87,1.87,0,0,1,1.29-.6h0a1.85,1.85,0,0,1,1.28.51h0a2.18,2.18,0,0,1,.69,1.59h0a2.23,2.23,0,0,1-.6,1.51h0a2.66,2.66,0,0,1-1.91.82h0a2.59,2.59,0,0,1-1.79-.72h0a3.11,3.11,0,0,1-1-2.29h0a3.13,3.13,0,0,1,.86-2.15h0a3.78,3.78,0,0,1,2.77-1.2h0a3.8,3.8,0,0,1,2.61,1h0a4.61,4.61,0,0,1,1.46,3.37h0a4.65,4.65,0,0,1-1.27,3.18h0a5.64,5.64,0,0,1-4.12,1.78h0a5.63,5.63,0,0,1-3.89-1.55Zm4.28-4.62a.55.55,0,0,0-.16.4h0a.57.57,0,0,0,.19.42h0a.35.35,0,0,0,.25.1h0a.36.36,0,0,0,.26-.11h0a.16.16,0,0,0,.06-.13h0a.2.2,0,0,0-.06-.15h0a.49.49,0,0,1,0-.69h0a.41.41,0,0,1,.13-.1h0a.85.85,0,0,0-.62.27Z"/><path class="cls-5" d="M100,76.23a3,3,0,0,1-2.19-1h0a2.5,2.5,0,0,1-.66-1.68h0a2.45,2.45,0,0,1,.81-1.83h0a2,2,0,0,1,1.41-.55h0a2.1,2.1,0,0,1,1.54.67h0a1.78,1.78,0,0,1,.46,1.2h0a1.74,1.74,0,0,1-.57,1.3h0a1.49,1.49,0,0,1-1,.4h0a1.51,1.51,0,0,1-1.11-.49h0a1.33,1.33,0,0,1-.35-.89h0a1.24,1.24,0,0,1,.43-1h0l.16-.13h0a1.27,1.27,0,0,0-.27.18h0a1.48,1.48,0,0,0-.48,1.1h0a1.44,1.44,0,0,0,.4,1h0a2,2,0,0,0,1.45.64h0a2,2,0,0,0,1.34-.52h0a2.59,2.59,0,0,0,.84-1.92h0A2.6,2.6,0,0,0,101.5,71h0A3.4,3.4,0,0,0,99,69.86h0a3.38,3.38,0,0,0-2.28.89h0a.5.5,0,0,1-.71,0h0A.5.5,0,0,1,96,70h0a4.39,4.39,0,0,1,3-1.16h0a4.38,4.38,0,0,1,3.22,1.42h0a3.58,3.58,0,0,1,1,2.43h0A3.63,3.63,0,0,1,102,75.39h0a3,3,0,0,1-2,.78h0Zm-.59-3a.3.3,0,0,0-.1.22h0a.35.35,0,0,0,.08.22h0l.08.07h0a.52.52,0,0,1,.15-.47h-.22Z"/><path class="cls-6" d="M89.75,73.48C73.36,86.07,75.48,90.13,75.48,90.13s14-16.76,28.06-.18c0,0,2.62-3.88-13.78-16.46Z"/><path class="cls-6" d="M112.41,102.13s13.32,23.59,4.88,37.21c-7.15,11.54-22.75,2.76-20.64-6.34,0,0,2,9.75,11.54,9.1,0,0,10.36-.84,7.63-13.32-.2-1-2.6-8.62-10.56-9.59C105.26,119.19,114,118.7,112.41,102.13Z"/><path class="cls-6" d="M67.22,102.13s-13.32,23.59-4.87,37.21C69.5,150.88,85.51,143.13,83,133c0,0-2,9.75-11.53,9.1,0,0-10.37-.84-7.64-13.32.21-1,2.6-8.62,10.56-9.59C74.37,119.19,65.6,118.7,67.22,102.13Z"/><path class="cls-6" d="M89.87,90.75s1,12.46,7.8,9.86a8.43,8.43,0,0,0-.81,8.34s-6.65.29-6.81,4.52h-.21c-.16-4.23-7.17-4.52-7.17-4.52a8.48,8.48,0,0,0-.81-8.34c6.82,2.6,7.8-9.86,7.8-9.86Z"/><path class="cls-6" d="M74.56,107.11a1.19,1.19,0,1,1-1.19-1.19,1.19,1.19,0,0,1,1.19,1.19Z"/><path class="cls-6" d="M82.39,91.29A1.19,1.19,0,1,1,81.2,90.1a1.19,1.19,0,0,1,1.19,1.19Z"/><path class="cls-6" d="M99.32,91.34a1.19,1.19,0,1,1-1.19-1.19,1.19,1.19,0,0,1,1.19,1.19Z"/><path class="cls-6" d="M107.25,107.06a1.19,1.19,0,1,1-1.19-1.19,1.19,1.19,0,0,1,1.19,1.19Z"/><path class="cls-6" d="M75.48,133a1.19,1.19,0,1,1-1.19-1.19A1.19,1.19,0,0,1,75.48,133Z"/><path class="cls-6" d="M106.48,133a1.19,1.19,0,1,1-1.19-1.19,1.19,1.19,0,0,1,1.19,1.19Z"/><path class="cls-7" d="M82.39,118.48a.91.91,0,1,1-.91-1,.9.9,0,0,1,.92.88S82.39,118.44,82.39,118.48Z"/><path class="cls-7" d="M99,118.48a.91.91,0,1,1,0-.19A.61.61,0,0,1,99,118.48Z"/><path class="cls-7" d="M82.48,110.39a1.2,1.2,0,1,1-1.21-1.19h0A1.2,1.2,0,0,1,82.48,110.39Z"/><path class="cls-7" d="M99.48,110.39a1.2,1.2,0,1,1-1.21-1.19h0a1.19,1.19,0,0,1,1.19,1.19Z"/><path class="cls-8" d="M90.76,115.19a.91.91,0,1,1-.91-.91.91.91,0,0,1,.91.91Z"/><path class="cls-8" d="M81.35,100a.91.91,0,1,1-.91-.91.91.91,0,0,1,.91.91Z"/><path class="cls-8" d="M100.11,99.85a.91.91,0,1,1-.91-.91.91.91,0,0,1,.91.91Z"/><path class="cls-8" d="M91.67,87.73a2.12,2.12,0,1,1-2.12-2.12,2.12,2.12,0,0,1,2.12,2.12Z"/><path class="cls-5" d="M56.42,105.66a4.64,4.64,0,0,1-2.88-4.29h0a4.56,4.56,0,0,1,.35-1.75h0a3.8,3.8,0,0,1,3.52-2.37h0a3.78,3.78,0,0,1,1.44.29h0a3.15,3.15,0,0,1,2,2.91h0a3,3,0,0,1-.24,1.19h0a2.62,2.62,0,0,1-2.42,1.63h0a2.66,2.66,0,0,1-1-.2h0a2.18,2.18,0,0,1-1.36-2h0a2,2,0,0,1,.16-.83h0a1.84,1.84,0,0,1,1.72-1.15h0a1.86,1.86,0,0,1,.7.14h0a1.57,1.57,0,0,1,1,1.46h0a1.53,1.53,0,0,1-.12.6h0a1.36,1.36,0,0,1-1.26.85h0a1.34,1.34,0,0,1-.52-.1h0a1.3,1.3,0,0,1-.55-.46h0a1.19,1.19,0,0,0,.63.6h0a1.58,1.58,0,0,0,.61.12h0a1.61,1.61,0,0,0,1.5-1h0a2.25,2.25,0,0,0,.16-.81h0a2.16,2.16,0,0,0-1.38-2h0a2.78,2.78,0,0,0-1.06-.21h0a2.81,2.81,0,0,0-2.6,1.75h0a3.6,3.6,0,0,0-.27,1.37h0a3.64,3.64,0,0,0,2.26,3.37h0a4.64,4.64,0,0,0,1.76.35h0a4.68,4.68,0,0,0,4.33-2.9h0a.5.5,0,0,1,.65-.28h0a.52.52,0,0,1,.27.66h0a5.67,5.67,0,0,1-5.25,3.52h0a5.64,5.64,0,0,1-2.14-.43Zm1-5.48a.5.5,0,0,1,.26.66h0v.06h0a.2.2,0,0,0,.12.18h0a.33.33,0,0,0,.14,0h0a.38.38,0,0,0,.34-.22h0a.89.89,0,0,0,0-.23h0a.58.58,0,0,0-.36-.54h0a.87.87,0,0,0-.32-.06h0a1,1,0,0,0-.38.08h.17Z"/><path class="cls-5" d="M55.48,112.48a2.92,2.92,0,0,1-.93-.15h0a3.59,3.59,0,0,1-2.48-3.42h0a3.66,3.66,0,0,1,.18-1.13h0a4.38,4.38,0,0,1,4.16-3h0a4.23,4.23,0,0,1,1.37.22h0a.5.5,0,0,1,.32.63h0a.51.51,0,0,1-.63.32h0a3.46,3.46,0,0,0-1.06-.17h0a3.35,3.35,0,0,0-3.2,2.32h0a2.46,2.46,0,0,0-.14.81h0a2.6,2.6,0,0,0,1.79,2.47h0a1.87,1.87,0,0,0,.62.1h0a2,2,0,0,0,1.88-1.36h0a1.5,1.5,0,0,0,.08-.47h0a1.5,1.5,0,0,0-1-1.41h0a1.06,1.06,0,0,0-.31,0h0a.59.59,0,0,1,.19,0h0a1.31,1.31,0,0,1,.9,1.24h0a1.4,1.4,0,0,1-.06.41h0a1.51,1.51,0,0,1-1.44,1h0a1.59,1.59,0,0,1-.48-.07h0A1.78,1.78,0,0,1,54,109.14h0a1.47,1.47,0,0,1,.08-.55h0a2.11,2.11,0,0,1,2-1.44h0a2.05,2.05,0,0,1,.65.1h0a2.51,2.51,0,0,1,1.71,2.36h0a2.28,2.28,0,0,1-.13.78h0A3,3,0,0,1,55.48,112.48Zm.32-3.2h0a.48.48,0,0,1,.33.37h0a.17.17,0,0,0,0-.1h0v-.1h0a.3.3,0,0,0-.21-.29h0a.15.15,0,0,0-.14.1Z"/><path class="cls-5" d="M115.77,102.57h0a.51.51,0,0,1,.26-.66h0a.5.5,0,0,1,.65.28h0a4.68,4.68,0,0,0,4.32,2.9h0a4.66,4.66,0,0,0,1.77-.35h0a3.64,3.64,0,0,0,2.26-3.37h0a3.6,3.6,0,0,0-.27-1.37h0a2.81,2.81,0,0,0-2.6-1.75h0a2.8,2.8,0,0,0-1.07.21h0a2.13,2.13,0,0,0-1.33,2h0a2.05,2.05,0,0,0,.16.81h0a1.61,1.61,0,0,0,1.5,1h0a1.58,1.58,0,0,0,.61-.12h0a1.14,1.14,0,0,0,.62-.6h0a1.13,1.13,0,0,1-.55.46h0a1.29,1.29,0,0,1-.51.1h0a1.36,1.36,0,0,1-1.27-.85h0a1.53,1.53,0,0,1-.12-.6h0a1.6,1.6,0,0,1,1-1.46h0a1.86,1.86,0,0,1,.7-.14h0a1.86,1.86,0,0,1,1.72,1.15h0a2.15,2.15,0,0,1,.16.83h0a2.2,2.2,0,0,1-1.36,2h0a2.66,2.66,0,0,1-1,.2h0a2.62,2.62,0,0,1-2.42-1.63h0a3,3,0,0,1-.24-1.19h0a3.15,3.15,0,0,1,2-2.91h0a3.79,3.79,0,0,1,1.45-.29h0a3.8,3.8,0,0,1,3.52,2.37h0a4.59,4.59,0,0,1,.35,1.75h0a4.64,4.64,0,0,1-2.88,4.29h0a5.65,5.65,0,0,1-2.15.43h0a5.66,5.66,0,0,1-5.24-3.52Zm5.81-2.45a.6.6,0,0,0-.37.54h0a.54.54,0,0,0,.05.22h0a.36.36,0,0,0,.34.23h.14a.2.2,0,0,0,.12-.18h0v-.07h0a.5.5,0,0,1,.28-.65h.15a1,1,0,0,0-.37-.08h0a.87.87,0,0,0-.32.06Z"/><path class="cls-5" d="M121.3,110.48a2.59,2.59,0,0,1-.12-.78h0a2.49,2.49,0,0,1,1.71-2.36h0a2.05,2.05,0,0,1,.65-.1h0a2.09,2.09,0,0,1,2,1.44h0a1.71,1.71,0,0,1,.09.55h0a1.77,1.77,0,0,1-1.22,1.68h0a1.5,1.5,0,0,1-.47.08h0a1.54,1.54,0,0,1-1.44-1h0a1.54,1.54,0,0,1-.07-.42h0a1.3,1.3,0,0,1,.91-1.24h0a.59.59,0,0,1,.19,0h0a1.06,1.06,0,0,0-.31,0h0a1.49,1.49,0,0,0-1,1.41h0a1.49,1.49,0,0,0,.07.47h0a2,2,0,0,0,1.88,1.36h0a1.87,1.87,0,0,0,.62-.1h0a2.6,2.6,0,0,0,1.79-2.47h0a2.45,2.45,0,0,0-.13-.81h0a3.38,3.38,0,0,0-3.2-2.32h0a3.46,3.46,0,0,0-1.06.17h0a.5.5,0,0,1-.63-.32h0a.49.49,0,0,1,.3-.62h0a4.23,4.23,0,0,1,1.37-.22h0a4.38,4.38,0,0,1,4.15,3h0a3.66,3.66,0,0,1,.18,1.13h0a3.61,3.61,0,0,1-2.47,3.42h0a3,3,0,0,1-.94.15h0a3,3,0,0,1-2.83-2Zm2.33-1.24a.31.31,0,0,0-.22.29h0v.1h0v.1h0a.51.51,0,0,1,.33-.37h0a.15.15,0,0,0-.14-.1h0Z"/><polygon class="cls-9" points="92.5 157.12 86.8 157.11 89.65 144.26 92.5 157.12"/><polygon class="cls-10" points="91.22 131.64 88.37 131.63 89.8 125.2 91.22 131.64"/><polygon class="cls-10" points="68.76 95.24 70.29 92.84 74.95 97.49 68.76 95.24"/><polygon class="cls-10" points="110.8 95.18 109.27 92.78 104.62 97.44 110.8 95.18"/><polygon class="cls-10" points="72.17 101.64 73.7 99.23 78.36 103.89 72.17 101.64"/><polygon class="cls-10" points="107.48 101.64 105.95 99.23 101.3 103.89 107.48 101.64"/><polygon class="cls-10" points="93.31 125.77 95.86 124.52 91.76 119.37 93.31 125.77"/><polygon class="cls-10" points="86.41 125.79 83.85 124.54 87.96 119.39 86.41 125.79"/><polygon class="cls-10" points="74.66 124.62 76.1 127.08 69.83 129.1 74.66 124.62"/><polygon class="cls-10" points="105.09 124.75 103.65 127.21 109.92 129.22 105.09 124.75"/><rect class="cls-11" x="87.99" y="139.34" width="3.64" height="3.64"/><path class="cls-12" d="M90.35,69.3a.68.68,0,1,1-.68-.68.67.67,0,0,1,.68.68Z"/><polygon class="cls-13" points="74.6 122.26 74.23 121.12 75.2 120.41 76.17 121.12 75.8 122.26 74.6 122.26"/><polygon class="cls-13" points="71.68 122.94 71.31 121.79 72.28 121.09 73.25 121.79 72.88 122.94 71.68 122.94"/><polygon class="cls-13" points="68.91 124.38 68.54 123.23 69.51 122.52 70.49 123.23 70.12 124.38 68.91 124.38"/><polygon class="cls-13" points="104.73 122.1 105.11 120.96 104.13 120.25 103.16 120.96 103.53 122.1 104.73 122.1"/><polygon class="cls-13" points="107.66 122.77 108.03 121.63 107.06 120.92 106.08 121.63 106.45 122.77 107.66 122.77"/><polygon class="cls-13" points="110.42 124.21 110.79 123.07 109.82 122.36 108.85 123.07 109.22 124.21 110.42 124.21"/><path class="cls-12" d="M86.67,70.62a.69.69,0,1,1-.6-.6A.69.69,0,0,1,86.67,70.62Z"/><path class="cls-12" d="M94.08,70.6a.68.68,0,1,1-.68-.68.67.67,0,0,1,.68.68Z"/><path class="cls-12" d="M59.35,104.89a.69.69,0,1,1-.7-.68h0a.67.67,0,0,1,.69.67Z"/><path class="cls-12" d="M121.87,104.8a.69.69,0,1,1-.69-.69h0A.69.69,0,0,1,121.87,104.8Z"/><path class="cls-12" d="M77.83,163.2a.69.69,0,1,1-.7-.68h0A.7.7,0,0,1,77.83,163.2Z"/><path class="cls-12" d="M103.34,163.21a.68.68,0,1,1-.68-.68h0A.67.67,0,0,1,103.34,163.21Z"/><polygon class="cls-14" points="84.18 159.49 85.6 157.03 87.02 159.49 84.18 159.49"/><polygon class="cls-14" points="92.54 159.47 93.95 157.01 95.37 159.47 92.54 159.47"/><polygon class="cls-14" points="84.33 85.18 85.74 87.64 87.16 85.18 84.33 85.18"/><polygon class="cls-14" points="92.06 85.31 93.47 87.76 94.89 85.31 92.06 85.31"/><polygon class="cls-15" points="101.92 105.21 100.14 105.72 102.17 109.48 101.92 105.21"/><polygon class="cls-15" points="103.88 110.25 104.15 112.09 108.15 110.56 103.88 110.25"/><polygon class="cls-15" points="77.48 105.21 79.26 105.72 77.23 109.48 77.48 105.21"/><polygon class="cls-15" points="75.33 110.25 75.06 112.09 71.06 110.56 75.33 110.25"/><polygon class="cls-15" points="78.69 95.14 78.96 96.97 82.96 95.45 78.69 95.14"/><polygon class="cls-15" points="72.19 136.1 72.46 137.93 76.46 136.4 72.19 136.1"/><polygon class="cls-15" points="70.07 131.21 68.29 131.72 70.32 135.49 70.07 131.21"/><polygon class="cls-15" points="109.49 130.56 111.27 131.07 109.24 134.84 109.49 130.56"/><polygon class="cls-15" points="107.99 136.26 107.72 138.09 103.72 136.57 107.99 136.26"/><polygon class="cls-15" points="100.51 95.14 100.25 96.97 96.25 95.45 100.51 95.14"/><polygon class="cls-15" points="86.09 118.11 87.66 117.13 84.65 114.08 86.09 118.11"/><polygon class="cls-15" points="93.69 118.25 92.13 117.27 95.14 114.23 93.69 118.25"/><path class="cls-8" d="M83.48,129.13A2.12,2.12,0,1,1,81.36,127a2.12,2.12,0,0,1,2.12,2.13Z"/><path class="cls-8" d="M99.89,129.27a2.12,2.12,0,1,1-2.12-2.12h0A2.13,2.13,0,0,1,99.89,129.27Z"/><path class="cls-7" d="M74.82,115.62a1.2,1.2,0,1,1-1.2-1.2h0a1.19,1.19,0,0,1,1.2,1.18Z"/><path class="cls-7" d="M107.73,115.62a1.2,1.2,0,1,1-1.2-1.2h0a1.19,1.19,0,0,1,1.2,1.18Z"/></g></g></g></svg>