<svg xmlns="http://www.w3.org/2000/svg" viewBox="0 0 179.58 250.44"><defs><style>.cls-1{fill:#f4f4f2;}.cls-1,.cls-2{stroke:#231f20;}.cls-2{fill:#231f20;stroke-linejoin:round;}</style></defs><title>spades Asset 10</title><g id="Layer_2" data-name="Layer 2"><g id="Layer_1-2" data-name="Layer 1"><rect class="cls-1" x="0.5" y="0.5" width="178.58" height="249.44" rx="14.17" ry="14.17"/><polygon points="6.17 38.73 6.17 14.67 8.35 14.67 8.35 38.73 6.17 38.73 6.17 38.73"/><path d="M12.94,37.45a4.68,4.68,0,0,1-1.3-3.27h0V19.25A4.65,4.65,0,0,1,12.94,16h0A4.26,4.26,0,0,1,16,14.7h0A4.26,4.26,0,0,1,19,16h0a4.72,4.72,0,0,1,1.3,3.26h0V34.21A4.68,4.68,0,0,1,19,37.48h0A4.23,4.23,0,0,1,16,38.79h0a4.21,4.21,0,0,1-3.06-1.31Zm1.5-19.73a2.15,2.15,0,0,0-.62,1.53h0V34.18a2.15,2.15,0,0,0,.62,1.53h0a2.15,2.15,0,0,0,1.56.67h0a2.17,2.17,0,0,0,1.57-.67h0a2.15,2.15,0,0,0,.62-1.53h0V19.25a2.15,2.15,0,0,0-.62-1.53h0a2.19,2.19,0,0,0-1.63-.7h0a2.18,2.18,0,0,0-1.56.66Z"/><polygon points="173.42 211.71 173.42 235.77 171.24 235.77 171.24 211.71 173.42 211.71 173.42 211.71"/><path d="M166.67,213a4.6,4.6,0,0,1,1.3,3.26h0v14.93a4.55,4.55,0,0,1-1.3,3.26h0a4.22,4.22,0,0,1-3.06,1.32h0a4.24,4.24,0,0,1-3.07-1.32h0a4.67,4.67,0,0,1-1.3-3.26h0v-15a4.72,4.72,0,0,1,1.3-3.26h0a4.24,4.24,0,0,1,3.07-1.32h0a4.26,4.26,0,0,1,3.06,1.32Zm-1.5,19.72a2.15,2.15,0,0,0,.62-1.53h0v-15a2.15,2.15,0,0,0-.62-1.53h0a2.18,2.18,0,0,0-1.56-.66h0a2.2,2.2,0,0,0-1.57.66h0a2.19,2.19,0,0,0-.62,1.53h0v14.93a2.19,2.19,0,0,0,.62,1.53h0a2.2,2.2,0,0,0,1.57.66h0a2.18,2.18,0,0,0,1.56-.66Z"/><path class="cls-2" d="M13.25,43l-.12.07c-3,1.94-6.58,5.72-7,10.44a3.29,3.29,0,0,0,2.7,3.79l.42,0a2.93,2.93,0,0,0,2.65-1.2c.43-.67.54-1.7.61-1.22.25,1.81-.51,3.56-.92,5.08a4.88,4.88,0,0,1,1.61-.25h0a4.88,4.88,0,0,1,1.61.25c-.41-1.52-1.17-3.27-.92-5.08.07-.48.18.55.61,1.22a2.93,2.93,0,0,0,2.65,1.2A3.29,3.29,0,0,0,20.31,54a3,3,0,0,0,0-.42c-.37-4.72-3.91-8.5-6.95-10.44a.41.41,0,0,0-.11-.07Z"/><path class="cls-2" d="M166.32,207.42l-.12-.08c-3-1.94-6.58-5.72-7-10.44a3.29,3.29,0,0,1,2.7-3.79l.42,0a2.93,2.93,0,0,1,2.65,1.2c.43.67.54,1.7.61,1.23.25-1.82-.51-3.57-.92-5.09a4.64,4.64,0,0,0,1.61.25h0a4.64,4.64,0,0,0,1.61-.25c-.41,1.52-1.17,3.27-.92,5.09.07.47.18-.56.61-1.23a2.93,2.93,0,0,1,2.65-1.2,3.29,3.29,0,0,1,3.16,3.41,3,3,0,0,1,0,.42c-.36,4.72-3.91,8.5-6.94,10.44l-.12.08Z"/><path class="cls-2" d="M46.54,26l-.3.18c-7.59,4.85-16.45,14.31-17.36,26.1-.43,5.61,3.16,9.5,7.79,9.58,3,.06,5.35-1,6.64-3,1.07-1.67,1.34-4.24,1.52-3,.62,4.54-1.28,8.9-2.31,12.72a12.09,12.09,0,0,1,4-.63h0a11.83,11.83,0,0,1,4,.63c-1-3.82-2.92-8.18-2.3-12.72.18-1.19.45,1.38,1.52,3,1.29,2,3.67,3.07,6.63,3,4.64-.08,8.23-4,7.79-9.58-.91-11.79-9.77-21.25-17.36-26.1L46.53,26Z"/><path class="cls-2" d="M91.18,54.35l-.29.19c-7.59,4.84-16.46,14.31-17.36,26.1-.44,5.61,3.15,9.49,7.79,9.58,3,0,5.34-1,6.63-3C89,85.55,89.3,83,89.47,84.16c.63,4.55-1.28,8.91-2.31,12.72a12.63,12.63,0,0,1,4-.63h0a12.63,12.63,0,0,1,4,.63c-1-3.81-2.93-8.17-2.3-12.72.17-1.19.44,1.39,1.51,3.06,1.29,2,3.68,3.06,6.63,3,4.64-.09,8.23-4,7.8-9.58-.91-11.79-9.77-21.26-17.36-26.1-.08-.07-.15-.1-.27-.19Z"/><path class="cls-2" d="M134.41,26l-.29.18c-7.6,4.85-16.46,14.31-17.37,26.1-.43,5.61,3.16,9.5,7.8,9.58,3,.06,5.34-1,6.63-3,1.07-1.67,1.35-4.24,1.52-3,.62,4.54-1.28,8.9-2.31,12.72a12.09,12.09,0,0,1,4-.63h0a12.09,12.09,0,0,1,4,.63c-1-3.82-2.93-8.18-2.3-12.72.17-1.19.44,1.38,1.51,3,1.29,2,3.67,3.07,6.63,3,4.64-.08,8.23-4,7.8-9.58-.91-11.79-9.77-21.25-17.36-26.1l-.28-.18Z"/><path class="cls-2" d="M46.54,78l-.3.18c-7.59,4.85-16.45,14.31-17.36,26.1-.43,5.61,3.16,9.49,7.79,9.58,3,.05,5.35-1,6.64-3,1.07-1.67,1.34-4.25,1.52-3.06.62,4.54-1.28,8.91-2.31,12.72a12.09,12.09,0,0,1,4-.63h0a11.83,11.83,0,0,1,4,.63c-1-3.81-2.92-8.18-2.3-12.72.18-1.19.45,1.39,1.52,3.06,1.29,2,3.67,3.06,6.63,3,4.64-.09,8.23-4,7.79-9.58-.91-11.79-9.77-21.25-17.36-26.1a2.11,2.11,0,0,0-.27-.18Z"/><path class="cls-2" d="M133,78l-.29.18c-7.59,4.85-16.46,14.31-17.36,26.1-.44,5.61,3.15,9.49,7.79,9.58,3,.05,5.34-1,6.63-3,1.07-1.67,1.35-4.25,1.52-3.06.63,4.54-1.28,8.91-2.3,12.72a11.83,11.83,0,0,1,4-.63h0a12.09,12.09,0,0,1,4,.63c-1-3.81-2.92-8.18-2.3-12.72.17-1.19.44,1.39,1.51,3.06,1.29,2,3.68,3.06,6.63,3,4.64-.09,8.23-4,7.8-9.58-.91-11.79-9.77-21.25-17.36-26.1L133,78Z"/><path class="cls-2" d="M46.54,224.42l-.3-.18c-7.59-4.85-16.45-14.31-17.36-26.1-.43-5.61,3.16-9.5,7.79-9.58,3-.05,5.35,1,6.64,3,1.07,1.67,1.34,4.25,1.52,3.05.62-4.54-1.28-8.9-2.31-12.72a12.36,12.36,0,0,0,4,.64h0a12.36,12.36,0,0,0,4-.64c-1,3.82-2.92,8.18-2.3,12.72.18,1.2.45-1.38,1.52-3.05,1.29-2,3.67-3.06,6.63-3,4.64.08,8.23,4,7.79,9.58-.91,11.79-9.77,21.25-17.36,26.1a2.11,2.11,0,0,1-.27.18Z"/><path class="cls-2" d="M133,224.42l-.29-.18c-7.59-4.85-16.45-14.31-17.36-26.1-.43-5.61,3.15-9.5,7.79-9.58,3-.05,5.34,1,6.63,3,1.08,1.67,1.35,4.25,1.52,3.05.63-4.54-1.27-8.9-2.3-12.72a12.36,12.36,0,0,0,4,.64h0a12.36,12.36,0,0,0,4-.64c-1,3.82-2.92,8.18-2.3,12.72.17,1.2.45-1.38,1.52-3.05,1.28-2,3.67-3.06,6.63-3,4.64.08,8.22,4,7.79,9.58-.91,11.79-9.77,21.25-17.36,26.1a2.11,2.11,0,0,1-.27.18Z"/><path class="cls-2" d="M46.54,172.46l-.3-.19c-7.59-4.84-16.45-14.31-17.36-26.1-.43-5.61,3.16-9.49,7.79-9.58,3-.05,5.35,1,6.64,3,1.07,1.67,1.34,4.25,1.52,3.06.62-4.55-1.28-8.91-2.31-12.72a12.63,12.63,0,0,0,4,.63h0a12.63,12.63,0,0,0,4-.63c-1,3.81-2.92,8.17-2.3,12.72.18,1.19.45-1.39,1.52-3.06,1.29-2,3.67-3.06,6.63-3,4.64.09,8.23,4,7.79,9.58-.91,11.79-9.77,21.26-17.36,26.1-.08.07-.15.1-.27.19Z"/><path class="cls-2" d="M89.77,196.08l-.3-.18c-7.59-4.85-16.45-14.31-17.36-26.11-.43-5.61,3.15-9.49,7.79-9.58,3-.05,5.34,1,6.64,3,1.07,1.67,1.34,4.25,1.52,3.06.62-4.54-1.28-8.91-2.31-12.72a12.63,12.63,0,0,0,4,.63h0a12.63,12.63,0,0,0,4-.63c-1,3.81-2.92,8.18-2.3,12.72.17,1.19.45-1.39,1.52-3.06,1.29-2,3.67-3.06,6.63-3,4.64.09,8.22,4,7.79,9.58-.91,11.8-9.77,21.26-17.36,26.11l-.27.18Z"/><path class="cls-2" d="M133,172.46l-.29-.19c-7.59-4.84-16.45-14.31-17.36-26.1-.43-5.61,3.15-9.49,7.79-9.58,3-.05,5.34,1,6.63,3,1.08,1.67,1.35,4.25,1.52,3.06.63-4.55-1.27-8.91-2.3-12.72a12.63,12.63,0,0,0,4,.63h0a12.63,12.63,0,0,0,4-.63c-1,3.81-2.92,8.17-2.3,12.72.17,1.19.45-1.39,1.52-3.06,1.28-2,3.67-3.06,6.63-3,4.64.09,8.22,4,7.79,9.58-.91,11.79-9.77,21.26-17.36,26.1-.08.07-.15.1-.27.19Z"/></g></g></svg>