<svg xmlns="http://www.w3.org/2000/svg" viewBox="0 0 179.58 250.45"><defs><style>.cls-1{fill:#f4f4f2;}.cls-1,.cls-2,.cls-3{stroke:#231f20;}.cls-2,.cls-3{fill:#231f20;stroke-linejoin:round;}.cls-2{stroke-width:0.07px;}.cls-3{stroke-width:0.16px;}</style></defs><title>spades Asset 3</title><g id="Layer_2" data-name="Layer 2"><g id="Layer_1-2" data-name="Layer 1"><g id="three"><rect class="cls-1" x="0.5" y="0.5" width="178.58" height="249.45" rx="14.17" ry="14.17"/><path d="M14.31,22.48l5.88-5.25h0V14.67H6.71v4.07H8.79V17.2h7.92L9,24.39l1.12,1.66a4.51,4.51,0,0,1,3.07-1.24,4.91,4.91,0,0,1,3.57,1.67,6.4,6.4,0,0,1,0,8.11,5,5,0,0,1-3.65,1.68,4.6,4.6,0,0,1-3.5-1.68,6.18,6.18,0,0,1-1.32-2.78l-2.11.44c.68,3.72,3.52,6.5,6.93,6.5,3.92,0,7.24-3.67,7.24-8.21C20.34,26.48,17.71,23.12,14.31,22.48Z"/><path d="M165.27,228l-5.88,5.25h0v2.51h13.53v-4.07h-2.07v1.54h-7.92l7.77-7.2-1.12-1.66a4.53,4.53,0,0,1-3.08,1.25,4.93,4.93,0,0,1-3.64-1.68,6.4,6.4,0,0,1,0-8.11,4.93,4.93,0,0,1,3.64-1.68,4.6,4.6,0,0,1,3.5,1.68,6,6,0,0,1,1.33,2.78l2.11-.44c-.68-3.71-3.53-6.5-6.94-6.5-3.91,0-7.23,3.68-7.23,8.21C159.24,224,161.9,227.32,165.27,228Z"/><path class="cls-2" d="M166.32,207.48l-.12-.08c-3-1.94-6.59-5.72-7-10.44a3.29,3.29,0,0,1,2.7-3.79l.42,0a2.93,2.93,0,0,1,2.65,1.2c.43.67.54,1.7.61,1.23.25-1.82-.51-3.57-.92-5.09a4.88,4.88,0,0,0,1.61.25h0a4.88,4.88,0,0,0,1.61-.25c-.41,1.52-1.17,3.27-.92,5.09.07.47.18-.56.61-1.23a2.93,2.93,0,0,1,2.65-1.2,3.29,3.29,0,0,1,3.16,3.41,3,3,0,0,1,0,.42c-.37,4.72-3.91,8.5-7,10.44l-.11.08Z"/><path class="cls-2" d="M13.24,43l-.11.07c-3,1.94-6.59,5.72-7,10.44a3.29,3.29,0,0,0,2.7,3.79l.42,0A3,3,0,0,0,12,56.16c.43-.67.54-1.7.61-1.22.25,1.81-.51,3.56-.92,5.08a4.88,4.88,0,0,1,1.61-.25h0a4.88,4.88,0,0,1,1.61.25c-.41-1.52-1.17-3.27-.92-5.08.07-.48.18.55.6,1.22a3,3,0,0,0,2.66,1.2A3.29,3.29,0,0,0,20.36,54a3,3,0,0,0,0-.42c-.37-4.72-3.91-8.5-7-10.44a.41.41,0,0,0-.11-.07Z"/><path class="cls-3" d="M89.76,26l-.29.18C81.88,31,73,40.5,72.11,52.29c-.43,5.61,3.15,9.5,7.79,9.58,3,.06,5.34-1,6.63-3,1.07-1.67,1.35-4.24,1.52-3,.63,4.54-1.28,8.9-2.3,12.72a11.83,11.83,0,0,1,4-.63h0a12.09,12.09,0,0,1,4,.63c-1-3.82-2.93-8.18-2.3-12.72.17-1.19.44,1.38,1.51,3,1.29,2,3.68,3.07,6.64,3,4.64-.08,8.22-4,7.79-9.58-.83-11.81-9.68-21.25-17.28-26.1L89.84,26Z"/><path class="cls-3" d="M89.76,104l-.29.18C81.88,109,73,118.45,72.11,130.24c-.43,5.62,3.15,9.5,7.79,9.58,3,.06,5.34-1,6.63-3,1.07-1.67,1.35-4.25,1.52-3.06.63,4.54-1.28,8.91-2.3,12.72a11.83,11.83,0,0,1,4-.63h0a12.09,12.09,0,0,1,4,.63c-1-3.81-2.93-8.18-2.3-12.72.17-1.19.44,1.39,1.51,3.06,1.29,2,3.68,3.06,6.64,3,4.64-.08,8.22-4,7.79-9.58-.91-11.79-9.77-21.25-17.36-26.1l-.27-.18Z"/><path class="cls-3" d="M89.76,224.48l-.29-.18C81.88,219.45,73,210,72.11,198.2c-.43-5.61,3.15-9.5,7.79-9.58,3-.06,5.34,1,6.63,3,1.07,1.67,1.35,4.24,1.52,3,.63-4.54-1.28-8.9-2.3-12.72a12.36,12.36,0,0,0,4,.64h0a12.36,12.36,0,0,0,4-.64c-1,3.82-2.93,8.18-2.3,12.72.17,1.19.44-1.38,1.51-3,1.29-2,3.68-3.07,6.64-3,4.64.08,8.22,4,7.79,9.58C106.48,210,97.62,219.45,90,224.3c-.08.07-.16.1-.27.18Z"/></g></g></g></svg>