<svg xmlns="http://www.w3.org/2000/svg" viewBox="0 0 179.58 250.45"><defs><style>.cls-1{fill:#f4f4f2;}.cls-1,.cls-2,.cls-3,.cls-4{stroke:#231f20;}.cls-3,.cls-4{fill:#231f20;stroke-linejoin:round;}.cls-3{stroke-width:0.07px;}.cls-4{stroke-width:0.16px;}</style></defs><title>spades Asset 5</title><g id="Layer_2" data-name="Layer 2"><g id="Layer_1-2" data-name="Layer 1"><g id="five"><rect class="cls-1" x="0.5" y="0.5" width="178.58" height="249.45" rx="14.17" ry="14.17"/><path class="cls-2" d="M18.23,23.63A6.83,6.83,0,0,0,12.94,21a6.42,6.42,0,0,0-3.6,1.13v-5h9.37V14.67H7.11v.81h0v9.73H9.36A5,5,0,0,1,13,23.31a4.58,4.58,0,0,1,3.57,1.85,7.77,7.77,0,0,1,0,9.36,4.61,4.61,0,0,1-3.58,1.87,4.32,4.32,0,0,1-2.77-1,6.47,6.47,0,0,1-1.91-2.78l-2.1.85a8.8,8.8,0,0,0,2.63,3.81,6.55,6.55,0,0,0,4.15,1.49h0a6.81,6.81,0,0,0,5.28-2.67,10.26,10.26,0,0,0,0-12.46Z"/><path class="cls-2" d="M161.35,226.81a6.84,6.84,0,0,0,5.28,2.68,6.42,6.42,0,0,0,3.6-1.13v5h-9.37v2.38h11.61v-.83h0v-9.73h-2.25a5,5,0,0,1-3.59,1.9,4.65,4.65,0,0,1-3.58-1.85,7.8,7.8,0,0,1,0-9.36,4.65,4.65,0,0,1,3.58-1.85,4.38,4.38,0,0,1,2.77,1,6.47,6.47,0,0,1,1.91,2.78l2.1-.85a8.68,8.68,0,0,0-2.64-3.81,6.54,6.54,0,0,0-4.14-1.52h0a6.81,6.81,0,0,0-5.28,2.67,10.26,10.26,0,0,0,0,12.46Z"/><path class="cls-3" d="M13.24,43l-.11.07c-3,1.94-6.59,5.72-7,10.44a3.29,3.29,0,0,0,2.7,3.79l.42,0a2.93,2.93,0,0,0,2.65-1.2c.43-.67.54-1.7.61-1.22.25,1.81-.51,3.56-.92,5.08a4.88,4.88,0,0,1,1.61-.25h0a4.88,4.88,0,0,1,1.61.25c-.41-1.52-1.17-3.27-.92-5.08.07-.48.18.55.61,1.22a2.93,2.93,0,0,0,2.65,1.2A3.29,3.29,0,0,0,20.31,54a3,3,0,0,0,0-.42c-.37-4.72-3.91-8.5-6.95-10.44a.41.41,0,0,0-.11-.07Z"/><path class="cls-3" d="M166.32,207.48l-.12-.08c-3-1.94-6.58-5.72-7-10.44a3.29,3.29,0,0,1,2.7-3.79l.42,0a2.93,2.93,0,0,1,2.65,1.2c.43.67.54,1.7.61,1.23.25-1.82-.51-3.57-.92-5.09a4.88,4.88,0,0,0,1.61.25h0a4.88,4.88,0,0,0,1.61-.25c-.41,1.52-1.17,3.27-.92,5.09.07.47.18-.56.61-1.23a2.93,2.93,0,0,1,2.65-1.2,3.29,3.29,0,0,1,3.16,3.41,3,3,0,0,1,0,.42c-.37,4.72-3.91,8.5-7,10.44l-.1.08Z"/><path class="cls-4" d="M46.54,26l-.3.18C38.65,31,29.79,40.5,28.88,52.29c-.43,5.61,3.15,9.5,7.79,9.58,3,.06,5.35-1,6.64-3,1.07-1.67,1.34-4.24,1.51-3,.63,4.54-1.27,8.9-2.3,12.72a12.09,12.09,0,0,1,4-.63h0a11.83,11.83,0,0,1,4,.63c-1-3.82-2.92-8.18-2.3-12.72.17-1.19.45,1.38,1.52,3,1.29,2,3.67,3.07,6.63,3,4.64-.08,8.22-4,7.79-9.58C63.25,40.5,54.39,31,46.8,26.19L46.53,26Z"/><path class="cls-4" d="M133,26l-.29.18c-7.59,4.85-16.45,14.31-17.36,26.1-.44,5.61,3.15,9.5,7.79,9.58,3,.06,5.34-1,6.63-3,1.07-1.67,1.35-4.24,1.52-3,.63,4.54-1.27,8.9-2.3,12.72a11.83,11.83,0,0,1,4-.63h0a12.09,12.09,0,0,1,4,.63c-1-3.82-2.93-8.18-2.3-12.72.17-1.19.44,1.38,1.51,3,1.29,2,3.67,3.07,6.64,3,4.63-.08,8.22-4,7.79-9.58-.83-11.81-9.68-21.25-17.28-26.1l-.27-.18Z"/><path class="cls-4" d="M89.77,104l-.3.18C81.88,109,73,118.45,72.11,130.25c-.43,5.61,3.15,9.49,7.79,9.57,3,.06,5.34-1,6.63-3,1.08-1.67,1.35-4.25,1.52-3.06.63,4.54-1.27,8.91-2.3,12.72a12.09,12.09,0,0,1,4-.63h0a11.83,11.83,0,0,1,4,.63c-1-3.81-2.92-8.18-2.3-12.72.17-1.19.45,1.39,1.52,3.06,1.29,2,3.67,3.06,6.63,3,4.64-.08,8.22-4,7.79-9.57-.91-11.8-9.77-21.26-17.36-26.11l-.27-.18Z"/><path class="cls-4" d="M46.54,224.48l-.3-.18c-7.59-4.85-16.45-14.31-17.36-26.1-.43-5.61,3.15-9.5,7.79-9.58,3-.05,5.35,1,6.64,3,1.07,1.67,1.34,4.24,1.51,3,.63-4.54-1.27-8.9-2.3-12.72a12.09,12.09,0,0,0,4,.63h0a11.83,11.83,0,0,0,4-.63c-1,3.82-2.92,8.18-2.3,12.72.17,1.19.45-1.38,1.52-3,1.29-2,3.67-3.06,6.63-3,4.64.08,8.22,4,7.79,9.58-.91,11.79-9.77,21.25-17.36,26.1l-.27.18Z"/><path class="cls-4" d="M133,224.48l-.29-.18c-7.59-4.85-16.45-14.31-17.36-26.1-.43-5.61,3.15-9.5,7.79-9.58,3-.05,5.34,1,6.63,3,1.08,1.67,1.35,4.24,1.52,3,.63-4.54-1.27-8.9-2.3-12.72a12.09,12.09,0,0,0,4,.63h0a11.83,11.83,0,0,0,4-.63c-1,3.82-2.93,8.18-2.3,12.72.17,1.19.44-1.38,1.51-3,1.29-2,3.67-3.06,6.64-3,4.63.08,8.22,4,7.79,9.58-.91,11.79-9.77,21.25-17.36,26.1l-.27.18Z"/></g></g></g></svg>